<?xml version="1.0" encoding="UTF-8"?>
<svg id="Layer_2" data-name="Layer 2" xmlns="http://www.w3.org/2000/svg" viewBox="0 0 403.25 385.3">
  <defs>
    <style>
      .cls-1 {
        fill: #dc000c;
      }

      .cls-2 {
        fill: #003002;
      }

      .cls-3 {
        fill: #ffc500;
      }
    </style>
  </defs>
  <g id="v1">
    <g>
      <g>
        <path class="cls-2" d="M401.33,237.89c-.39-1.14-2.01-3.57-2.79-4.64-.43-.58-2.51-.51-1.03-1.87,3.71.37,5.31.41,5.18-3.8-.04-1.52-3.38-8.68-4.32-10.14-1.33-2.06-8.93-10.07-11.13-11.92-2.52-2.12-5.07-3.85-7.89-5.56-.85-5.27,1.07-10.59,1.32-15.72.78-16.67-.44-33.7-.58-50.29-.02-1.42,0-2.84.04-4.28-1.3-8.24-2.35-16.53-4.1-24.69-1.83-8.57-4.39-17.09-7.67-25.22-3.18-7.91-7.23-15.64-12.66-22.26-1.29-1.57-2.66-3.08-4.11-4.5-1.67-1.64-3.51-3.01-5.36-4.43-3.81-2.92-7.62-5.92-11.9-8.14-6.27-3.27-13.37-4.38-19.92-6.9-18.73.08-37.07,3.59-55.66,5.72.95-2.23,2.73-4.02,3.82-6.16.92-1.81,5.35-11.16,5.52-12.38.72-5.18-1.46-9.7-7.05-7.05-9.8,4.66-22.93,24.05-30.85,24.93-1.67.19-6.71.02-6.47-2.3.06-.63.99-1.48,1.14-2.35,1-6.05,3.14-10.36,4.13-15.15.43-2.1.96-13-.06-14.44-1.71-2.38-8.83-5.36-11.5-4.02-2.25,1.14-2.88,8.59-3.3,10.76.35.6.18,1.5-.53,1.77-.07,2.22-.42,4.4-.92,6.56-.01.05-.01.1-.02.15-.3,3.7-.98,7.36-1.69,11-.23,1.18-.41,2.36-.61,3.56-.15.92-.31,2.11-1.01,2.8-.71.7-1.67.49-2.56.45-1.32-.05-2.59.06-3.86-.16-5.12.26-12.89.03-14.24-.55-.95-.4-6.24-5.16-7.43-6.32-3.58-3.46-6.52-7.74-10.49-11.03-2.23-1.84-5.63-3.35-7.76-5.17-2.19-1.87-3.32-5.71-7.24-5.01-2.53.45.25,11.95.86,14.14,1.08,3.85,3.14,7.36,4.33,11.16-1.76-.04-2.81-1.44-4.5-2.03-3.96-1.38-8.65-1.98-12.71-3.13-14.19-4-16.92-7.86-31.35.32-17.61,9.98-39.21,31.71-51.65,47.51-3.53,4.47-6,10.47-9.25,14.58-.17.5-.35,1-.53,1.51-.26.26-.51.59-.7,1-13.13,28.73-21.88,59.08-26.09,90.32-.14.64-.28,1.29-.41,1.93-.57,2.95-1.28,6.02-3.27,8.36-1.26,1.49-2.92,2.51-4.55,3.56-2.01,5.25-9.18,13.27-12.1,18.78-1.73,3.24-6.31,10.24-2.15,12.73,4.98,2.98,10.53-5.43,13.96-8.14-.65,2.73-2.18,5.18-2.69,7.98-.55,3.04-1.44,10.7-1.49,13.72-.01.84.62,5.53.84,5.75.49.49,6.88,1.21,8.01.31l6.35-7.1c1,7.86,6.93,36.36,17.23,19.62-.57-8.63-1.7-16.4-3.38-24.85-.3-1.5.21-3.2-.09-4.61-.04-.17-1.61-1.37-2.06-2.66.54.14,1.1.18,1.69.12,3.19,2.62,7.85,5.85,10.71,2.39,2.26-2.75-1.95-7.57-2.06-10.66,8.01.02,3.2-8.17.39-11.75-3.76-4.77-11.4-9.06-15.29-13.29-.4-.44-1.82-2.21-1.94-2.55-.79-2.06,1.23-12.33,1.87-15.28,3.59-16.79,8.43-33.08,11.14-50,.16-1.02.23-2.11.28-3.22,2.26-6.56,4.74-13.03,7.43-19.43,10.68-19.93,21.79-36.5,39.06-53.64,11.34-11.26,23.65-20.27,39.81-19.89.46-.09.94-.15,1.42-.17,4.22-.18,8.33,1.24,12.44,1.96,2.45.42,4.92.75,7.33,1.37,2.08.53,4.61,1.27,5.99,3.04.45.58.45,1.66-.34,1.94-.14.5-.63.9-1.15.88-.29-.02-.58-.01-.88.01-.08.01-.16.02-.25.03-.02,0-.1.02-.18.03-.05.04-.1.07-.16.11-1.07.31-2.13.61-3.2.91-.5.18-1.01.36-1.52.52-.18.06-.35.06-.52.03-8.19,2.23-16.45,4.08-24.9,4.9-44.57,20.55-75.72,69.3-72.69,118.73,1.09,17.8,8.96,43.65,20.34,56.78,1.09,1.27,4.81,4.57,5.08,4.95.05.06.06.15.05.24.2.1.39.24.51.44.06.11.14.22.21.33.67.13.93,1.56,1.33,1.98,5.23,5.43,18.92,17.14,29.36,23.98.03.04.05.1.09.13,3.26,2.57,6.64,4.99,10.14,7.23.93.69,1.86,1.39,2.8,2.09.65.29,1.3.59,1.93.93.25.14.4.38.49.64.06-.01.11-.04.18-.04.43,0,.73.2.92.46,1.6.53,3.09,1.52,4.51,2.32,2.9,1.62,5.83,3.03,8.9,4.29,2.72,1.11,5.41,2.28,8.08,3.48.83.16,1.65.34,2.48.49,3.82,1.2,7.67,2.3,11.55,3.28,0,.14,0,.28-.01.42.25-.05.52-.02.8.15,1.04.6,2.13,1.12,3.23,1.59l.07-1.16c24.69,5.77,50.28,7.21,75.54,4.17.09-.02.17-.06.28-.06s.21-.01.31-.01h.03c.14-.02.27-.06.4-.1.03.03.06.06.08.09,3.39-.1,6.71-.75,9.93-1.81.46-.15.84-.03,1.1.23.12-.04.24-.06.37-.1v.77s0,0,.01,0c1.64-.9,3.28-1.79,4.97-2.58.5-.23,1.06-.17,1.44.2.04-.15.07-.3.11-.45,2.16-.45,4.29-1.07,6.41-1.73,3.05-.33,6.08-.77,9.11-1.3.13-.12.3-.22.53-.27,1.8-.41,3.61-.77,5.42-1.16.46-.21.93-.44,1.38-.7.28-.17.55-.2.8-.15.01-.1.01-.2-.01-.3.1-.02.21-.03.3-.06,7.17-1.73,28.6-16.86,34.28-22.21,6.59-6.2,15.75-19.79,20.52-27.66,18.07-29.83,23.98-74.85,11.97-108.16-15.05-41.76-44.22-57.8-85-69.94-1.05-.31-2.16-.62-3.29-.93-.01.01-.02.01-.03.01-.51.16-.92-.01-1.17-.32-2.38-.6-4.82-1.11-7.07-1.32-.1-1.03,1.7-1.1,2.47-1.31,1.63-.44,3.23-.9,4.95-.76.9-.18,1.85-.17,2.77-.14.87.02,1.75.01,2.63,0,4.28-1.17,8.62-2.09,13.04-2.66.17-.02.34.02.5.09,18.73-3.5,40.07-1.59,56.07,7.41,15.74,8.85,20.59,17.39,26.6,34,8.06,22.3,10.06,49.6,10.82,73.87.29,9.38-.29,18.68-.67,28.02-.02,1.92-.11,3.83-.14,5.74,0,.02.02.04.02.06.04.15.02.54-.04,1.08v.17c0,.14-.03.26-.06.37-.3,2.31-1.06,6.25-1.57,6.94-6.05,5.85-13.44,11.25-17.44,18.65-.24.21-.46.45-.65.75-2.46,3.77-3.69,8.02-3.72,12.51-.02,3.02,2.94,4.02,5.06,2.97.84.02,1.64-.26,2.41-.68-.81,1.22-1.55,2.37-1.95,3.21-2.32,4.88-3.29,10.31-5.45,15.27-.16,2.41,3.6,4.53,5.57,4.17,5.36-.97,9.23-8.07,13.09-11.4v12.74c0,1.81,1.58,8.85,2.26,10.83,3.18,9.28,9.31,7.61,11.97-.73,2.8-8.75.97-17.66-1.14-26.28,1.8,1.12,1.49,3.12,3.09,4.82,1.95,2.07,8.5,6.77,11.18,7.41,3.32.79,6.93-2.19,6.96-5.68.01-1.09-1.5-8.48-1.92-9.69ZM207.1,47.53c-2.25.31-4.06-1.01-5.98-1.94l-5.03-4.26c5.17,1.7,12.66-2.44,11.01,6.2ZM297.31,65.72c18.03,8.97,33.92,21.49,42.82,39.18,12.11,24.07,13.84,42.93,11.58,69.67-2.98,35.24-24.81,69.81-53.78,89.45-9.82,6.65-13.63,6.42-24.32,9.42-5.59,1.57-11.73,4.28-17.44,5.28-1.7.3-3.45.56-5.22.78-1.59,0-3.18-.03-4.77-.07-6.11,1.15-12.27,2-18.42,1.33-3.69.07-7.38.07-11.07.06-.26,0-.46-.08-.63-.19-.84.01-1.69.02-2.53.04-13.83.25-27.79.32-41.44-2.25-6.82-1.28-13.45-3.3-19.77-6.16-3.32-1.51-6.55-3.21-9.9-4.66-2.58-1.13-5.21-2.18-7.64-3.59-16.51-6.91-31.07-17-44.75-29.52-15.07-13.8-23.32-26.51-28.59-46.46-11.09-41.95,5.05-89.13,37.92-117.07,5.29-4.5,21.75-16.23,28-18.56.05-.03.1-.05.15-.07.2-.13.42-.23.67-.25.05-.01.11-.01.16-.02,1.39-.44,1.96-.43,2.2-.18h.03c.67-.1,1.34-.2,1.97-.34,2.38-.56,4.83-.94,7.28-.98,3.6-.97,8.53-1.73,10.17-1.97,5.25-.68,13.6-6.48,18.36-4.66,2.05.79,5.87,4.43,8.18,5.95,6.94,4.57,13.04,7.39,21.97,6.63,3.14-.27,5.32-3.24,8.6-2.78,1.49,1.43-5.79,6.5-6.96,7.14-15.01,8.3-38.74,10.87-55.01,5.59-6.88-2.22-16-9.45-10.86,4.67,4.77,13.09,22.25,22.72,35.94,21.1,12.18-1.44,22.11-8.79,31.4-16.12l7.51-9.1c.27-.73.67-1.43,1.28-1.94,1.1-.91,2.36-.69,3.2.42,1.61,2.12,2.31,4.67,3.08,7.18.82,1.42,1.58,3.99,2.1,4.84,7.38,12.3,21.76,24.89,36.82,22.82.03.03.07.06.1.09.35-.05.71-.12,1.13-.22.59-.14,1.19-.25,1.79-.35.14-.02.28-.05.42-.08,6.82-2.37,13.34-5.52,19.44-9.34.16-.2.36-.33.6-.43-.07.03-.15.06-.22.09.58-.24,1.1-.63,1.63-.96.25-.16.51-.3.78-.43,0-.03.02-.07.02-.1.6-.41,1.21-.81,1.8-1.23,1.11-.53,2.19-1.1,3.25-1.74,3.08-1.86,5.89-4.21,8.12-7.04,2.33-2.95,4.11-6.78,2.55-10.51-.12-.29-.33-.47-.57-.57-.51-.22-1.16-.02-1.37.43-6,4.45-13.17,7.05-20.61,7.43-1.09.21-2.18.38-3.28.45-.03.01-.07,0-.1,0-9.98,2.46-33.65,1.06-41.42-5.56-.87-.74-2.28-2.37-3.62-4.19-.09-.05-.17-.11-.24-.19-1.69-1.75-3.2-3.71-4.44-5.8-1.22-2.07-2.34-4.51-2.21-6.97.02-.48.28-.8.61-.98.38-.97,2-1.19,2.26.07.03.11-.05.05.03.1h.01s.01,0,.01,0c.04.03.12.09.14.1.1.06.2.11.3.16.36.15.9.27,1.33.35.84.17,1.7.22,2.55.32.92.1,1.84.29,2.75.49.54-.01,1.09-.03,1.65-.08,9.76-.97,11.66-6.06,23.3-3.19,14.18,3.5,29.33,8.33,43.22,15.26Z"/>
        <path class="cls-1" d="M340.13,104.9c12.11,24.07,13.84,42.93,11.58,69.67-2.98,35.24-24.81,69.81-53.78,89.45-9.82,6.65-13.63,6.42-24.32,9.42-5.59,1.57-11.73,4.28-17.44,5.28-1.7.3-3.45.56-5.22.78-1.59,0-3.18-.03-4.77-.07-6.11,1.15-12.27,2-18.42,1.33-3.69.07-7.38.07-11.07.06-.26,0-.46-.08-.63-.19-.84.01-1.69.02-2.53.04-13.83.25-27.79.32-41.44-2.25-6.82-1.28-13.45-3.3-19.77-6.16-3.32-1.51-6.55-3.21-9.9-4.66-2.58-1.13-5.21-2.18-7.64-3.59-16.51-6.91-31.07-17-44.75-29.52-15.07-13.8-23.32-26.51-28.59-46.46-11.09-41.95,5.05-89.13,37.92-117.07,5.29-4.5,21.75-16.23,28-18.56.05-.03.1-.05.15-.07.2-.13.42-.23.67-.25.05-.01.11-.01.16-.02,1.39-.44,1.96-.43,2.2-.18h.03c.67-.1,1.34-.2,1.97-.34,2.38-.56,4.83-.94,7.28-.98,3.6-.97,8.53-1.73,10.17-1.97,5.25-.68,13.6-6.48,18.36-4.66,2.05.79,5.87,4.43,8.18,5.95,6.94,4.57,13.04,7.39,21.97,6.63,3.14-.27,5.32-3.24,8.6-2.78,1.49,1.43-5.79,6.5-6.96,7.14-15.01,8.3-38.74,10.87-55.01,5.59-6.88-2.22-16-9.45-10.86,4.67,4.77,13.09,22.25,22.72,35.94,21.1,12.18-1.44,22.11-8.79,31.4-16.12l7.51-9.1c.27-.73.67-1.43,1.28-1.94,1.1-.91,2.36-.69,3.2.42,1.61,2.12,2.31,4.67,3.08,7.18.82,1.42,1.58,3.99,2.1,4.84,7.38,12.3,21.76,24.89,36.82,22.82.03.03.07.06.1.09.35-.05.71-.12,1.13-.22.59-.14,1.19-.25,1.79-.35.14-.02.28-.05.42-.08,6.82-2.37,13.34-5.52,19.44-9.34.16-.2.36-.33.6-.43-.07.03-.15.06-.22.09.58-.24,1.1-.63,1.63-.96.25-.16.51-.3.78-.43,0-.03.02-.07.02-.1.6-.41,1.21-.81,1.8-1.23,1.11-.53,2.19-1.1,3.25-1.74,3.08-1.86,5.89-4.21,8.12-7.04,2.33-2.95,4.11-6.78,2.55-10.51-.12-.29-.33-.47-.57-.57l.87-1.79c18.03,8.97,33.92,21.49,42.82,39.18ZM327.62,159.08c3.74-7.24,3.04-26.94,1.62-35.22-1.21-7.06-3.58-18.48-9.11-23.26-7.47-6.45-10.38-.34-14.23,5.08-.19.27-.43.5-.68.7-.08.92-.15,1.84-.04,2.75.12,1.01.67,2.18,1.05,3.22.03.07.02.15.03.23,3.43,5.34,6.28,19.3,6.62,24.19.38,5.57-1.52,22.61,2.39,25.84,4.32,3.56,10.06.9,12.35-3.53ZM318.05,190.82c10.74-1.16,9.02-16.35-1.56-17.76-.87-.12-1.5-.29-2.42-.03-5.41,1.57-10.17,19.31,3.98,17.79Z"/>
        <path d="M329.24,123.86c1.42,8.28,2.12,27.98-1.62,35.22-2.29,4.43-8.03,7.09-12.35,3.53-3.91-3.23-2.01-20.27-2.39-25.84-.34-4.89-3.19-18.85-6.62-24.19-.01-.08,0-.16-.03-.23-.38-1.04-.93-2.21-1.05-3.22-.11-.91-.04-1.83.04-2.75.25-.2.49-.43.68-.7,3.85-5.42,6.76-11.53,14.23-5.08,5.53,4.78,7.9,16.2,9.11,23.26ZM325.22,147.73c1.04-8.67-1.08-34.31-6.14-41.26-.57-.78-3.62-3.95-4.41-3.77-.52,1.33-3.9,3.48-4.2,4.09-1.72,3.49,3.53,11.85,4.67,16.01,2.48,9.01,2.47,19.38,2.63,28.5.04,2.78.77,5.41-.06,8.53.24.25,4.16-.41,4.65-.85.43-.38,2.71-9.98,2.86-11.25Z"/>
        <path class="cls-3" d="M319.08,106.47c5.06,6.95,7.18,32.59,6.14,41.26-.15,1.27-2.43,10.87-2.86,11.25-.49.44-4.41,1.1-4.65.85.83-3.12.1-5.75.06-8.53-.16-9.12-.15-19.49-2.63-28.5-1.14-4.16-6.39-12.52-4.67-16.01.3-.61,3.68-2.76,4.2-4.09.79-.18,3.84,2.99,4.41,3.77Z"/>
        <path class="cls-3" d="M319.42,179.12c4.58,2.12-3.79,12.9-5.54,4.63-.49-.6-.8-1.29-.83-2.08-.02-.69.2-1.4.55-1.98.73-1.23,2.02-2.07,3.45-2.15.24-.02.45.05.63.17.6-.08,1.12.35,1.32.89.05.14.07.29.1.44.09,0,.19.02.32.08Z"/>
        <path d="M316.49,173.06c10.58,1.41,12.3,16.6,1.56,17.76-14.15,1.52-9.39-16.22-3.98-17.79.92-.26,1.55-.09,2.42.03ZM313.88,183.75c1.75,8.27,10.12-2.51,5.54-4.63-.13-.06-.23-.08-.32-.08-.03-.15-.05-.3-.1-.44-.2-.54-.72-.97-1.32-.89-.18-.12-.39-.19-.63-.17-1.43.08-2.72.92-3.45,2.15-.35.58-.57,1.29-.55,1.98.03.79.34,1.48.83,2.08Z"/>
        <path class="cls-1" d="M297.31,65.72l-.87,1.79c-.51-.22-1.16-.02-1.37.43-6,4.45-13.17,7.05-20.61,7.43-1.09.21-2.18.38-3.28.45-.03.01-.07,0-.1,0-9.98,2.46-33.65,1.06-41.42-5.56-.87-.74-2.28-2.37-3.62-4.19-.09-.05-.17-.11-.24-.19-1.69-1.75-3.2-3.71-4.44-5.8-1.22-2.07-2.34-4.51-2.21-6.97.02-.48.28-.8.61-.98.38-.97,2-1.19,2.26.07.03.11-.05.05.03.1h.01s.01,0,.01,0c.04.03.12.09.14.1.1.06.2.11.3.16.36.15.9.27,1.33.35.84.17,1.7.22,2.55.32.92.1,1.84.29,2.75.49.54-.01,1.09-.03,1.65-.08,9.76-.97,11.66-6.06,23.3-3.19,14.18,3.5,29.33,8.33,43.22,15.26Z"/>
        <path class="cls-1" d="M196.09,41.33c5.17,1.7,12.66-2.44,11.01,6.2-2.25.31-4.06-1.01-5.98-1.94l-5.03-4.26Z"/>
      </g>
      <path class="cls-2" d="M142,366.7c-.57-1.71-1.06-3.44-1.47-5.2-1.97-5.4-3.74-10.9-2.09-16.47.33-1.12,1.06-2.14,2.15-2.28.99-1.54,3.03-1.79,4.57-.46.99.86,1.54,2.14,2.15,3.27.78,1.45,1.56,2.9,2.34,4.35.03.05.06.11.09.16.57.57,1.12,1.18,1.66,1.83.27-17.88.53-35.77.8-53.65l.28-18.96c.03-1.84,1.9-2.34,3.07-1.58.16-.7.34-1.4.54-2.1.62-2.13,3.97-1.77,3.93.53-.01.79-.03,1.57-.04,2.36.68.26,1.23.85,1.25,1.78.49,17.74.11,35.49-1.17,53.19-.29,4.08-.65,8.16-1.04,12.23v24.03s10.84-5.36,10.84-5.36c6.79-2.09,1.34,8.06-.48,9.88-1.09,1.09-3.32,2.31-5.41,3.57-1.39,1.51-2.77,3.01-4.16,4.51-.6.64-1.2,1.34-1.9,1.9-.18.32-.31.54-.37.57-.38.22-.76.3-1.15.27-.1.04-.2.08-.3.1-1.58.38-3.16-.21-4.56-.9-5.33-2.62-10.1-6.57-13.97-11.09-2.39-1.21-4.42-2.76-5.45-5.11-2.82-6.46,5.13-3.25,9.88-1.38Z"/>
      <path class="cls-2" d="M237.43,310.63c.81-1.37,3.41-1.38,5.2-.75.42.05.85.19,1.29.45.52.31.98.73,1.39,1.19-1.22-8.36-1.97-16.79-2.22-25.24-.03-1.08.66-1.7,1.47-1.87l-.05-.9c.11-.02.23-.03.34-.05,1.21-.23,2.53-.65,3.62-1.32l.08.84c1.03-.04,2.04.59,1.94,1.91-.57,7.19-.36,14.42.69,21.55.19.09.39.15.6.15,1.11-3.31,2.89-6.36,5.2-8.98,2.08-4.5,10.98-12,11.98-6.75,1,5.22-2.58,14.89-3.44,20.31,3.33-.1,5.1-2.71,8.6-2.81,7.26-.21,4.69,4.31,1.94,8.15-3.52,4.92-8.32,6.9-12.89,10.07t-.01.01s-.02.1-.03.15c-.33.19-.64.42-.94.7,0,.01-.01.02-.02.03-.2.1-.37.25-.49.45-.06.09-.12.18-.18.27-.04.04-.07.08-.11.12-.02.03-.03.04-.05.06-.1.12-.2.24-.29.35l-.02.02c-.31.34-.65.66-1.01.95-.08.07-.17.14-.25.21-.05.03-.09.07-.13.1-.19.13-.38.26-.57.38-.18.12-.37.23-.56.33-.09.05-.19.1-.29.14-.04.02-.08.04-.12.06s-.05.03-.05.03c-.24.11-.44.25-.59.49-.09.15-.14.32-.15.49-1.72,1.47-3.47,2.9-5.29,4.26-.54.4-1.24.44-1.88.25-1.47.4-3.07-.2-4.1-1.38-1.54-1.74-1.67-4.18-2.79-6.14-.11-.2-.13-.39-.11-.57-.82-1.65-1.56-3.34-2.19-5.08-.57-1.58-1.06-3.19-1.46-4.82-.19-.79-.4-1.6-.54-2.43-1.27-1.85-2.45-3.8-1.52-5.38Z"/>
    </g>
  </g>
</svg>