<?xml version="1.0" encoding="UTF-8"?>
<svg id="Layer_2" data-name="Layer 2" xmlns="http://www.w3.org/2000/svg" viewBox="0 0 403.25 342.85">
  <defs>
    <style>
      .cls-1 {
        fill: #dc000c;
      }

      .cls-2 {
        fill: #003002;
      }

      .cls-3 {
        fill: #ffc500;
      }
    </style>
  </defs>
  <g id="v1">
    <g>
      <path class="cls-2" d="M401.33,237.89c.42,1.21,1.93,8.6,1.92,9.69-.03,3.49-3.64,6.47-6.96,5.68-2.68-.64-9.23-5.34-11.18-7.41-1.6-1.7-1.29-3.7-3.09-4.82,2.11,8.62,3.94,17.53,1.14,26.28-2.66,8.34-8.79,10.01-11.97.73-.68-1.98-2.26-9.02-2.26-10.83v-12.74c-3.86,3.33-7.73,10.43-13.09,11.4-1.97.36-5.73-1.76-5.57-4.17,2.16-4.96,3.13-10.39,5.45-15.27.4-.84,1.14-1.99,1.95-3.21-.77.42-1.57.7-2.41.68-2.12,1.05-5.08.05-5.06-2.97.03-4.49,1.26-8.74,3.72-12.51.19-.3.41-.54.65-.75,4-7.4,11.39-12.8,17.44-18.65.51-.69,1.27-4.63,1.57-6.94.03-.11.06-.23.06-.37v-.17c.06-.54.08-.93.04-1.08,0-.02-.02-.04-.02-.06.03-1.91.12-3.82.14-5.74.38-9.34.96-18.64.67-28.02-.76-24.27-2.76-51.57-10.82-73.87-6.01-16.61-10.86-25.15-26.6-34-16-9-37.34-10.91-56.07-7.41-.16-.07-.33-.11-.5-.09-4.42.57-8.76,1.49-13.04,2.66-.88.01-1.76.02-2.63,0-.92-.03-1.87-.04-2.77.14-1.72-.14-3.32.32-4.95.76-.77.21-2.57.28-2.47,1.31,2.25.21,4.69.72,7.07,1.32.25.31.66.48,1.17.32.01,0,.02,0,.03-.01,1.13.31,2.24.62,3.29.93,40.78,12.14,69.95,28.18,85,69.94,12.01,33.31,6.1,78.33-11.97,108.16-4.77,7.87-13.93,21.46-20.52,27.66-5.68,5.35-27.11,20.48-34.28,22.21-.09.03-.2.04-.3.06.02.1.02.2.01.3-.25-.05-.52-.02-.8.15-.45.26-.92.49-1.38.7-1.81.39-3.62.75-5.42,1.16-.23.05-.4.15-.53.27-3.03.53-6.06.97-9.11,1.3-2.12.66-4.25,1.28-6.41,1.73-2.6,9.08-.52,18.27-1.02,27.55,1.27-1.74,2.46-3.23,3.77-4.53.03-.05.06-.11.09-.16l2.34-4.35c.61-1.13,1.16-2.41,2.15-3.27,1.54-1.33,3.58-1.08,4.57.46,1.09.14,1.82,1.16,2.15,2.28,1.65,5.57-.12,11.07-2.09,16.47-.41,1.76-.9,3.49-1.47,5.2,4.75-1.87,12.7-5.08,9.88,1.38-1.03,2.35-3.06,3.9-5.45,5.11-3.87,4.52-8.64,8.47-13.97,11.09-1.4.69-2.98,1.28-4.56.9-.1-.02-.2-.06-.3-.1-.39.03-.77-.05-1.15-.27-.06-.03-.19-.25-.37-.57-.7-.56-1.3-1.26-1.9-1.9-1.39-1.5-2.77-3-4.16-4.51-2.09-1.26-4.32-2.48-5.41-3.57-1.82-1.82-7.27-11.97-.48-9.88l10.84,5.36v-40.63c-.13.04-.25.06-.37.1-.26-.26-.64-.38-1.1-.23-3.22,1.06-6.54,1.71-9.93,1.81-.02-.03-.05-.06-.08-.09-.13.04-.26.08-.4.1h-.03c-.1,0-.2.01-.31.01s-.19.04-.28.06c-25.26,3.04-50.85,1.6-75.54-4.17l-2.08,36.86c.62-.86,1.33-1.7,2.23-2.23.44-.26.87-.4,1.29-.45,1.79-.63,4.39-.62,5.2.75.93,1.58-.25,3.53-1.52,5.38-.14.83-.35,1.64-.54,2.43-.4,1.63-.89,3.24-1.46,4.82-.63,1.74-1.37,3.43-2.19,5.08.02.18,0,.37-.11.57-1.12,1.96-1.25,4.4-2.79,6.14-1.03,1.18-2.63,1.78-4.1,1.38-.64.19-1.34.15-1.88-.25-1.82-1.36-3.57-2.79-5.29-4.26-.01-.17-.06-.34-.15-.49-.15-.24-.35-.38-.59-.49,0,0-.01-.01-.05-.03l-.12-.06c-.1-.04-.2-.09-.29-.14-.19-.1-.38-.21-.56-.33-.19-.12-.38-.25-.57-.38-.04-.03-.08-.07-.13-.1-.08-.07-.17-.14-.25-.21-.36-.29-.7-.61-1.01-.95l-.02-.02c-.09-.11-.19-.23-.29-.35-.02-.02-.03-.03-.05-.06-.04-.04-.07-.08-.11-.12l-.18-.27c-.12-.2-.29-.35-.49-.45-.01-.01-.02-.02-.02-.03-.3-.28-.61-.51-.94-.7l-.03-.15s0-.01,0-.01c-4.57-3.17-9.37-5.15-12.89-10.07-2.75-3.84-5.32-8.36,1.94-8.15,3.5.1,5.27,2.71,8.6,2.81-.86-5.42-4.44-15.09-3.44-20.31,1-5.25,9.9,2.25,11.98,6.75,2.31,2.62,4.09,5.67,5.2,8.98.27,0,.54-.07.76-.23.53-3.99,1.06-7.99,1.59-11.98-.06-.09-.13-.18-.22-.25l1.34-13.61c-.23-1.54.13-3.81.16-5.82-3.88-.98-7.73-2.08-11.55-3.28-.83-.15-1.65-.33-2.48-.49-2.67-1.2-5.36-2.37-8.08-3.48-3.07-1.26-6-2.67-8.9-4.29-1.42-.8-2.91-1.79-4.51-2.32-.19-.26-.49-.46-.92-.46-.07,0-.12.03-.18.04-.09-.26-.24-.5-.49-.64-.63-.34-1.28-.64-1.93-.93-.94-.7-1.87-1.4-2.8-2.09-3.5-2.24-6.88-4.66-10.14-7.23-.04-.03-.06-.09-.09-.13-10.44-6.84-24.13-18.55-29.36-23.98-.4-.42-.66-1.85-1.33-1.98-.07-.11-.15-.22-.21-.33-.12-.2-.31-.34-.51-.44,0-.09,0-.18-.05-.24-.27-.38-3.99-3.68-5.08-4.95-11.38-13.13-19.25-38.98-20.34-56.78-3.03-49.43,28.12-98.18,72.69-118.73,8.45-.82,16.71-2.67,24.9-4.9.17.03.34.03.52-.03.51-.16,1.02-.34,1.52-.52,1.07-.3,2.13-.6,3.2-.91.06-.04.11-.07.16-.11.08-.01.16-.03.18-.03.09-.01.17-.02.25-.03.3-.02.59-.03.88-.01.52.02,1.01-.38,1.15-.88.79-.28.79-1.36.34-1.94-1.38-1.77-3.91-2.51-5.99-3.04-2.41-.62-4.88-.95-7.33-1.37-4.11-.72-8.22-2.14-12.44-1.96-.48.02-.96.08-1.42.17-16.16-.38-28.47,8.63-39.81,19.89-17.27,17.14-28.38,33.71-39.06,53.64-2.69,6.4-5.17,12.87-7.43,19.43-.05,1.11-.12,2.2-.28,3.22-2.71,16.92-7.55,33.21-11.14,50-.64,2.95-2.66,13.22-1.87,15.28.12.34,1.54,2.11,1.94,2.55,3.89,4.23,11.53,8.52,15.29,13.29,2.81,3.58,7.62,11.77-.39,11.75.11,3.09,4.32,7.91,2.06,10.66-2.86,3.46-7.52.23-10.71-2.39-.59.06-1.15.02-1.69-.12.45,1.29,2.02,2.49,2.06,2.66.3,1.41-.21,3.11.09,4.61,1.68,8.45,2.81,16.22,3.38,24.85-10.3,16.74-16.23-11.76-17.23-19.62l-6.35,7.1c-1.13.9-7.52.18-8.01-.31-.22-.22-.85-4.91-.84-5.75.05-3.02.94-10.68,1.49-13.72.51-2.8,2.04-5.25,2.69-7.98-3.43,2.71-8.98,11.12-13.96,8.14-4.16-2.49.42-9.49,2.15-12.73,2.92-5.51,10.09-13.53,12.1-18.78,1.63-1.05,3.29-2.07,4.55-3.56,1.99-2.34,2.7-5.41,3.27-8.36.13-.64.27-1.29.41-1.93,4.21-31.24,12.96-61.59,26.09-90.32.19-.41.44-.74.7-1,.18-.51.36-1.01.53-1.51,3.25-4.11,5.72-10.11,9.25-14.58,12.44-15.8,34.04-37.53,51.65-47.51,14.43-8.18,17.16-4.32,31.35-.32,4.06,1.15,8.75,1.75,12.71,3.13,1.69.59,2.74,1.99,4.5,2.03-1.19-3.8-3.25-7.31-4.33-11.16-.61-2.19-3.39-13.69-.86-14.14,3.92-.7,5.05,3.14,7.24,5.01,2.13,1.82,5.53,3.33,7.76,5.17,3.97,3.29,6.91,7.57,10.49,11.03,1.19,1.16,6.48,5.92,7.43,6.32,1.35.58,9.12.81,14.24.55,1.27.22,2.54.11,3.86.16.89.04,1.85.25,2.56-.45.7-.69.86-1.88,1.01-2.8.2-1.2.38-2.38.61-3.56.71-3.64,1.39-7.3,1.69-11,0-.05,0-.1.02-.15.5-2.16.85-4.34.92-6.56.71-.27.88-1.17.53-1.77.42-2.17,1.05-9.62,3.3-10.76,2.67-1.34,9.79,1.64,11.5,4.02,1.02,1.44.49,12.34.06,14.44-.99,4.79-3.13,9.1-4.13,15.15-.15.87-1.08,1.72-1.14,2.35-.24,2.32,4.8,2.49,6.47,2.3,7.92-.88,21.05-20.27,30.85-24.93,5.59-2.65,7.77,1.87,7.05,7.05-.17,1.22-4.6,10.57-5.52,12.38-1.09,2.14-2.87,3.93-3.82,6.16,18.59-2.13,36.93-5.64,55.66-5.72,6.55,2.52,13.65,3.63,19.92,6.9,4.28,2.22,8.09,5.22,11.9,8.14,1.85,1.42,3.69,2.79,5.36,4.43,1.45,1.42,2.82,2.93,4.11,4.5,5.43,6.62,9.48,14.35,12.66,22.26,3.28,8.13,5.84,16.65,7.67,25.22,1.75,8.16,2.8,16.45,4.1,24.69-.04,1.44-.06,2.86-.04,4.28.14,16.59,1.36,33.62.58,50.29-.25,5.13-2.17,10.45-1.32,15.72,2.82,1.71,5.37,3.44,7.89,5.56,2.2,1.85,9.8,9.86,11.13,11.92.94,1.46,4.28,8.62,4.32,10.14.13,4.21-1.47,4.17-5.18,3.8-1.48,1.36.6,1.29,1.03,1.87.78,1.07,2.4,3.5,2.79,4.64ZM351.71,174.57c2.26-26.74.53-45.6-11.58-69.67-8.9-17.69-24.79-30.21-42.82-39.18-13.89-6.93-29.04-11.76-43.22-15.26-11.64-2.87-13.54,2.22-23.3,3.19-.56.05-1.11.07-1.65.08-.91-.2-1.83-.39-2.75-.49-.85-.1-1.71-.15-2.55-.32-.43-.08-.97-.2-1.33-.35-.1-.05-.2-.1-.3-.16-.02-.01-.1-.07-.14-.1h-.02c-.08-.06,0,0-.03-.11-.26-1.26-1.88-1.04-2.26-.07-.33.18-.59.5-.61.98-.13,2.46.99,4.9,2.21,6.97,1.24,2.09,2.75,4.05,4.44,5.8.07.08.15.14.24.19,1.34,1.82,2.75,3.45,3.62,4.19,7.77,6.62,31.44,8.02,41.42,5.56.03,0,.07.01.1,0,1.1-.07,2.19-.24,3.28-.45,7.44-.38,14.61-2.98,20.61-7.43.21-.45.86-.65,1.37-.43.24.1.45.28.57.57,1.56,3.73-.22,7.56-2.55,10.51-2.23,2.83-5.04,5.18-8.12,7.04-1.06.64-2.14,1.21-3.25,1.74-.59.42-1.2.82-1.8,1.23,0,.03-.02.07-.02.1-.27.13-.53.27-.78.43-.53.33-1.05.72-1.63.96.07-.03.15-.06.22-.09-.24.1-.44.23-.6.43-6.1,3.82-12.62,6.97-19.44,9.34-.14.03-.28.06-.42.08-.6.1-1.2.21-1.79.35-.42.1-.78.17-1.13.22-.03-.03-.07-.06-.1-.09-15.06,2.07-29.44-10.52-36.82-22.82-.52-.85-1.28-3.42-2.1-4.84-.77-2.51-1.47-5.06-3.08-7.18-.84-1.11-2.1-1.33-3.2-.42-.61.51-1.01,1.21-1.28,1.94l-7.51,9.1c-9.29,7.33-19.22,14.68-31.4,16.12-13.69,1.62-31.17-8.01-35.94-21.1-5.14-14.12,3.98-6.89,10.86-4.67,16.27,5.28,40,2.71,55.01-5.59,1.17-.64,8.45-5.71,6.96-7.14-3.28-.46-5.46,2.51-8.6,2.78-8.93.76-15.03-2.06-21.97-6.63-2.31-1.52-6.13-5.16-8.18-5.95-4.76-1.82-13.11,3.98-18.36,4.66-1.64.24-6.57,1-10.17,1.97-2.45.04-4.9.42-7.28.98-.63.14-1.3.24-1.97.34h-.03c-.24-.25-.81-.26-2.2.18-.05,0-.11,0-.16.02-.25.02-.47.12-.67.25-.05.02-.1.04-.15.07-6.25,2.33-22.71,14.06-28,18.56-32.87,27.94-49.01,75.12-37.92,117.07,5.27,19.95,13.52,32.66,28.59,46.46,13.68,12.52,28.24,22.61,44.75,29.52,2.43,1.41,5.06,2.46,7.64,3.59,3.35,1.45,6.58,3.15,9.9,4.66,6.32,2.86,12.95,4.88,19.77,6.16,13.65,2.57,27.61,2.5,41.44,2.25.84-.02,1.69-.03,2.53-.04.17.11.37.19.63.19,3.69.01,7.38.01,11.07-.06,6.15.67,12.31-.18,18.42-1.33,1.59.04,3.18.07,4.77.07,1.77-.22,3.52-.48,5.22-.78,5.71-1,11.85-3.71,17.44-5.28,10.69-3,14.5-2.77,24.32-9.42,28.97-19.64,50.8-54.21,53.78-89.45ZM207.1,47.53c1.65-8.64-5.84-4.5-11.01-6.2l5.03,4.26c1.92.93,3.73,2.25,5.98,1.94Z"/>
      <path class="cls-1" d="M340.13,104.9c12.11,24.07,13.84,42.93,11.58,69.67-2.98,35.24-24.81,69.81-53.78,89.45-9.82,6.65-13.63,6.42-24.32,9.42-5.59,1.57-11.73,4.28-17.44,5.28-1.7.3-3.45.56-5.22.78-1.59,0-3.18-.03-4.77-.07-6.11,1.15-12.27,2-18.42,1.33-3.69.07-7.38.07-11.07.06-.26,0-.46-.08-.63-.19-.84.01-1.69.02-2.53.04-13.83.25-27.79.32-41.44-2.25-6.82-1.28-13.45-3.3-19.77-6.16-3.32-1.51-6.55-3.21-9.9-4.66-2.58-1.13-5.21-2.18-7.64-3.59-16.51-6.91-31.07-17-44.75-29.52-15.07-13.8-23.32-26.51-28.59-46.46-11.09-41.95,5.05-89.13,37.92-117.07,5.29-4.5,21.75-16.23,28-18.56.05-.03.1-.05.15-.07.2-.13.42-.23.67-.25.05-.01.11-.01.16-.02,1.39-.44,1.96-.43,2.2-.18h.03c.67-.1,1.34-.2,1.97-.34,2.38-.56,4.83-.94,7.28-.98,3.6-.97,8.53-1.73,10.17-1.97,5.25-.68,13.6-6.48,18.36-4.66,2.05.79,5.87,4.43,8.18,5.95,6.94,4.57,13.04,7.39,21.97,6.63,3.14-.27,5.32-3.24,8.6-2.78,1.49,1.43-5.79,6.5-6.96,7.14-15.01,8.3-38.74,10.87-55.01,5.59-6.88-2.22-16-9.45-10.86,4.67,4.77,13.09,22.25,22.72,35.94,21.1,12.18-1.44,22.11-8.79,31.4-16.12l7.51-9.1c.27-.73.67-1.43,1.28-1.94,1.1-.91,2.36-.69,3.2.42,1.61,2.12,2.31,4.67,3.08,7.18.82,1.42,1.58,3.99,2.1,4.84,7.38,12.3,21.76,24.89,36.82,22.82.03.03.07.06.1.09.35-.05.71-.12,1.13-.22.59-.14,1.19-.25,1.79-.35.14-.02.28-.05.42-.08,6.82-2.37,13.34-5.52,19.44-9.34.16-.2.36-.33.6-.43-.07.03-.15.06-.22.09.58-.24,1.1-.63,1.63-.96.25-.16.51-.3.78-.43,0-.03.02-.07.02-.1.6-.41,1.21-.81,1.8-1.23,1.11-.53,2.19-1.1,3.25-1.74,3.08-1.86,5.89-4.21,8.12-7.04,2.33-2.95,4.11-6.78,2.55-10.51-.12-.29-.33-.47-.57-.57l.87-1.79c18.03,8.97,33.92,21.49,42.82,39.18ZM327.62,159.08c3.74-7.24,3.04-26.94,1.62-35.22-1.21-7.06-3.58-18.48-9.11-23.26-7.47-6.45-10.38-.34-14.23,5.08-.19.27-.43.5-.68.7-.08.92-.15,1.84-.04,2.75.12,1.01.67,2.18,1.05,3.22.03.07.02.15.03.23,3.43,5.34,6.28,19.3,6.62,24.19.38,5.57-1.52,22.61,2.39,25.84,4.32,3.56,10.06.9,12.35-3.53ZM318.05,190.82c10.74-1.16,9.02-16.35-1.56-17.76-.87-.12-1.5-.29-2.42-.03-5.41,1.57-10.17,19.31,3.98,17.79Z"/>
      <path d="M329.24,123.86c1.42,8.28,2.12,27.98-1.62,35.22-2.29,4.43-8.03,7.09-12.35,3.53-3.91-3.23-2.01-20.27-2.39-25.84-.34-4.89-3.19-18.85-6.62-24.19,0-.08,0-.16-.03-.23-.38-1.04-.93-2.21-1.05-3.22-.11-.91-.04-1.83.04-2.75.25-.2.49-.43.68-.7,3.85-5.42,6.76-11.53,14.23-5.08,5.53,4.78,7.9,16.2,9.11,23.26ZM325.22,147.73c1.04-8.67-1.08-34.31-6.14-41.26-.57-.78-3.62-3.95-4.41-3.77-.52,1.33-3.9,3.48-4.2,4.09-1.72,3.49,3.53,11.85,4.67,16.01,2.48,9.01,2.47,19.38,2.63,28.5.04,2.78.77,5.41-.06,8.53.24.25,4.16-.41,4.65-.85.43-.38,2.71-9.98,2.86-11.25Z"/>
      <path class="cls-3" d="M319.08,106.47c5.06,6.95,7.18,32.59,6.14,41.26-.15,1.27-2.43,10.87-2.86,11.25-.49.44-4.41,1.1-4.65.85.83-3.12.1-5.75.06-8.53-.16-9.12-.15-19.49-2.63-28.5-1.14-4.16-6.39-12.52-4.67-16.01.3-.61,3.68-2.76,4.2-4.09.79-.18,3.84,2.99,4.41,3.77Z"/>
      <path class="cls-3" d="M319.42,179.12c4.58,2.12-3.79,12.9-5.54,4.63-.49-.6-.8-1.29-.83-2.08-.02-.69.2-1.4.55-1.98.73-1.23,2.02-2.07,3.45-2.15.24-.02.45.05.63.17.6-.08,1.12.35,1.32.89.05.14.07.29.1.44.09,0,.19.02.32.08Z"/>
      <path d="M316.49,173.06c10.58,1.41,12.3,16.6,1.56,17.76-14.15,1.52-9.39-16.22-3.98-17.79.92-.26,1.55-.09,2.42.03ZM313.88,183.75c1.75,8.27,10.12-2.51,5.54-4.63-.13-.06-.23-.08-.32-.08-.03-.15-.05-.3-.1-.44-.2-.54-.72-.97-1.32-.89-.18-.12-.39-.19-.63-.17-1.43.08-2.72.92-3.45,2.15-.35.58-.57,1.29-.55,1.98.03.79.34,1.48.83,2.08Z"/>
      <path class="cls-1" d="M297.31,65.72l-.87,1.79c-.51-.22-1.16-.02-1.37.43-6,4.45-13.17,7.05-20.61,7.43-1.09.21-2.18.38-3.28.45-.03.01-.07,0-.1,0-9.98,2.46-33.65,1.06-41.42-5.56-.87-.74-2.28-2.37-3.62-4.19-.09-.05-.17-.11-.24-.19-1.69-1.75-3.2-3.71-4.44-5.8-1.22-2.07-2.34-4.51-2.21-6.97.02-.48.28-.8.61-.98.38-.97,2-1.19,2.26.07.03.11-.05.05.03.1h.01s.01.01.01.01c.04.03.12.09.14.1.1.06.2.11.3.16.36.15.9.27,1.33.35.84.17,1.7.22,2.55.32.92.1,1.84.29,2.75.49.54-.01,1.09-.03,1.65-.08,9.76-.97,11.66-6.06,23.3-3.19,14.18,3.5,29.33,8.33,43.22,15.26Z"/>
      <path class="cls-1" d="M196.09,41.33c5.17,1.7,12.66-2.44,11.01,6.2-2.25.31-4.06-1.01-5.98-1.94l-5.03-4.26Z"/>
    </g>
  </g>
</svg>