<?xml version="1.0" encoding="UTF-8"?>
<svg id="Layer_2" data-name="Layer 2" xmlns="http://www.w3.org/2000/svg" viewBox="0 0 436.46 425.07">
  <defs>
    <style>
      .cls-1 {
        fill: #fff;
      }

      .cls-2 {
        fill: #dc000c;
      }

      .cls-3 {
        fill: #003002;
      }

      .cls-4 {
        fill: #ffc500;
      }
    </style>
  </defs>
  <g id="v1">
    <g>
      <path class="cls-3" d="M431.87,250.86c6.41,9.15,8.27,20.87-8.97,12.18l-8.34-6.46c2.52,4.56,3.96,25.97-1.85,27.44-2.56.65-5.68-2.73-6.69-4.79-.87-1.74-2.48-8.81-2.48-10.61v-12.39c-.46-.47-.82-1.03-.94-1.68-.1-.5-.21-1-.37-1.48-.03-.09-.06-.17-.09-.25-3.13,3.42-9.61,13.14-12.38,15.1-3.71,2.61-6.05.86-6.24-3.42-.32-7.18,3.78-13.87,6.25-20.32-3.25-.44-6.45.95-9.57-.08.25-1.67-.67-3.69-.63-5.1.16-4.59,7.69-15.56,10.88-19.08,1.46-1.61,8.93-7.64,13.06-11.3.49-2.5.91-5.02,1.23-7.55.01-.05.02-.1.03-.14-.76-7.18.91-16.2.86-23.17-.04-5.52-.66-11.09-1.62-16.66-.2-9.25-2.08-18.14-4.66-26.87-.23-1.5-.48-3-.76-4.5-1.11-5.99-2.45-11.94-3.84-17.87-1.1-4.64-1.87-9.35-3.15-13.96-1.06-3.85-2.49-7.69-4.72-11.01-3.45-10.05-8.13-20.08-13.27-29.09-4.38-7.68-10.59-13.54-18.55-16.87-11.55-7.33-23.08-15.14-37.05-16.56-1.04-.1-1.82.2-2.37.73-4.03-.02-8.08.4-12.05,1.04-5.08.82-10.1,2.06-15.03,3.55-4.77,1.44-9.58,3.07-14.19,4.96-2.43,1-4.74,2.16-6.79,3.83-2.03,1.66-3.74,3.68-5.58,5.53-.89.9.04,2.18,1.02,2.09,0,.13.01.28.05.44,4.67-.92,9.26-2.14,13.75-3.8,4.21-1.56,22.28-10.89,25.06-9.9,1.03.37,2.73,4.44,2.41,5.63-.14.52-5.91,7.16-6.85,8.21-1.4,1.57-4.51,3.69-5.48,5-.5.68-1.1.8-.34,1.77.63.81,11.19,4.45,13.25,5.35,30.19,13.24,52.23,27.01,62.52,60.73,8.89,29.12,17.89,65.2,11.19,95.21-4.59,20.54-13.98,41.53-27.9,57.52-1.82,3.01-3.79,5.92-5.92,8.72-1.52,2.65-3.43,5.08-5.57,7.3.1.1.2.2.3.31,0,.32-1.93,1.71-3.89,3.08-.51.44-1.03.87-1.55,1.3-.27.21-.57.32-.85.35-.77.52-1.37.94-1.62,1.13-1.33,1-2.46,2.91-3.81,3.76-4.19,2.61-17.19,5.26-22.67,6.94-6.63,2.03-10.2,3.82-17.6,5.13-2.33.41-4.67.79-7.02,1.15v.35c-1.19.07-2.37.16-3.55.24-1.37.09-2.83-.09-4.16.28-.05.59-.63,1.11-.72,1.65-.66,4.28-.97,8.57-1.06,12.85.14,5.09.29,10.17.44,15.26.64,9.17,1.72,18.34,2.17,27.5.14,2.88-.57,9.61.09,11.79.21.7,3.27,3.94,4.05,4.56,6.65,5.3,13.78,6.91,19.63,13.95,1.88,2.26,3.39,2.7,3.27,6.35-2.17.07-3.12,1.76-5.43,1.14-.27-.08-3.9-2.16-4.46-2.51-1.43-.88-2.89-1.98-4.41-2.96-2.07-1.32-4.23-2.99-6.39-4.25-.57.38-.62.78-.65,1.42-.09,1.99.74,5.63.88,7.8.05.85-.44,1.61-.39,2.39.34,5.14,3.85,15.62-4.78,15.83-7.3.18-6.21-11.95-6.3-16.62-.02-.87-.42-1.65-.43-2.44-.01-.68,1.15-5.15-.21-5.11-.3.01-3.93,3.56-4.46,4.13-2.43,2.61-9.17,12.91-13.38,9.62-2.45-1.91.84-7.28,2.16-9.38,4.08-6.48,10.32-12.89,14.53-19.3.05-.53.11-1.07.16-1.6.01-.15.04-.29.06-.43-.3-.43-.51-.96-.53-1.62-.67-22.94-1.34-45.87-2.01-68.81-13.15,1.46-26.43,2.28-39.64,2.71-10.29.34-19.34.21-28.36-.35v.28c-.47-.05-.94-.1-1.41-.16-.81-1.52-2.52-3.28-2.71-4.9-1.57-.19-4.08,1.25-4.38,2.86-.04.21-.03.67,0,1.27-6.42-.58-13.02-1.37-20.23-2.36-12.04-1.66-26.33-2.15-37.2-8.25-29.83-16.77-47.16-33.58-60.75-65.95-12.41-29.55-7.4-73.68,2.21-103.81,5.96-18.67,21.98-46.96,38.98-57.43,5.02-3.1,29.82-14.95,34.72-15.6.93-.12,1.44.31,2.23.56,1.16-1.24-9-8.35-6.53-13.75,2.43-5.33,6.85,2.22,8.85,3.87,2.4,1.99,7.63,5.96,10.61,6.31,3.44.41,10.74-5.05,15.31-4.7-.29-6.06-7.19-6.49-10.68-8.94-1.77-1.23-4.08-4.8-6.36-6.18-24.47-14.78-64.26-3.5-82.83,16.83-4.51,4.95-15.36,19.77-16.96,26.47-1.18,1.96-1.99,4.16-2.64,6.33-.58,1.92-1.06,3.95-1.28,5.98-.04.05-.07.08-.11.14-1.67,6.68-4.07,13.11-5.66,19.82-1.1,4.62-3.26,13.8-4.72,21.65-2.36,6.19-3.27,12.92-4.01,19.54-.6,5.37-1.37,10.66-2.38,15.97-1.08,5.69-2.24,11.38-3.08,17.11-.37,2.53-.77,5.09-.97,7.63-.17,2.22-.13,4.58.98,6.58.11.2.26.34.42.44.88,3.54,4.13,5,6.66,8.18,2.27,2.85,4.61,6.01,6.8,8.87,3.24,4.26,5.73,7.48,3.94,13.35-.8,2.6-4.04,3.06-3.83,4.44.03.23,2.1,1.35,2.48,1.98,3.07,5.07,4.08,14.01-2.51,16.59-5.56,2.18-9.09-5.53-11.52-9.06-.41-.6.12-1.28-1.53-.89.39,3.7.31,8.02-.31,11.73-.52,3.13-2.37,12.35-5.72,12.94-4.28.75-9.12-9.08-9.12-12.63v-13.43c-4,5.77-20.4,12.5-21.35,1.65-.42-4.81,9.99-15.27,13.09-19.2-5.31,1.67-8.73,1.17-10.62-.52-.18-.12-.32-.27-.44-.45-3.41-3.93-.27-12.73,6.21-17.66,4.13-3.14,9.66-3.93,13.77-7.05,1.35-5.17,1.88-10.88,3.09-16.02,3.91-16.5,7.93-32.99,11.75-49.54,4.01-17.36,5.79-31.75,13.1-48.19,7.4-16.63,11.49-32.79,26.95-43.98,8.83-6.39,27.1-14.53,41.69-18.19,4.74-.07,9.48-.08,14.22-.08.36,0,.62-.12.82-.31,1.88.14,4.44-.27,6.41-.03,9.45,1.11,21.05,8.77,28.67,14.37-1.75-7.64-2.6-14.23.88-21.51,5.4-11.29,8.02,3.66,10.23,7.99,2.99,5.9,12.65,14.52,19.01,16.11.66.16,8.34.93,8.77.85,1.73-.34-.15-3.12-.43-4.37-1.85-8.28-4.65-23.53-3.17-31.62,1.21-6.65,10.94-8.74,16.59-7.42.96.22,1.12,2.94,1.18,3.78.72,10.5-.61,21.81-.03,32.4.54,2.93,2.99,1.54,4.85.71,7.72-3.42,19.83-14.86,22.36-23.08.38-1.25.8-6.62,1.06-6.86,2.26-2.07,7.84,4.71,8.71,6.71,2.39,5.56.52,12.69-2.4,17.85-3.46,6.09-10.42,7.37-14.61,12.58,4.83-1.27,8.76-6.08,12.85-8.83,8.24-5.54,19.5-11.93,28.78-15.29,5.15-1.87,10.59-3.04,16.16-3.58.37-.07.73-.16,1.1-.23.59-.1,1.13-.09,1.63.02,23.69-1.43,49.35,8.14,66.19,23.43,17.89,16.24,30.87,48.96,38.14,79.81.52.62.87,1.43.9,2.45.01.62.05,1.23.08,1.85,3.32,15.13,5.24,29.61,5.66,41.2.45,12.64,1.23,31.96.01,44.14-.27,2.64-1.22,3.74-2,6.06l17.15,15.91c3.81,4.6,5.62,10.71-.13,14.13.55.34,1.04.79,1.43,1.34.88,1.27,1.61,2.6,2.2,3.98ZM364.99,241.09c12.16-31.98,14.27-51.23,7.25-85.08-5.63-27.12-14.03-57.51-36.46-75.44-8.79-7.02-23.85-13.9-34.38-18.3-1.18-.5-4.78-1.86-8.34-3.07,0,.03,0,.07-.01.11-1.29-.35-2.56-.81-3.87-1.12-.87-.38-1.74-.73-2.65-1.03-.21-.07-.44-.06-.65,0,.02-.03.03-.06.05-.09-.47-.09-.81-.12-.99-.07-1.13.28-3.17,1.58-5.18,2.84-.28.24-.59.43-.93.58-1.21.76-2.36,1.43-3.21,1.78-10.18,4.11-21.42,3.62-30.88-1.11-8.38-1.6-16.26-5.37-23.03-10.95-.08-.07-.13-.14-.2-.21-1.56.13-3.61.87-4.94,1.42-3.8,1.57-8.44,6.15-11.86,8.26-10.96,6.75-24.39,12.33-37.53,10.86-9.29-1.03-13.28-6.26-23.42-3.79-4.46,1.1-17.4,7.86-22.12,10.25-37.66,19.05-51.72,70.64-53.48,109.72-1.22,27.07,1.62,42.68,14.37,66.25,7.08,13.1,23.97,33.28,39.03,41.41.49.65,1.23,1.17,1.86,1.6,1.28.85,2.55,1.73,3.82,2.58,1.35.91,2.8,1.67,4.32,2.27.36.14.75.28,1.14.39.08.04.17.05.25.07-.01.03-.03.07-.03.11,5.92,1.12,10.83,3.83,16.95,4.74,20.9,3.13,43.73,5.87,64.62,5.56,32.35-.47,65.56-2.53,96.23-12.56,3.13-1.02,7.84-2.25,10.95-3.48,10.33-7.43,19.04-17.01,25.52-27.97.44-.75,1.12-1.01,1.79-.95,6.78-7.97,12.75-17.01,16.01-25.58Z"/>
      <path class="cls-2" d="M372.24,156.01c7.02,33.85,4.91,53.1-7.25,85.08-3.26,8.57-9.23,17.61-16.01,25.58-.67-.06-1.35.2-1.79.95-6.48,10.96-15.19,20.54-25.52,27.97-3.11,1.23-7.82,2.46-10.95,3.48-30.67,10.03-63.88,12.09-96.23,12.56-20.89.31-43.72-2.43-64.62-5.56-6.12-.91-11.03-3.62-16.95-4.74,0-.04.02-.08.03-.11-.08-.02-.17-.03-.25-.07-.39-.11-.78-.25-1.14-.39-1.52-.6-2.97-1.36-4.32-2.27-1.27-.85-2.54-1.73-3.82-2.58-.63-.43-1.37-.95-1.86-1.6-15.06-8.13-31.95-28.31-39.03-41.41-12.75-23.57-15.59-39.18-14.37-66.25,1.76-39.08,15.82-90.67,53.48-109.72,4.72-2.39,17.66-9.15,22.12-10.25,10.14-2.47,14.13,2.76,23.42,3.79,13.14,1.47,26.57-4.11,37.53-10.86,3.42-2.11,8.06-6.69,11.86-8.26,1.33-.55,3.38-1.29,4.94-1.42.07.07.12.14.2.21,6.77,5.58,14.65,9.35,23.03,10.95,9.46,4.73,20.7,5.22,30.88,1.11.85-.35,2-1.02,3.21-1.78.34-.15.65-.34.93-.58,2.01-1.26,4.05-2.56,5.18-2.84.18-.05.52-.02.99.07-.02.03-.03.06-.05.09.21-.06.44-.07.65,0,.91.3,1.78.65,2.65,1.03,1.31.31,2.58.77,3.87,1.12.01-.04.01-.08.01-.11,3.56,1.21,7.16,2.57,8.34,3.07,10.53,4.4,25.59,11.28,34.38,18.3,22.43,17.93,30.83,48.32,36.46,75.44ZM354.84,154.72c2.49-7.76-1.46-27.07-4.23-35.01-2.36-6.76-6.57-17.63-12.82-21.43-8.43-5.13-10.3,1.38-13.2,7.36-.14.3-.34.56-.55.8.07.92.16,1.84.41,2.72.29.98,1.02,2.04,1.57,3,.04.07.05.15.07.22,4.27,4.7,9.38,18.01,10.52,22.77,1.29,5.43,2.23,22.55,6.63,25.09,4.84,2.8,10.07-.78,11.6-5.52ZM350.64,187.6c10.4-2.92,6.19-17.61-4.47-17.26-.88.03-1.54-.03-2.39.38-5.09,2.43-6.85,20.72,6.86,16.88ZM282.06,217.73c11.76-17.86,10.18-47.56-1.23-65.35-2.63-4.11-9.14-10.62-14.03-11.46-.33-.06-1.11-.04-2.01.01-.18.09-.37.16-.56.16h-2.3s-.06-.02-.09-.02c-2.99,1.02-5.77,2.53-8.47,4.18-1.24.75-2.41,1.59-3.58,2.45-.03.04-.07.08-.1.13-.14.08-.29.16-.43.26-9.56,6.73-11.84,17.23-12.39,28.23-.97,19.42-.73,51.53,25.25,53.31,9.58.65,15.02-4.42,19.94-11.9ZM273.39,127.1c.28-.4-.47-2.04-.9-2.53-2.3-2.65-9.81-3.34-13.16-2.9-1.33.17-9.61,3.65-9.93,4.17-.45.73-.21,3.18.54,3.73,1.51,1.11,8.1-3.04,10.74-3.18,2.36-.12,11.54,2.42,12.71.71ZM243.09,240.05c-1.18.28-2.76-.7-3.71-.54-3.39.58-2.5,20.43-11.38,15.28-4.48-2.61-6.96-15.55-7.73-16.02-1.54-.95-5.11-.24-4.67,2.32,2.6,5.89,5.33,16.84,12.37,19.24,10.65,3.61,13.32-13.19,15.12-20.28ZM231.09,229.02c1.45-2.93-3.93-4.54-5.11-2.65-2.14,3.39,3.48,5.93,5.11,2.65ZM210.05,216.98c7.23-11.24,7.12-30.41,4.65-43.23-1.7-8.83-5.37-11.44-11.99-16.58-.54-.42-.78-1.53-1.63-2.14-5.06-3.68-10.9-3.77-16.79-3.79h-.02s-.05-.06-.08-.09c-1.68.03-3.36.1-5.04.23-2.11.4-4.14,1.21-5.95,2.38-1.27.34-2.48.89-3.44,1.59-3.04,2.22-10.6,15.5-11.2,19.1-3.7,22.19,4.03,52.2,29.83,55.91,6.8.98,18.08-7.81,21.66-13.38ZM186.93,136.04c2.14-.13,4.36-2.83,3.14-4.1-.09-.1-1.97,0-2.78-.31-2.58-.94-5.71-3.13-8.5-3.08-2.68.04-18.19,3.13-12.54,7.57,2.34,1.84,9.42-2.84,13.17-2.73,2.06.06,4.71,2.82,7.51,2.65Z"/>
      <path d="M350.61,119.71c2.77,7.94,6.72,27.25,4.23,35.01-1.53,4.74-6.76,8.32-11.6,5.52-4.4-2.54-5.34-19.66-6.63-25.09-1.14-4.76-6.25-18.07-10.52-22.77-.02-.07-.03-.15-.07-.22-.55-.96-1.28-2.02-1.57-3-.25-.88-.34-1.8-.41-2.72.21-.24.41-.5.55-.8,2.9-5.98,4.77-12.49,13.2-7.36,6.25,3.8,10.46,14.67,12.82,21.43ZM349.63,155.49c.36-.45,1.03-10.29.97-11.57-.41-8.72-6.74-33.66-12.88-39.68-.68-.67-4.22-3.29-4.97-2.99-.29,1.4-3.27,4.08-3.47,4.73-1.11,3.73,5.44,11.1,7.26,15.02,3.92,8.48,5.64,18.71,7.29,27.67.5,2.74,1.66,5.21,1.35,8.42.28.21,4.04-1.09,4.45-1.6Z"/>
      <path d="M346.17,170.34c10.66-.35,14.87,14.34,4.47,17.26-13.71,3.84-11.95-14.45-6.86-16.88.85-.41,1.51-.35,2.39-.38ZM345.35,181.32c3.1,7.87,9.57-4.15,4.7-5.48-.13-.04-.23-.04-.33-.03-.04-.14-.1-.28-.17-.41-.28-.51-.87-.84-1.44-.66-.2-.09-.42-.12-.65-.07-1.4.31-2.53,1.36-3.05,2.69-.25.63-.35,1.37-.21,2.04.16.78.57,1.41,1.15,1.92Z"/>
      <path class="cls-4" d="M350.6,143.92c.06,1.28-.61,11.12-.97,11.57-.41.51-4.17,1.81-4.45,1.6.31-3.21-.85-5.68-1.35-8.42-1.65-8.96-3.37-19.19-7.29-27.67-1.82-3.92-8.37-11.29-7.26-15.02.2-.65,3.18-3.33,3.47-4.73.75-.3,4.29,2.32,4.97,2.99,6.14,6.02,12.47,30.96,12.88,39.68Z"/>
      <path class="cls-4" d="M350.05,175.84c4.87,1.33-1.6,13.35-4.7,5.48-.58-.51-.99-1.14-1.15-1.92-.14-.67-.04-1.41.21-2.04.52-1.33,1.65-2.38,3.05-2.69.23-.05.45-.02.65.07.57-.18,1.16.15,1.44.66.07.13.13.27.17.41.1,0,.2,0,.33.03Z"/>
      <path class="cls-1" d="M268.04,145.21c14.67,4.95,18.02,36.11,17.05,49.03-.89,11.81-8.71,31.78-23.05,30.65-19.77-1.56-20.82-28.84-20.36-43.75.37-11.61,1-18.06,6.25-24.32.56-1,1.43-1.92,2.07-2.62,1.76-1.91,3.73-3.66,5.87-5.15,2.2-1.81,4.72-3.26,7.52-3.89.01-.01.02,0,.04,0,.22-.1.43-.21.66-.31,1.37.01,2.98.03,3.95.36ZM266.13,204.89c4.1-5.14,5.96-19.76,5.83-26.36-.05-2.7-1.45-6.8-3.58-8.52-2.25-1.8-7.47-.55-9.23,1.38-3.17,3.47-3.75,20.25-2.82,24.77.42,2.02,5.6,10.16,7.77,10.17,1.01,0,1.49-.75,2.03-1.44Z"/>
      <path d="M280.83,152.38c11.41,17.79,12.99,47.49,1.23,65.35-4.92,7.48-10.36,12.55-19.94,11.9-25.98-1.78-26.22-33.89-25.25-53.31.55-11,2.83-21.5,12.39-28.23.14-.1.29-.18.43-.26.03-.05.07-.09.1-.13,1.17-.86,2.34-1.7,3.58-2.45,2.7-1.65,5.48-3.16,8.47-4.18.03,0,.06.02.09.02h2.3c.19,0,.38-.07.56-.16.9-.05,1.68-.07,2.01-.01,4.89.84,11.4,7.35,14.03,11.46ZM285.09,194.24c.97-12.92-2.38-44.08-17.05-49.03-.97-.33-2.58-.35-3.95-.36-.23.1-.44.21-.66.31-.02,0-.03-.01-.04,0-2.8.63-5.32,2.08-7.52,3.89-2.14,1.49-4.11,3.24-5.87,5.15-.64.7-1.51,1.62-2.07,2.62-5.25,6.26-5.88,12.71-6.25,24.32-.46,14.91.59,42.19,20.36,43.75,14.34,1.13,22.16-18.84,23.05-30.65Z"/>
      <path d="M272.49,124.57c.43.49,1.18,2.13.9,2.53-1.17,1.71-10.35-.83-12.71-.71-2.64.14-9.23,4.29-10.74,3.18-.75-.55-.99-3-.54-3.73.32-.52,8.6-4,9.93-4.17,3.35-.44,10.86.25,13.16,2.9Z"/>
      <path d="M271.96,178.53c.13,6.6-1.73,21.22-5.83,26.36-.54.69-1.02,1.44-2.03,1.44-2.17-.01-7.35-8.15-7.77-10.17-.93-4.52-.35-21.3,2.82-24.77,1.76-1.93,6.98-3.18,9.23-1.38,2.13,1.72,3.53,5.82,3.58,8.52Z"/>
      <path d="M239.38,239.51c.95-.16,2.53.82,3.71.54-1.8,7.09-4.47,23.89-15.12,20.28-7.04-2.4-9.77-13.35-12.37-19.24-.44-2.56,3.13-3.27,4.67-2.32.77.47,3.25,13.41,7.73,16.02,8.88,5.15,7.99-14.7,11.38-15.28Z"/>
      <path d="M225.98,226.37c1.18-1.89,6.56-.28,5.11,2.65-1.63,3.28-7.25.74-5.11-2.65Z"/>
      <path class="cls-3" d="M218.56,346.67c.36,3.25-2.99,7.03-6.36,6.34-3.36-1.84-6.88-2.39-10.26-4.32-2.4-1.36-4.31-3.37-6.53-4.94-3.87,6.44-6.67,13.3-9.29,20.32-2.93,2.29-7.23,3.72-9.7-.02-3-4.54,1.6-11.52,2.73-16.29-4.17,1.83-8.69,2.85-13.26,2.99-.83.45-1.81.76-3.17.51-.38-.07-4.69-3.71-5.11-4.19-3.09-3.55,0-3.61,2.43-5.54,5.93-4.7,13.45-10.25,20.98-12.16,1.44-.37,7.29-.8,8-1.28,1.31-.89-.33-6.07-.47-7.54-.08-.92-.37-3.65-.45-5.33,1.08.1,2.16.19,3.24.28,0,.05,0,.11-.01.17,1.29.04,2.57.18,3.86.32.2.36.35.71.41,1.05.26,1.45-.3,2.65-.26,3.88.05,1.28.18,6.28.49,6.93.78,1.6,8.62,3.63,10.69,4.77,5.65,3.09,11.29,7.17,12.04,14.05Z"/>
      <path d="M214.7,173.75c2.47,12.82,2.58,31.99-4.65,43.23-3.58,5.57-14.86,14.36-21.66,13.38-25.8-3.71-33.53-33.72-29.83-55.91.6-3.6,8.16-16.88,11.2-19.1.96-.7,2.17-1.25,3.44-1.59,1.81-1.17,3.84-1.98,5.95-2.38,1.68-.13,3.36-.2,5.04-.23.03.03.06.06.08.09h.02c5.89.02,11.73.11,16.79,3.79.85.61,1.09,1.72,1.63,2.14,6.62,5.14,10.29,7.75,11.99,16.58ZM211.11,202.9c1.54-7.6.84-25.85-2.31-32.88-2.35-5.25-4.93-5.76-8.78-9.13-1.25-1.11-1.85-2.9-3.09-3.82-.37-.27-6.59-1.74-7.21-1.78-1.1-.08-2.25.16-3.41.41-3.98.27-7.9,1.04-11.77,2.05-.32.09-.54.26-.68.48-1.22.49-2.38,1.36-3.77,2.96-14.45,16.61-8.15,58.42,16.49,64.1,11.93,2.75,22.42-12,24.53-22.39Z"/>
      <path class="cls-1" d="M208.8,170.02c3.15,7.03,3.85,25.28,2.31,32.88-2.11,10.39-12.6,25.14-24.53,22.39-24.64-5.68-30.94-47.49-16.49-64.1,1.39-1.6,2.55-2.47,3.77-2.96.14-.22.36-.39.68-.48,3.87-1.01,7.79-1.78,11.77-2.05,1.16-.25,2.31-.49,3.41-.41.62.04,6.84,1.51,7.21,1.78,1.24.92,1.84,2.71,3.09,3.82,3.85,3.37,6.43,3.88,8.78,9.13ZM185.6,206.3c9.64,9.04,10.47-7.77,10-14.14-.45-6.19-2.46-16.44-7.11-20.77-5.29-4.9-8.03,5.34-8.57,9.27-.87,6.32.86,21.12,5.68,25.64Z"/>
      <path d="M195.6,192.16c.47,6.37-.36,23.18-10,14.14-4.82-4.52-6.55-19.32-5.68-25.64.54-3.93,3.28-14.17,8.57-9.27,4.65,4.33,6.66,14.58,7.11,20.77Z"/>
      <path class="cls-3" d="M192.48,311.09c.19,1.62,1.9,3.38,2.71,4.9-1.29-.14-2.57-.28-3.86-.32.01-.06.01-.12.01-.17-1.08-.09-2.16-.18-3.24-.28-.03-.6-.04-1.06,0-1.27.3-1.61,2.81-3.05,4.38-2.86Z"/>
      <path d="M190.07,131.94c1.22,1.27-1,3.97-3.14,4.1-2.8.17-5.45-2.59-7.51-2.65-3.75-.11-10.83,4.57-13.17,2.73-5.65-4.44,9.86-7.53,12.54-7.57,2.79-.05,5.92,2.14,8.5,3.08.81.3,2.69.21,2.78.31Z"/>
    </g>
  </g>
</svg>