<?xml version="1.0" encoding="UTF-8"?>
<svg id="Layer_2" data-name="Layer 2" xmlns="http://www.w3.org/2000/svg" viewBox="0 0 436.46 425.07">
  <defs>
    <style>
      .cls-1 {
        fill: #fff;
      }

      .cls-2 {
        fill: #dc000c;
      }

      .cls-3 {
        fill: #003002;
      }

      .cls-4 {
        fill: #ffc500;
      }
    </style>
  </defs>
  <g id="v1">
    <g>
      <path class="cls-3" d="M423.36,228c3.1,3.93,13.51,14.39,13.09,19.2-.95,10.85-17.35,4.12-21.35-1.65v13.43c0,3.55-4.84,13.38-9.12,12.63-3.35-.59-5.2-9.81-5.72-12.94-.62-3.71-.71-8.03-.31-11.73-1.65-.39-1.12.29-1.54.89-2.42,3.53-5.95,11.24-11.51,9.06-6.59-2.58-5.58-11.52-2.51-16.59.38-.63,2.45-1.75,2.48-1.98.21-1.38-3.04-1.84-3.83-4.44-1.79-5.87.7-9.09,3.94-13.35,2.19-2.86,4.53-6.02,6.8-8.87,2.53-3.18,5.78-4.64,6.66-8.18.16-.1.31-.24.42-.44,1.11-2,1.15-4.36.98-6.58-.2-2.54-.6-5.1-.97-7.63-.84-5.73-2-11.42-3.08-17.11-1.01-5.31-1.78-10.6-2.38-15.97-.74-6.62-1.65-13.35-4.01-19.54-1.46-7.85-3.62-17.03-4.72-21.65-1.59-6.71-3.99-13.14-5.66-19.82-.04-.06-.07-.09-.11-.14-.22-2.03-.7-4.06-1.28-5.98-.65-2.17-1.46-4.37-2.64-6.33-1.6-6.7-12.45-21.52-16.96-26.47-18.57-20.33-58.36-31.61-82.83-16.83-2.28,1.38-4.59,4.95-6.36,6.18-3.49,2.45-10.39,2.88-10.68,8.94,4.57-.35,11.86,5.11,15.31,4.7,2.98-.35,8.21-4.32,10.61-6.31,2-1.65,6.42-9.2,8.85-3.87,2.47,5.4-7.69,12.51-6.53,13.75.79-.25,1.3-.68,2.23-.56,4.9.65,29.7,12.5,34.72,15.6,17,10.47,33.02,38.76,38.97,57.43,9.62,30.13,14.63,74.26,2.22,103.81-13.59,32.37-30.92,49.18-60.76,65.95-10.86,6.1-25.15,6.59-37.19,8.25-7.21.99-13.81,1.78-20.23,2.36.03-.59.03-1.06-.01-1.27-.29-1.61-2.8-3.05-4.37-2.86-.19,1.62-1.9,3.38-2.71,4.9-.47.06-.94.11-1.41.16v-.28c-9.02.56-18.07.69-28.36.35-13.88-.45-27.83-1.33-41.63-2.93.15,1.27-.21,2.39-.08,3.85,1.38,14.43-.12,29.34-1.2,43.81-.53,7-3.08,18.85.89,24.93,4.2,6.44,10.49,12.88,14.59,19.39,1.32,2.1,4.61,7.47,2.16,9.38-4.21,3.29-10.95-7.01-13.38-9.62-.53-.57-4.16-4.12-4.47-4.13-1.35-.04-.19,4.43-.2,5.11-.01.79-.41,1.57-.43,2.44-.09,4.67,1,16.8-6.3,16.62-8.63-.21-5.12-10.69-4.78-15.83.05-.78-.44-1.54-.39-2.39.14-2.17.97-5.81.88-7.8-.04-.64-.08-1.04-.65-1.42-2.17,1.26-4.32,2.93-6.39,4.25-1.52.98-2.98,2.08-4.41,2.96-.56.35-4.19,2.43-4.46,2.51-2.31.62-3.26-1.07-5.43-1.14-.12-3.65,1.39-4.09,3.27-6.35,5.46-6.57,12.03-8.41,18.29-12.94.1-3.48.49-6.95,1.2-10.35.11-1.18.21-2.36.31-3.54,1.73-19.93,3.47-39.86,5.2-59.79-.18-.3-.37-.61-.4-.94-1.33-.37-2.79-.19-4.16-.28-1.18-.08-2.37-.17-3.55-.24v-.35c-2.35-.36-4.69-.74-7.02-1.15-7.4-1.31-10.97-3.1-17.6-5.13-5.48-1.68-18.48-4.33-22.67-6.94-1.35-.85-2.48-2.76-3.81-3.76-.25-.19-.85-.61-1.62-1.13-.29-.03-.58-.14-.85-.35-.52-.43-1.04-.86-1.55-1.3-1.96-1.37-3.88-2.76-3.89-3.08.1-.11.2-.21.3-.31-2.14-2.22-4.05-4.65-5.57-7.3-2.13-2.8-4.1-5.71-5.92-8.72-13.92-15.99-23.31-36.98-27.9-57.52-6.7-30.01,2.3-66.09,11.19-95.21,10.29-33.72,32.33-47.49,62.52-60.73,2.06-.9,12.62-4.54,13.25-5.35.76-.97.16-1.09-.34-1.77-.97-1.31-4.08-3.43-5.48-5-.94-1.05-6.71-7.69-6.85-8.21-.32-1.19,1.38-5.26,2.41-5.63,2.78-.99,20.85,8.34,25.06,9.9,4.49,1.66,9.08,2.88,13.75,3.8.04-.16.05-.31.05-.44.98.09,1.9-1.19,1.02-2.09-1.85-1.85-3.55-3.87-5.58-5.53-2.05-1.67-4.36-2.83-6.79-3.83-4.61-1.89-9.42-3.52-14.19-4.96-4.93-1.49-9.95-2.73-15.04-3.55-3.96-.64-8.01-1.06-12.04-1.04-.55-.53-1.34-.83-2.38-.73-13.96,1.42-25.49,9.23-37.04,16.56-7.96,3.33-14.17,9.19-18.55,16.87-5.14,9.01-9.82,19.04-13.27,29.09-2.23,3.32-3.66,7.16-4.73,11.01-1.27,4.61-2.04,9.32-3.14,13.96-1.39,5.93-2.73,11.88-3.84,17.87-.28,1.5-.53,3-.76,4.5-2.58,8.73-4.46,17.62-4.66,26.87-.96,5.57-1.58,11.14-1.62,16.66-.06,6.97,1.62,15.99.86,23.17,0,.04.02.09.02.14.33,2.53.75,5.05,1.24,7.55,4.13,3.66,11.6,9.69,13.06,11.3,3.19,3.52,10.72,14.49,10.88,19.08.04,1.41-.88,3.43-.63,5.1-3.12,1.03-6.32-.36-9.57.08,2.47,6.45,6.57,13.14,6.25,20.32-.19,4.28-2.53,6.03-6.24,3.42-2.77-1.96-9.25-11.68-12.38-15.1-.03.08-.07.16-.09.25-.16.48-.27.98-.37,1.48-.12.65-.48,1.21-.94,1.68v12.39c0,1.8-1.61,8.87-2.48,10.61-1.01,2.06-4.13,5.44-6.69,4.79-5.81-1.47-4.37-22.88-1.85-27.44l-8.34,6.46c-17.24,8.69-15.38-3.03-8.97-12.18.59-1.38,1.32-2.71,2.2-3.98.39-.55.88-1,1.43-1.34-5.75-3.42-3.94-9.53-.13-14.13l17.14-15.91c-.77-2.32-1.72-3.42-1.99-6.06-1.22-12.18-.44-31.5.01-44.14.42-11.59,2.34-26.07,5.66-41.2.03-.62.07-1.23.08-1.85.03-1.02.38-1.83.9-2.45,7.27-30.85,20.25-63.57,38.14-79.81,16.84-15.29,42.5-24.86,66.19-23.43.5-.11,1.04-.12,1.63-.02.37.07.73.16,1.1.23,5.57.54,11.01,1.71,16.16,3.58,9.28,3.36,20.54,9.75,28.78,15.29,4.09,2.75,8.02,7.56,12.85,8.83-4.19-5.21-11.15-6.49-14.61-12.58-2.92-5.16-4.79-12.29-2.4-17.85.87-2,6.45-8.78,8.71-6.71.26.24.68,5.61,1.06,6.86,2.53,8.22,14.64,19.66,22.36,23.08,1.86.83,4.31,2.22,4.85-.71.58-10.59-.75-21.9-.03-32.4.06-.84.22-3.56,1.18-3.78,5.65-1.32,15.38.77,16.59,7.42,1.48,8.09-1.32,23.34-3.17,31.62-.28,1.25-2.16,4.03-.43,4.37.43.08,8.11-.69,8.77-.85,6.36-1.59,16.01-10.21,19.01-16.11,2.2-4.33,4.83-19.28,10.23-7.99,3.48,7.28,2.63,13.87.88,21.51,7.62-5.6,19.22-13.26,28.67-14.37,1.96-.24,4.52.17,6.41.03.19.19.46.31.82.31,4.74,0,9.48.01,14.22.08,14.59,3.66,32.86,11.8,41.69,18.19,15.46,11.19,19.55,27.35,26.95,43.98,7.31,16.44,9.09,30.83,13.1,48.19,3.82,16.55,7.84,33.04,11.75,49.54,1.21,5.14,1.74,10.85,3.09,16.02,4.11,3.12,9.64,3.91,13.77,7.05,6.48,4.93,9.62,13.73,6.21,17.66-.12.18-.27.33-.44.45-1.89,1.69-5.31,2.19-10.62.52ZM353.93,252.9c12.75-23.57,15.59-39.18,14.37-66.25-1.76-39.08-15.82-90.67-53.48-109.72-4.73-2.39-17.66-9.15-22.12-10.25-10.14-2.47-14.13,2.76-23.42,3.79-13.14,1.47-26.57-4.11-37.53-10.86-3.42-2.11-8.06-6.69-11.86-8.26-1.33-.55-3.38-1.29-4.94-1.42-.07.07-.12.14-.2.21-6.77,5.58-14.65,9.35-23.03,10.95-9.46,4.73-20.7,5.22-30.88,1.11-.85-.35-2-1.02-3.22-1.78-.33-.15-.64-.34-.92-.58-2.01-1.26-4.06-2.56-5.18-2.84-.18-.05-.52-.02-.99.07.02.03.03.06.05.09-.21-.06-.44-.07-.65,0-.91.3-1.79.65-2.65,1.03-1.31.31-2.58.77-3.87,1.12,0-.04-.02-.08,0-.11-3.56,1.21-7.16,2.57-8.34,3.07-10.53,4.4-25.59,11.28-34.38,18.3-22.43,17.93-30.83,48.32-36.46,75.44-7.02,33.85-4.91,53.1,7.25,85.08,3.52,9.25,10.19,19.05,17.63,27.46.29.62.59,1.24.9,1.85,1.86,3.69,4.35,7.34,7.83,9.68.93,1.09,1.94,2.14,2.97,3.13.43.96.99,1.87,1.61,2.73-.18-.06-.35-.14-.53-.21l.87.96c.05-.03.1-.05.14-.09.69.89,1.43,1.73,2.18,2.51,2.43,2.54,5.23,4.77,8.16,6.71.58.37,1.13.16,1.47-.27,3.11,1.25,7.88,2.49,11.04,3.52,30.67,10.03,63.88,12.09,96.23,12.56,20.89.31,43.72-2.43,64.62-5.56,6.12-.91,11.03-3.62,16.95-4.74,0-.04-.02-.08-.04-.11.09-.02.18-.03.26-.07.39-.11.78-.25,1.14-.39,1.52-.6,2.97-1.36,4.32-2.27,1.27-.85,2.54-1.73,3.82-2.58.63-.43,1.37-.95,1.86-1.6,15.06-8.13,31.95-28.31,39.03-41.41Z"/>
      <path class="cls-2" d="M368.3,186.65c1.22,27.07-1.62,42.68-14.37,66.25-7.08,13.1-23.97,33.28-39.03,41.41-.49.65-1.23,1.17-1.86,1.6-1.28.85-2.55,1.73-3.82,2.58-1.35.91-2.8,1.67-4.32,2.27-.36.14-.75.28-1.14.39-.08.04-.17.05-.26.07.02.03.04.07.04.11-5.92,1.12-10.83,3.83-16.95,4.74-20.9,3.13-43.73,5.87-64.62,5.56-32.35-.47-65.56-2.53-96.23-12.56-3.16-1.03-7.93-2.27-11.04-3.52-.34.43-.89.64-1.47.27-2.93-1.94-5.73-4.17-8.16-6.71-.75-.78-1.49-1.62-2.18-2.51-.04.04-.09.06-.14.09l-.87-.96c.18.07.35.15.53.21-.62-.86-1.18-1.77-1.61-2.73-1.03-.99-2.04-2.04-2.97-3.13-3.48-2.34-5.97-5.99-7.83-9.68-.31-.61-.61-1.23-.9-1.85-7.44-8.41-14.11-18.21-17.63-27.46-12.16-31.98-14.27-51.23-7.25-85.08,5.63-27.12,14.03-57.51,36.46-75.44,8.79-7.02,23.85-13.9,34.38-18.3,1.18-.5,4.78-1.86,8.34-3.07-.01.03,0,.07,0,.11,1.29-.35,2.56-.81,3.87-1.12.86-.38,1.74-.73,2.65-1.03.21-.07.44-.06.65,0-.02-.03-.03-.06-.05-.09.47-.09.81-.12.99-.07,1.12.28,3.17,1.58,5.18,2.84.28.24.59.43.92.58,1.22.76,2.37,1.43,3.22,1.78,10.18,4.11,21.42,3.62,30.88-1.11,8.38-1.6,16.26-5.37,23.03-10.95.08-.07.13-.14.2-.21,1.56.13,3.61.87,4.94,1.42,3.8,1.57,8.44,6.15,11.86,8.26,10.96,6.75,24.39,12.33,37.53,10.86,9.29-1.03,13.28-6.26,23.42-3.79,4.46,1.1,17.39,7.86,22.12,10.25,37.66,19.05,51.72,70.64,53.48,109.72ZM343.84,157.72c2.49-7.76-1.46-27.07-4.23-35.01-2.36-6.76-6.57-17.63-12.82-21.43-8.43-5.13-10.3,1.38-13.2,7.36-.14.3-.34.56-.55.8.07.92.16,1.84.41,2.72.29.98,1.02,2.04,1.57,3,.04.07.05.15.07.22,4.27,4.7,9.38,18.01,10.52,22.77,1.29,5.43,2.23,22.55,6.63,25.09,4.84,2.8,10.07-.78,11.6-5.52ZM339.64,190.6c10.4-2.92,6.19-17.61-4.47-17.26-.88.03-1.54-.03-2.39.38-5.09,2.43-6.85,20.72,6.86,16.88ZM248.07,230.36c25.8-3.71,33.53-33.72,29.83-55.91-.6-3.6-8.16-16.88-11.2-19.1-.96-.7-2.17-1.25-3.44-1.59-1.81-1.17-3.84-1.98-5.95-2.38-1.68-.13-3.36-.2-5.04-.23l-.09.09h-.01c-5.89.02-11.73.11-16.79,3.79-.85.61-1.09,1.72-1.63,2.14-6.62,5.14-10.29,7.75-11.99,16.58-2.47,12.82-2.58,31.99,4.65,43.23,3.58,5.57,14.86,14.36,21.66,13.38ZM270.21,136.12c5.65-4.44-9.86-7.53-12.54-7.57-2.79-.05-5.92,2.14-8.5,3.08-.81.3-2.69.21-2.78.31-1.22,1.27,1,3.97,3.14,4.1,2.8.17,5.45-2.59,7.51-2.65,3.75-.11,10.83,4.57,13.17,2.73ZM220.86,241.09c.44-2.56-3.13-3.27-4.67-2.32-.77.47-3.25,13.41-7.73,16.02-8.88,5.15-7.99-14.7-11.38-15.28-.95-.16-2.53.82-3.71.54,1.8,7.09,4.47,23.89,15.11,20.28,7.05-2.4,9.78-13.35,12.38-19.24ZM205.37,229.02c1.63,3.28,7.25.74,5.11-2.65-1.18-1.89-6.56-.28-5.11,2.65ZM174.34,229.63c25.98-1.78,26.22-33.89,25.25-53.31-.55-11-2.84-21.5-12.39-28.23-.14-.1-.29-.18-.43-.26-.03-.05-.07-.09-.1-.13-1.17-.86-2.34-1.7-3.58-2.45-2.7-1.65-5.48-3.16-8.47-4.18-.03,0-.06.02-.09.02h-2.3c-.19,0-.38-.07-.56-.16-.9-.05-1.68-.07-2.01-.01-4.89.84-11.4,7.35-14.03,11.46-11.41,17.79-12.99,47.49-1.23,65.35,4.91,7.48,10.36,12.55,19.94,11.9ZM186.52,129.57c.74-.55.99-3,.54-3.73-.32-.52-8.61-4-9.93-4.17-3.35-.44-10.86.25-13.16,2.9-.43.49-1.18,2.13-.9,2.53,1.17,1.71,10.35-.83,12.71-.71,2.64.14,9.23,4.29,10.74,3.18Z"/>
      <path d="M339.61,122.71c2.77,7.94,6.72,27.25,4.23,35.01-1.53,4.74-6.76,8.32-11.6,5.52-4.4-2.54-5.34-19.66-6.63-25.09-1.14-4.76-6.25-18.07-10.52-22.77-.02-.07-.03-.15-.07-.22-.55-.96-1.28-2.02-1.57-3-.25-.88-.34-1.8-.41-2.72.21-.24.41-.5.55-.8,2.9-5.98,4.77-12.49,13.2-7.36,6.25,3.8,10.46,14.67,12.82,21.43ZM338.63,158.49c.36-.45,1.03-10.29.97-11.57-.41-8.72-6.74-33.66-12.88-39.68-.68-.67-4.22-3.29-4.97-2.99-.29,1.4-3.27,4.08-3.47,4.73-1.11,3.73,5.44,11.1,7.26,15.02,3.92,8.48,5.64,18.71,7.29,27.67.5,2.74,1.66,5.21,1.35,8.42.28.21,4.04-1.09,4.45-1.6Z"/>
      <path d="M335.17,173.34c10.66-.35,14.87,14.34,4.47,17.26-13.71,3.84-11.95-14.45-6.86-16.88.85-.41,1.51-.35,2.39-.38ZM334.35,184.32c3.1,7.87,9.57-4.15,4.7-5.48-.13-.04-.23-.04-.33-.03-.04-.14-.1-.28-.17-.41-.28-.51-.87-.84-1.44-.66-.2-.09-.42-.12-.65-.07-1.4.31-2.53,1.36-3.05,2.69-.25.63-.35,1.37-.21,2.04.16.78.57,1.41,1.15,1.92Z"/>
      <path class="cls-4" d="M339.6,146.92c.06,1.28-.61,11.12-.97,11.57-.41.51-4.17,1.81-4.45,1.6.31-3.21-.85-5.68-1.35-8.42-1.65-8.96-3.37-19.19-7.29-27.67-1.82-3.92-8.37-11.29-7.26-15.02.2-.65,3.18-3.33,3.47-4.73.75-.3,4.29,2.32,4.97,2.99,6.14,6.02,12.47,30.96,12.88,39.68Z"/>
      <path class="cls-4" d="M339.05,178.84c4.87,1.33-1.6,13.35-4.7,5.48-.58-.51-.99-1.14-1.15-1.92-.14-.67-.04-1.41.21-2.04.52-1.33,1.65-2.38,3.05-2.69.23-.05.45-.02.65.07.57-.18,1.16.15,1.44.66.07.13.13.27.17.41.1-.01.2-.01.33.03Z"/>
      <path class="cls-3" d="M276.42,341.53c2.43,1.93,5.52,1.99,2.43,5.54-.42.48-4.73,4.12-5.11,4.19-1.36.25-2.34-.06-3.17-.51-4.57-.14-9.09-1.16-13.27-2.99,1.14,4.77,5.74,11.75,2.74,16.29-2.47,3.74-6.77,2.31-9.7.02-2.62-7.02-5.42-13.88-9.29-20.32-2.22,1.57-4.13,3.58-6.53,4.95-3.38,1.92-6.9,2.47-10.26,4.31-3.38.69-6.72-3.09-6.36-6.34.75-6.88,6.39-10.96,12.03-14.05,2.08-1.14,9.92-3.17,10.69-4.77.32-.65.45-5.65.5-6.93.04-1.23-.52-2.43-.26-3.88.06-.34.21-.69.41-1.05,1.29-.14,2.57-.28,3.86-.32-.01-.06-.01-.12-.01-.17,1.08-.09,2.16-.18,3.24-.28-.08,1.69-.36,4.41-.45,5.33-.14,1.47-1.78,6.65-.47,7.54.7.48,6.56.91,8,1.28,7.53,1.91,15.05,7.46,20.98,12.16Z"/>
      <path d="M277.9,174.45c3.7,22.19-4.03,52.2-29.83,55.91-6.8.98-18.08-7.81-21.66-13.38-7.23-11.24-7.12-30.41-4.65-43.23,1.7-8.83,5.37-11.44,11.99-16.58.54-.42.78-1.53,1.63-2.14,5.06-3.68,10.9-3.77,16.79-3.79h.01l.09-.09c1.68.03,3.36.1,5.04.23,2.11.4,4.14,1.21,5.95,2.38,1.27.34,2.48.89,3.44,1.59,3.04,2.22,10.6,15.5,11.2,19.1ZM249.88,225.29c24.64-5.68,30.94-47.49,16.49-64.1-1.39-1.6-2.55-2.47-3.77-2.96-.14-.22-.36-.39-.68-.48-3.87-1.01-7.79-1.78-11.77-2.05-1.16-.25-2.31-.49-3.41-.41-.62.04-6.85,1.51-7.21,1.78-1.24.92-1.84,2.71-3.09,3.82-3.85,3.37-6.43,3.88-8.78,9.13-3.15,7.03-3.85,25.28-2.31,32.88,2.11,10.39,12.6,25.14,24.53,22.39Z"/>
      <path d="M257.67,128.55c2.68.04,18.19,3.13,12.54,7.57-2.34,1.84-9.42-2.84-13.17-2.73-2.06.06-4.71,2.82-7.51,2.65-2.14-.13-4.36-2.83-3.14-4.1.09-.1,1.97-.01,2.78-.31,2.58-.94,5.71-3.13,8.5-3.08Z"/>
      <path class="cls-1" d="M266.37,161.19c14.45,16.61,8.15,58.42-16.49,64.1-11.93,2.75-22.42-12-24.53-22.39-1.54-7.6-.84-25.85,2.31-32.88,2.35-5.25,4.93-5.76,8.78-9.13,1.25-1.11,1.85-2.9,3.09-3.82.36-.27,6.59-1.74,7.21-1.78,1.1-.08,2.25.16,3.41.41,3.98.27,7.9,1.04,11.77,2.05.32.09.54.26.68.48,1.22.49,2.38,1.36,3.77,2.96ZM250.86,206.3c4.82-4.52,6.55-19.32,5.68-25.64-.54-3.93-3.28-14.17-8.57-9.27-4.66,4.33-6.66,14.58-7.11,20.77-.47,6.37.36,23.18,10,14.14Z"/>
      <path d="M256.54,180.66c.87,6.32-.86,21.12-5.68,25.64-9.64,9.04-10.47-7.77-10-14.14.45-6.19,2.45-16.44,7.11-20.77,5.29-4.9,8.03,5.34,8.57,9.27Z"/>
      <path class="cls-3" d="M248.35,313.95c.04.21.04.68.01,1.27-1.08.1-2.16.19-3.24.28,0,.05,0,.11.01.17-1.29.04-2.57.18-3.86.32.81-1.52,2.52-3.28,2.71-4.9,1.57-.19,4.08,1.25,4.37,2.86Z"/>
      <path d="M216.19,238.77c1.54-.95,5.11-.24,4.67,2.32-2.6,5.89-5.33,16.84-12.38,19.24-10.64,3.61-13.31-13.19-15.11-20.28,1.18.28,2.76-.7,3.71-.54,3.39.58,2.5,20.43,11.38,15.28,4.48-2.61,6.96-15.55,7.73-16.02Z"/>
      <path d="M210.48,226.37c2.14,3.39-3.48,5.93-5.11,2.65-1.45-2.93,3.93-4.54,5.11-2.65Z"/>
      <path d="M199.59,176.32c.97,19.42.73,51.53-25.25,53.31-9.58.65-15.03-4.42-19.94-11.9-11.76-17.86-10.18-47.56,1.23-65.35,2.63-4.11,9.14-10.62,14.03-11.46.33-.06,1.11-.04,2.01.01.18.09.37.16.56.16h2.3s.06-.02.09-.02c2.99,1.02,5.77,2.53,8.47,4.18,1.24.75,2.41,1.59,3.58,2.45.03.04.07.08.1.13.14.08.29.16.43.26,9.55,6.73,11.84,17.23,12.39,28.23ZM174.42,224.89c19.77-1.56,20.82-28.84,20.36-43.75-.37-11.61-1-18.06-6.26-24.32-.55-1-1.42-1.92-2.06-2.62-1.76-1.91-3.73-3.66-5.87-5.15-2.2-1.81-4.72-3.26-7.52-3.89,0-.01-.02,0-.04,0-.22-.1-.43-.21-.66-.31-1.37.01-2.98.03-3.95.36-14.67,4.95-18.02,36.11-17.05,49.03.89,11.81,8.71,31.78,23.05,30.65Z"/>
      <path class="cls-1" d="M194.78,181.14c.46,14.91-.59,42.19-20.36,43.75-14.34,1.13-22.16-18.84-23.05-30.65-.97-12.92,2.38-44.08,17.05-49.03.97-.33,2.58-.35,3.95-.36.23.1.44.21.66.31.02,0,.03-.01.04,0,2.8.63,5.32,2.08,7.52,3.89,2.14,1.49,4.11,3.24,5.87,5.15.64.7,1.51,1.62,2.06,2.62,5.26,6.26,5.89,12.71,6.26,24.32ZM180.13,196.16c.93-4.52.35-21.3-2.82-24.77-1.76-1.93-6.98-3.18-9.23-1.38-2.13,1.72-3.53,5.82-3.58,8.52-.13,6.6,1.73,21.22,5.83,26.36.54.69,1.02,1.44,2.03,1.44,2.17-.01,7.35-8.15,7.77-10.17Z"/>
      <path d="M187.06,125.84c.45.73.2,3.18-.54,3.73-1.51,1.11-8.1-3.04-10.74-3.18-2.36-.12-11.54,2.42-12.71.71-.28-.4.47-2.04.9-2.53,2.3-2.65,9.81-3.34,13.16-2.9,1.32.17,9.61,3.65,9.93,4.17Z"/>
      <path d="M177.31,171.39c3.17,3.47,3.75,20.25,2.82,24.77-.42,2.02-5.6,10.16-7.77,10.17-1.01,0-1.49-.75-2.03-1.44-4.1-5.14-5.96-19.76-5.83-26.36.05-2.7,1.45-6.8,3.58-8.52,2.25-1.8,7.47-.55,9.23,1.38Z"/>
    </g>
  </g>
</svg>