<?xml version="1.0" encoding="UTF-8"?>
<svg id="Layer_2" data-name="Layer 2" xmlns="http://www.w3.org/2000/svg" viewBox="0 0 426.86 468.29">
  <defs>
    <style>
      .cls-1 {
        fill: #fff;
      }

      .cls-2 {
        fill: #dc000c;
      }

      .cls-3 {
        fill: #003002;
      }

      .cls-4 {
        fill: #ffc500;
      }
    </style>
  </defs>
  <g id="v1">
    <g>
      <path class="cls-3" d="M422.24,256.05c2.94,3.57,7.88,9.32,1.53,10.31-7.94,1.24-17.1-2.89-24.4-5.45-.32.31,3.37,7.3,3.84,8.2.48.91,1.62,1.46,2.18,2.64,1.33,2.78,5.4,14.21,4.71,16.7-1.13,4.13-4.31,4.51-7.53,1.96-3.14-2.5-8.44-12.59-10.36-16.5-1.52-3.08-2.37-7.12-4.54-9.56-1.01,5.12-1.2,10.5-2.73,15.52-.71,2.33-2.5,7.92-5.74,7.1-6.17-1.56-5.84-25.58-4.63-30.89-3.03,2.76-10.05,11.86-11.66,3.06-1.56-8.5.22-17.69,3.07-25.77,1.38-3.91,6.11-11.08,6.38-14.29.29-3.51-7.7-24.93-9.69-29.25-5.39-11.72-12.85-20.77-19.79-31.17-6.13-9.2-10.7-20.62-19.54-27.39-1.08-1.89-2.21-3.76-4.23-4.77-1.27-.64-2.63-1.08-3.95-1.59-1.1-.42-2.12-1.01-3.21-1.47-3.66-1.54-9.11-2.64-12.37.27-1,.15-2,.31-2.99.53-.52.11-.9.67-.88,1.2-1.8,1.03-2.67,10.06-3.63,12.68-4.52,12.33-15.31,17.92-26.87,22.71-1.22.5-5.98,1.26-6.32,1.61-1.02,1.06.43,1.22.87,1.56.73.58,4.79,3.39,5.34,3.6.37.27.77.49,1.22.61.61.44,1.21.88,1.89,1.21.06.03.13.04.2.06,4.47,4.48,12.8,3.38,18.95,1.37,3.14-2.04,6.3-4.09,9.18-6.46,1.45-1.19,3.25-3.44,5.32-3.41.76.02,1.43.43,1.81,1.04.02.02.05.04.07.07,2.08.8,3.63,2.86,3.06,5.16-1.87,7.57-13.24,12.19-20.03,14.46-.71.24-1.29-.51-1.04,1.04.27,1.69,5.83,6.82,7.2,8.65,31.88,42.34,53.78,122.44,16.9,167.61-.08.09-.16.18-.23.27-.28.76-.6,1.51-.97,2.24-4.89,5.42-10.46,10.17-15.97,14.92-6.14,5.3-12.71,10.02-19.53,14.41-8.04,3.89-15.9,4.79-26.13,7.25-12.73,3.07-22.88,6.93-36.63,6.02-.55-.04-1.02-.25-1.48-.51-3.58.13-7.16-.06-10.72-.55-.21-.03-.39-.12-.55-.26-4.83.09-9.96.12-14.86-.01-3.25-.08-6.52-1.29-9.92-.69.1,2.29-1.05,4.39-1.34,6.58-.41,3.18-.89,8.61-.46,12.6,0,.01.01.01.01.01,6.07,11.5,21.54,9.03,32.11,7.18,5.55-.97,11.43-1.83,16.5-4.46,3.58-1.85,6.72-5.31,11.02-3.57.36.15.66.35.92.58.23.16.44.35.62.58l.03.03c3.19,3.38,6.11,6.98,8.79,10.77,4.45,3.77,8.74,7.86,9.95,12.34,1.41,5.21-2.34,3.65-2.49,4.54-.47,2.94,2.4,5.17,2.78,7.57.21,1.34.66,6.85.57,8.06-.25,3.09-1.98,3.87-4.84,3.1-3.98-1.07-13.43-14.47-14.3-19.11-1.25.5-.96,2.71-1.77,4.07-1.25,2.12-4.55,3.1-5.85.98-2.19-3.57-1.99-18.32-1.33-22.96-4.28,1.09-8.55,2.17-12.82,3.2-6.64,2.21-13.46,4-20.24,4.71-.34.16-.7.3-1.08.35-.68.08-1.55.04-2.54-.08-2.99.13-5.96.03-8.9-.37-6.51-.87-11.37-4.69-13.37-10.99-2.65-8.37.73-17.01.18-25.52-.04-.58.08-1.07.28-1.47-9.32.22-18.44-1.81-27.46-4.04-8.48-2.09-16.53-4.91-24.76-7.6-2.66-.87-5.31-1.85-7.9-2.96-.05.61-.32,1.23-.92,1.77-9.28,8.41-18.53,16.86-27.76,25.33-.24.27-.49.54-.74.81-.83.92-1.42,2.15-2.13,3.25-1.56,1.21-3.15,2.38-4.88,3.33-.15.05-.31.11-.46.16-1.64,1.52-3.28,3.04-4.93,4.56-3.14,3.87-6.87,9.2-9.3,11.77-1.58,1.67-11.37,11.2-12.54,11.55-4.81,1.43-5.33-.73-8.24-2.5-7.52-4.57-16.66-9.44-22.24-16.31-1.9-2.34-7.18-8.57-1.4-8.6.04-.04.05-.12.05-.21-.52-1.02-1.01-2.04-1.46-3.08-3.29-5.67-10.71-16.83-7.34-19.92,4.98-4.57,11.32,5.89,13.15,9.52,1.34,2.67,1.83,5.76,3.52,8.19.46-2.17-2.55-7.79-.39-9.34,2.2-1.59,5.86,1.57,7.15,3.31.67.9,1.06,2.92,1.31,3.12.44.36,1.74.1,2.53.55,4.03,2.27,4.73,8.42,6.61,12.69,1.73,3.9,3.95,7.71,5.52,11.7.06.16.11.36.15.58,1.66-1.54,3.33-3.08,4.99-4.62,15.12-18.84,32.14-36.02,50.93-51.25-3.55-1.24-7.49-1.66-10.97-2.89-12.97-4.6-35.64-21.25-44.37-32.07-25.17-31.18-30.77-86.79-13.15-122.54,13.1-26.58,31.27-50.41,57.31-65.27,5.88-3.36,17.49-6.59,26.36-7.84.18-.25.45-.45.83-.51,7.68-1.25,15.44-1.83,23.21-1.68,3.79-.21,7.39-.33,8.62-.49,4.1-.55,9.31-2.97,13.84-3.38,6.28-.57,13.26.41,19.62-.01l-6.48-6.94-7.05-12.28c-6.19,1.9-12.19.88-18.4,1.41-9.15.77-19.25,3.38-28.57,4.88-.49.22-1.05.34-1.69.34h-.59c-.32.05-.65.1-.97.15-20.09,2.63-41.38,1.86-61.17-2.77-3.24-.76-11.63-2.9-14.11-4.48-3.56-2.25-7.87-11.59-8.33-15.77-.71-6.37.52-22.18,1.38-28.92.22-1.71,2.28-6.92,2.06-7.22-.26-.36-6.29-3.12-7.74-4.17-4.82-3.49-11.28-9.59-14.43-14.65-6.08-9.75-7.88-21.56,7.71-15.63-.58-2.47-2.27-4.4-3.08-6.9-.7-2.11-2.18-7.96-2.36-10.04-1.26-14.43,10.74-10.41,16.45-2.34,1.02-2.29.37-4.83.86-7.06,1.42-6.59,7.11-20.05,13.93-9.77.14.22.76.2,1,.84,1.18,3.19.14,10.29.75,13.93,3.26-1.21,4.93-5.41,8.01-6.79,3.12-1.39,6.27-1.07,8.53,1.61,2.88,3.43,1.64,7.64.47,11.52-.45,1.5-2.56,5.04-2.59,5.69,0,.47,1.45.56,2.03,1.44,1.65,2.48,1.32,8.08.71,10.92-.87,4.05-7.32,16.65-10.62,19-1.8,1.29-3.52,1.23-5.3,2.28-3.59,2.12-9.13,10.59-10.12,14.66-1.36,5.61-1.73,24.62-.61,30.07.69,3.4,7.13,13.11,10.2,14.58,6.41,3.07,14.4,3.91,22.78,3.75,15.04,3.63,31.63,1.96,46.53-2.97,15.43-.95,30.95-2.23,46.35-3.16-1-6.67-2.36-15.74-1.38-22.4.15-1.03-.41-1.09,1.03-1.02,6.79.33,4.66,5.99,6.39,10.84.69,1.9,7.54,14.02,8.73,14.69,10.04,2.18,20.84,2.95,29.29,9.27,1.49,1.12.96,3.03,3.45,2.4-.3-9.91,1.74-19.69,5.19-28.91.91-2.43,5.15-12.39,7.01-12.96,6.31-1.91,2.9,3.06,2.42,5.87-2.03,11.83-1.51,23.71-1.58,35.7l2.79,8.55c1.21-3.53,2.23-7.67,3.77-11.03,3.4-7.39,9.87-18.72,14.28-25.67,2.66-4.2,7.37-8.53,8.65-12.71.29-.93.16-1.97.17-2.92,4.09-1.31,4.72,3.17,7.08,4.33,2.47,1.21,6.8.94,7.75,3.27.81,1.98-6.34,9.9-7.81,12.16-5.54,8.47-10.08,17.4-15.28,26.04-.8,1.34-5.33,7.8-7.91,12.15,7.88.18,15.37-1.52,22-4.83,4.55-5.93,12.17-15.28,13.43-16.29,1.35-1.07,3.85-2.44,6.89-3.88.03-.05.06-.11.09-.17,3.89-1.07,7.55-2.81,11.36-4.14.33-.12.59-.35.74-.64,5.41-1.9,10.45-3.27,12.98-3.23.63.01,8.31,1.53,9.23,1.79,2.41.68,11.53,8.22,13.83,10.28,21.93,19.61,34.97,52.02,47.93,78.08,3.89,7.8,3.9,9.44,12.62,12.17,9.35,2.92,15.94,3.88,22.21,10.42,2.27,1.3,4.35,2.9,5.62,5.25.52.98.89,2.09.49,3.18-.39,1.08-1.36,1.67-2.42,1.98-1.3.38-2.68.6-4.05.72-1.56,1.52.55,1.46,1.62,2.47,5.07,4.82,5.49,6.76,8.76,11.88,1.02.56,1.55,1.37,1.7,2.25ZM306.36,354.95c23.22-29.29,21.51-66.08,11.25-102.85-5.84-20.95-14.64-39.73-27.73-56.96-1.09-1.43-9-10.73-9.66-11.04-2.28-1.04-6.99,1.67-9.96,1.79-10.16.43-26.98-8.81-31.62-18.02-.76-1.5-2.07-7.78-2.57-8.1-.77-.48-3.62.15-5.04-.13-2.12-.43-5.31-2.02-7.78-2.55-20.01-4.25-40.6-7.42-61.08-7.08-.88,0-4.12.32-6.66.64-.1,0-.21,0-.3,0-1.67.06-3.28.49-4.88.91-2.56.66-5.06,1.41-7.67,1.89-1.24.22-2.48.42-3.72.6-1.93-.06-4.13-.04-5.73.11-.51.05-1.02.17-1.53.33-1.41.01-2.89-.01-4.34.1-.9-.21-1.79-.42-2.71-.15-.03.01-.06.03-.09.04-1.45.03-2.91.06-4.36.09-2.55.43-7.19.94-8.14,1.15-20.41,4.41-29.14,9.19-44.92,22.57-17.9,15.18-39.51,49-42.88,72.11-5.2,35.77,1.9,76.78,28.99,102.54,19.44,18.48,49.1,28.74,74.67,36.53,27.64,8.42,56.73,8.94,85.17,9.18,16.74.15,53.31-6.23,66.12-17.26,5.29-4.55,11.5-10.57,16.89-15.47,3.61-3.27,6.8-6.68,9.65-10.19.05-.09.12-.19.17-.28.13-.22.29-.38.46-.5ZM285.47,126.53c-.24-.04-.51-.02-.78.13-.06.03-.12.07-.18.1s-.11.06-.17.1c-3.76,2.05-7.02,4.84-10.15,7.77-.68.47-1.38.93-2.07,1.38-1.44.92-2.71,1.92-3.69,3.33-.25.35-.2.79-.01,1.15,3.54-1.74,6.91-3.78,10.08-6.09,2.52-2.43,4.85-5.07,6.97-7.87Z"/>
      <path class="cls-2" d="M317.61,252.1c10.26,36.77,11.97,73.56-11.25,102.85-.17.12-.33.28-.46.5-.05.09-.12.19-.17.28-2.85,3.51-6.04,6.92-9.65,10.19-5.39,4.9-11.6,10.92-16.89,15.47-12.81,11.03-49.38,17.41-66.12,17.26-28.44-.24-57.53-.76-85.17-9.18-25.57-7.79-55.23-18.05-74.67-36.53-27.09-25.76-34.19-66.77-28.99-102.54,3.37-23.11,24.98-56.93,42.88-72.11,15.78-13.38,24.51-18.16,44.92-22.57.95-.21,5.59-.72,8.14-1.15,1.45-.03,2.91-.06,4.36-.09.03,0,.06-.03.09-.04.92-.27,1.81-.06,2.71.15,1.45-.11,2.93-.09,4.34-.1.51-.16,1.02-.28,1.53-.33,1.6-.15,3.8-.17,5.73-.11,1.24-.18,2.48-.38,3.72-.6,2.61-.48,5.11-1.23,7.67-1.89,1.6-.42,3.21-.85,4.88-.91.09,0,.2,0,.3,0,2.54-.32,5.78-.63,6.66-.64,20.48-.34,41.07,2.83,61.08,7.08,2.47.53,5.66,2.12,7.78,2.55,1.42.28,4.27-.35,5.04.13.5.32,1.81,6.6,2.57,8.1,4.64,9.21,21.46,18.45,31.62,18.02,2.97-.12,7.68-2.83,9.96-1.79.66.31,8.57,9.61,9.66,11.04,13.09,17.23,21.89,36.01,27.73,56.96ZM294.97,279.43c3.74-7.24,3.04-26.94,1.62-35.22-1.21-7.06-3.58-18.48-9.11-23.26-7.47-6.45-10.38-.34-14.23,5.08-.19.27-.43.5-.68.7-.08.92-.15,1.84-.04,2.75.12,1.01.67,2.18,1.05,3.22.03.07.02.15.03.23,3.43,5.34,6.28,19.3,6.62,24.19.38,5.57-1.52,22.61,2.39,25.84,4.32,3.56,10.06.9,12.35-3.53ZM285.4,311.17c10.74-1.16,9.02-16.35-1.56-17.76-.87-.12-1.5-.29-2.42-.03-5.41,1.57-10.17,19.31,3.98,17.79ZM190.92,311.68c12.33-16.57,21.28-37.45,12.54-57.67-.29-.67-2.03-3.79-3.57-6.4-.19-.18-.39-.37-.58-.55-1.33-1.17-2.8-2.13-3.99-3.43l-.12.03c-3.97-3.04-8.6-5.14-13.52-5.24-4.03-.71-8.76.21-11.86,1.93-16.77,9.31-21.92,47.23-17.34,63.95,2.83,10.36,16.15,18.24,26.71,16.35,2.67-.48,10.04-6.68,11.73-8.97ZM202.42,227.16c.25-2.85-.46-7.16-2.28-9.43-3.43-4.25-12.47-4.93-15.69-.58-.73.98-.26,3.1.46,3.15,1.76.14,5.49-2.67,9.48-1.29,3.29,1.13,1.68,10.52,8.03,8.15ZM142.92,331.2c.8-1.04,2.82-1.02,2.28-3.05-.3-1.13-3.36-2.66-4.34-2.43-1,.24-7.63,14.21-13.97,14.77-.3.13-.6.24-.9.31-.8.19-1.67.14-2.38-.3-.68-.42-1.11-1.06-1.4-1.77-.13-.07-.21-.12-.23-.15-1.81-2.8.12-12.8-.91-15.95-.46-1.39-4.05-1.55-4.65-1.05-2.49,2.09.17,20.27,4.28,22.39,9.2,4.76,17.25-6.32,22.22-12.77ZM131.59,316.59c1.16,2.02,7,1.58,6.05-1.56-.94-3.14-7.81-1.52-6.05,1.56ZM122.9,299.48c15.74-14.43,26.25-47.29,12.34-65.41-.95-1.23-2.96-3.31-4.83-3.97-1.27-.83-2.63-1.51-4.08-2.01-.19-.07-.39-.08-.59-.05-12.31-3.7-20.23.62-26.74,11.73-10.02,17.1-14.47,45.78,1.83,60.4,8.48,7.6,13.78,6.91,22.07-.69ZM131.82,205.85c4.28-.63-1.09-6.36-3.09-7.26-.35-.15-6.71-1.53-7.38-1.59-6.33-.64-8.7,8.24-5.11,6.63.09-.04.08-.78.37-.96,8.39-5.09,10.17,3.92,15.21,3.18Z"/>
      <path d="M296.59,244.21c1.42,8.28,2.12,27.98-1.62,35.22-2.29,4.43-8.03,7.09-12.35,3.53-3.91-3.23-2.01-20.27-2.39-25.84-.34-4.89-3.19-18.85-6.62-24.19,0-.08,0-.16-.03-.23-.38-1.04-.93-2.21-1.05-3.22-.11-.91-.04-1.83.04-2.75.25-.2.49-.43.68-.7,3.85-5.42,6.76-11.53,14.23-5.08,5.53,4.78,7.9,16.2,9.11,23.26ZM292.57,268.08c1.04-8.67-1.08-34.31-6.14-41.26-.57-.78-3.62-3.95-4.41-3.77-.52,1.33-3.9,3.48-4.2,4.09-1.72,3.49,3.53,11.85,4.67,16.01,2.48,9.01,2.47,19.38,2.63,28.5.04,2.78.77,5.41-.06,8.53.24.25,4.16-.41,4.65-.85.43-.38,2.71-9.98,2.86-11.25Z"/>
      <path class="cls-4" d="M286.43,226.82c5.06,6.95,7.18,32.59,6.14,41.26-.15,1.27-2.43,10.87-2.86,11.25-.49.44-4.41,1.1-4.65.85.83-3.12.1-5.75.06-8.53-.16-9.12-.15-19.49-2.63-28.5-1.14-4.16-6.39-12.52-4.67-16.01.3-.61,3.68-2.76,4.2-4.09.79-.18,3.84,2.99,4.41,3.77Z"/>
      <path class="cls-4" d="M286.77,299.47c4.58,2.12-3.79,12.9-5.54,4.63-.49-.6-.8-1.29-.83-2.08-.02-.69.2-1.4.55-1.98.73-1.23,2.02-2.07,3.45-2.15.24-.02.45.05.63.17.6-.08,1.12.35,1.32.89.05.14.07.29.1.44.09,0,.19.02.32.08Z"/>
      <path d="M283.84,293.41c10.58,1.41,12.3,16.6,1.56,17.76-14.15,1.52-9.39-16.22-3.98-17.79.92-.26,1.55-.09,2.42.03ZM281.23,304.1c1.75,8.27,10.12-2.51,5.54-4.63-.13-.06-.23-.08-.32-.08-.03-.15-.05-.3-.1-.44-.2-.54-.72-.97-1.32-.89-.18-.12-.39-.19-.63-.17-1.43.08-2.72.92-3.45,2.15-.35.58-.57,1.29-.55,1.98.03.79.34,1.48.83,2.08Z"/>
      <path d="M203.46,254.01c8.74,20.22-.21,41.1-12.54,57.67-1.69,2.29-9.06,8.49-11.73,8.97-10.56,1.89-23.88-5.99-26.71-16.35-4.58-16.72.57-54.64,17.34-63.95,3.1-1.72,7.83-2.64,11.86-1.93,4.92.1,9.55,2.2,13.52,5.24l.12-.03c1.19,1.3,2.66,2.26,3.99,3.43.19.18.39.37.58.55,1.54,2.61,3.28,5.73,3.57,6.4ZM191.27,303.12c9.7-14.75,15.1-32.26,7.45-48.61-.07-.44-.19-.86-.37-1.25-.35-1.24-.83-2.44-1.5-3.52-1.03-1.65-2.51-3.1-4.07-4.25-.09-.06-.17-.13-.25-.19-.06-.04-.13-.05-.19-.08,0,0-.01,0-.01-.01-.17-.17-.36-.27-.54-.32-2.09-1.39-4.34-2.46-6.71-3.03-.13-.07-.28-.14-.45-.2-.2-.08-.44-.09-.66-.12-.23-.02-.46,0-.7,0-.04-.01-.09,0-.14.01-.02-.01-.05-.03-.07-.04-1.71-.19-3.47-.1-5.26.34-1.83.78-4.14,1.81-4.48,2-3.06,1.72-6.17,4.81-8.1,7.74-7.14,10.81-11.62,36.25-8.76,48.73,1.9,8.31,8.42,14.63,16.86,16.2,7.56,1.41,14.32-7.87,17.95-13.4Z"/>
      <path d="M200.14,217.73c1.82,2.27,2.53,6.58,2.28,9.43-6.35,2.37-4.74-7.02-8.03-8.15-3.99-1.38-7.72,1.43-9.48,1.29-.72-.05-1.19-2.17-.46-3.15,3.22-4.35,12.26-3.67,15.69.58Z"/>
      <path class="cls-1" d="M198.72,254.51c7.65,16.35,2.25,33.86-7.45,48.61-3.63,5.53-10.39,14.81-17.95,13.4-8.44-1.57-14.96-7.89-16.86-16.2-2.86-12.48,1.62-37.92,8.76-48.73,1.93-2.93,5.04-6.02,8.1-7.74.34-.19,2.65-1.22,4.48-2,1.79-.44,3.55-.53,5.26-.34.02.01.05.03.07.04.05-.01.1-.02.14-.01.24,0,.47-.02.7,0,.22.03.46.04.66.12.17.06.32.13.45.2,2.37.57,4.62,1.64,6.71,3.03.18.05.37.15.54.32,0,.01.01.01.01.01.06.03.13.04.19.08.08.06.16.13.25.19,1.56,1.15,3.04,2.6,4.07,4.25.67,1.08,1.15,2.28,1.5,3.52.18.39.3.81.37,1.25ZM179.29,295.27c3.97-6.08,10.03-29.35,1.97-33.52-7.46-3.85-11.05,8.71-12.54,14-1.37,4.87-4.93,20.73-1.24,24.22.57.53,1.08.73,1.57.74.82.99,2.18,1.32,3.45,1.1.83-.14,1.6-.54,2.31-1.01.83-.46,1.53-1.1,2.15-1.83.44-.48.83-1,1.18-1.54.16-.25.22-.55.2-.85.3-.36.61-.78.95-1.31Z"/>
      <path d="M181.26,261.75c8.06,4.17,2,27.44-1.97,33.52-.34.53-.65.95-.95,1.31.02.3-.04.6-.2.85-.35.54-.74,1.06-1.18,1.54-.62.73-1.32,1.37-2.15,1.83-.71.47-1.48.87-2.31,1.01-1.27.22-2.63-.11-3.45-1.1-.49-.01-1-.21-1.57-.74-3.69-3.49-.13-19.35,1.24-24.22,1.49-5.29,5.08-17.85,12.54-14Z"/>
      <path d="M145.2,328.15c.54,2.03-1.48,2.01-2.28,3.05-4.97,6.45-13.02,17.53-22.22,12.77-4.11-2.12-6.77-20.3-4.28-22.39.6-.5,4.19-.34,4.65,1.05,1.03,3.15-.9,13.15.91,15.95.02.03.1.08.23.15.29.71.72,1.35,1.4,1.77.71.44,1.58.49,2.38.3.3-.07.6-.18.9-.31,6.34-.56,12.97-14.53,13.97-14.77.98-.23,4.04,1.3,4.34,2.43Z"/>
      <path d="M137.64,315.03c.95,3.14-4.89,3.58-6.05,1.56-1.76-3.08,5.11-4.7,6.05-1.56Z"/>
      <path d="M135.24,234.07c13.91,18.12,3.4,50.98-12.34,65.41-8.29,7.6-13.59,8.29-22.07.69-16.3-14.62-11.85-43.3-1.83-60.4,6.51-11.11,14.43-15.43,26.74-11.73.2-.03.4-.02.59.05,1.45.5,2.81,1.18,4.08,2.01,1.87.66,3.88,2.74,4.83,3.97ZM133.01,277.92c5.01-10.07,6.09-30.93-.83-40.09-.88-1.16-2.87-2.41-4.11-3.7-1.27-.95-2.53-1.9-3.8-2.84,0-.01-.02-.03-.03-.04-.88-.6-1.63-1.39-3.03-1.73-5.91-1.42-8.28.61-12.03,4.6-10.96,11.66-14.77,27.94-13.48,43.64.79,9.74,8.71,27.45,20.73,21.42,4.39-2.2,14.25-16.56,16.58-21.26Z"/>
      <path class="cls-1" d="M132.18,237.83c6.92,9.16,5.84,30.02.83,40.09-2.33,4.7-12.19,19.06-16.58,21.26-12.02,6.03-19.94-11.68-20.73-21.42-1.29-15.7,2.52-31.98,13.48-43.64,3.75-3.99,6.12-6.02,12.03-4.6,1.4.34,2.15,1.13,3.03,1.73.01.01.02.03.03.04,1.27.94,2.53,1.89,3.8,2.84,1.24,1.29,3.23,2.54,4.11,3.7ZM123.06,253.57c.07-.67-1.53-5.94-1.98-6.7-2.43-4.15-7.67-1.62-10.03,1.16-4.62,5.46-7.02,25.43-5.42,32.2,1.65,7.01,8.11,2.83,10.51-1.97,2.53-5.03,6.31-19.21,6.92-24.69Z"/>
      <path d="M128.73,198.59c2,.9,7.37,6.63,3.09,7.26-5.04.74-6.82-8.27-15.21-3.18-.29.18-.28.92-.37.96-3.59,1.61-1.22-7.27,5.11-6.63.67.06,7.03,1.44,7.38,1.59Z"/>
      <path d="M121.08,246.87c.45.76,2.05,6.03,1.98,6.7-.61,5.48-4.39,19.66-6.92,24.69-2.4,4.8-8.86,8.98-10.51,1.97-1.6-6.77.8-26.74,5.42-32.2,2.36-2.78,7.6-5.31,10.03-1.16Z"/>
    </g>
  </g>
</svg>