<?xml version="1.0" encoding="UTF-8"?>
<svg id="Layer_2" data-name="Layer 2" xmlns="http://www.w3.org/2000/svg" viewBox="0 0 395.1 416.27">
  <defs>
    <style>
      .cls-1 {
        fill: #fff;
      }

      .cls-2 {
        fill: #dc000c;
      }

      .cls-3 {
        fill: #003002;
      }

      .cls-4 {
        fill: #ffc500;
      }
    </style>
  </defs>
  <g id="v1">
    <g>
      <path class="cls-3" d="M381.3,133.69c3.9,1.6,21.38,14.22,10.02,16.15-1.09.18-7.66.02-8.86-.14-1.77-.24-9.89-5.19-10.54-4.49,5.77,9.05,14.7,16.97,16.27,27.99.55,7.03-7.56,4.39-10.71,1.29-3.43-3.35-10.22-14.91-12.84-19.55-.54-.95.24-1.89-1.69-1.37-.04,3.16,1.02,6.89.85,9.95-.27,4.81-3.68,10.39-7.79,4.71-1.48-2.06-4.06-10.65-4.65-13.38-.87-4.12-.61-8.52-1.82-12.57l-2.66,7.61c-2.48,6.02-7.05,2.3-8.57-2.22-2.42-7.17-1.04-23.82.09-31.67.25-1.77,1.89-4.28,1.43-5.58-.57-1.6-4.71-4.23-5.53-5.58-1.24-2.08-1.07-5.41-2.37-7.77-2.12-3.87-12.65-15.26-16.22-19.11-12.09-13.02-28-27.13-44.04-34.81-11.88-5.7-22.35-9.12-32.77-10.29-4.37,7.32-12.09,16.72-15.88,22.87-1.79,2.91-3.39,6.05-5.07,9.03,16.53,2.16,32.3-6.49,43.52-18.07,5.98-2.78,6.5,5.1,5.98,9.4-.95,7.88-9.26,14.74-15.24,18.99-.8.57-.9,1.76-1.93,2.39-.39.24-7.05,1.83-5.48,3.13.21.18,3.7.53,5.29,1.26,6.67,3.08,12.4,8.57,19.16,11.18,1.01.07,1.8-.45,2.69-.8,1.09-.43,2.38-1.19,3.72-2.06.07-.03.14-.04.21-.08,2.93-1.46,5.73-3.09,8.29-5.09.45-.12.97-.17,1.5-.18.8-.99,1.51-2.05,2.15-3.15,1.81-1.92,3.37-4.03,4.86-6.21.07,0,.14,0,.21.03.17.05.33.12.49.2.62,2.2.49,4.34-.14,6.44-.08.2-.16.4-.25.6-.01.08-.02.17-.03.26-.63,1.72-1.58,3.41-2.72,5.05-2.59,3.74-5.25,8.5-9.48,10.63-.75.03-1.52.32-2.21,1.01l-.34.34c-.35.35-.58.75-.73,1.18-.16.02-.28.04-.3.06-.2.23-.14.66.11,1.23.05,1.44.9,2.86,2.19,3.37,2.8,3.66,7.16,8.29,8.02,9.52,9.91,14.28,23.98,37.94,26.16,55.09,3.64,28.61,3.72,64.18-5.17,91.91-6.04,18.86-25.06,42-41.05,53.28-16.49,11.64-37.38,19.99-58.21,23.5-3.24,1.03-6.58,1.62-9.97,1.96-3.24,5.12-6.2,10.4-9.03,15.76,0,.34-.07.72-.23,1.12-5.06,12.21-9.85,24.6-15.63,36.49-2.79,5.74-5.81,11.47-9.46,16.71-2.41,3.46-5.04,5.57-9.33,4.95-2.07.37-3.29-.81-5.64-1.47-8.47-2.41-18.58-4.65-25.8-9.79-2.45-1.74-9.2-6.33-3.64-7.91.73-1.35-17.82-14.93-14.63-20.03,3.58-5.73,12.47,2.65,15.21,5.67,2.01,2.2,3.3,5.06,5.58,6.94-.14-2.21-4.54-6.82-2.87-8.89,1.7-2.12,6.07-.05,7.78,1.28.88.69,1.8,2.53,2.09,2.66.52.22,1.7-.37,2.59-.15,4.49,1.11,6.8,6.85,9.76,10.46,2.7,3.3,5.86,6.38,8.44,9.8.77,1.03,1.19,4.22,3,3.41l22.26-42.14c2.83-8.14,6.04-16.14,9.6-24h-5.65c-.15.04-.3.07-.46.08-5.93.31-11.87.61-17.81.3-5.24-.29-10.42-1.11-15.46-2.58-4.93-1.43-9.71-3.29-14.58-4.92-4.7-1.57-9.48-2.87-14.29-4.02-3.03-.46-6.09-.94-8.78-1.69-.29-.08-.57-.2-.85-.32-.13-.37-.39-.7-.8-.75-1.24-.17-2.48-.37-3.71-.64-.62-.14-1.23-.29-1.83-.47-.3-.09-.59-.19-.88-.29-.15-.05-.3-.11-.44-.16l-.21-.09s-.02,0-.04-.02c-.02,0-.05-.01-.06-.01-.04-.06-.07-.12-.1-.19l-20.97-7.05c-2.03-1.99-4.55-3.45-7.4-4.18-3.43-1.59-6.84-3.35-10.03-5.32-7.17-4.41-13.77-9.13-19.86-14.26.29-.22.57-.44.84-.68-.6-.33-1.18-.69-1.74-1.1-.87-.65-1.65-1.36-2.36-2.13-.2.19-.39.37-.59.56-11.76-10.59-21.58-22.85-30.01-37.45C.76,236.48-.87,217.17.35,196.65c2.41-40.45,16.41-72.1,47.5-98.49,2.49-2.12,16.08-11.31,16.34-13.07-6.32-8.88-13.8-16.19-22.57-22.69-6.17-3.15-17.67-5.3-22.94-9.42-1.39-1.09-1.34-2.44-2.2-3.32-.97-.99-6.61-4.28-3.63-6.14.27-.17,5.62-.82,6.4-.81,5.32.05,12.21,2.28,16.89,4.84l-8.84-15.59c-1.75-3.22-2.32-6.94-3.52-10.26-.67-1.86-3.91-4.55-.35-5.16,2.02-.34,5.56,1.25,7.44,2.23,1.26.66,3.56,3.49,4.59,2.61.15-.13-.77-2.39-.58-3.6.29-1.85,2.82-4.45,3.56-6.85.96-3.12,1.4-7.59,1.85-10.9,1.88-.17,3.52.32,4.83,1.72,5.18,5.53,5.02,24.56,4.12,32.03l4.44-11.04c1.26-4.37,7.02-6.06,9.64-2.01,2.44,3.78,0,9.27.37,9.6.99.89,5.28-1.46,4.69,4.98-.28,2.99-2.43,10.67-3.35,13.92-1.82,6.44-4.6,12.89-6.77,19.23.17.98,6.86,7.1,8.15,8.56,1.22,1.39,2.67,5.59,4.63,5.53,8.01-3.78,17.28-10.09,25.7-12.63,13-3.93,27.87-5,41.33-5.85-4.94-4.38-10.25-17.62-10.72-24.07-.16-2.11,1.13-5.86,3.52-6.23,2.43-.38,4.45,3.29,5.64,5.36,1.37,2.39,2.06,5.43,3.36,7.66,3.41,5.85,6.87,10.89,11.68,14.43,4.44-4.39,10.69-8.83,17.6-12.95-.3-7.53.87-15.46,2.63-20.37.98-2.71,4.13-10.75,7.61-8.95,1.62.84,3.34,12.35,4.17,15.13.55,1.85,1.26,3.68,2.03,5.49,8.26-3.89,16.25-7,22.28-8.77,4.16-1.22,8.32-2.05,12.46-2.55.24-.59.48-1.18.7-1.77.01-.41.1-.82.31-1.2l3.09-5.77c.5-.93,1.01-1.87,1.51-2.81.57-1.06,1.22-2.11,2.45-2.47,1.18-.35,2.32.05,3.45.37,1.03.29,2.07.58,3.11.87,2.07.58,4.15,1.16,6.22,1.74,1.63.46,2.32,2.6,1.4,3.89.22,2.14-.32,4.64-1.18,6.86-.06.16-.14.34-.21.51,27.17,3.78,52.43,20.48,71.65,39.89,11.89,11.99,21.82,26.07,33.39,38.23,8.09,8.5,25.2,10.57,36.02,16.18,8.75,4.53,12.37,9.97-.94,10.92ZM382.67,167.69c-.7-1.48-1.53-2.93-2.04-4.5l-3.07-4.08c1.56,2.94,3.26,5.8,5.11,8.58ZM295.64,278.47c14.41-19.8,17.43-65.59,15.26-89.4-.6-6.59-1.64-18.45-3.05-24.49-3.03-12.92-21.28-43.47-30.02-54-.67-.81-4.95-5.69-5.28-5.9-2.44-1.54-4.75,1.05-7.1,1.61-15.12,3.61-29.78,1.43-40.65-10.21-.28-.21-.57-.43-.84-.66-.76-.64-1.47-1.38-2.1-2.18-.34.16-.77.37-1.3.67-1.53.86-2.59,3.13-3.63,3.91-20.9,15.47-41.56,27.09-68.18,29.62-23.87,2.26-52.21-15.2-70.53-29.33-2.56-1.98-7.84-7.79-10.36-8.27-2.44-.45-5.02,3.7-7.24,5.25-30.14,20.93-47.79,47.42-53.33,84.4-5.62,37.49-1.7,65.13,23,94.63,22.18,26.49,50.99,41.6,84.07,50.21,6.24,1.62,12.69,2.84,19.07,4.08.11.07.23.13.36.16,1.28.26,2.58.44,3.87.6.08.03.15.07.23.11.03.01.06.01.09.02.01.02.02.03.04.05,4.31,2.13,8.88,3.67,13.57,4.77,6,1.41,12.12,2.05,18.27,2.34,2.49-.06,5.08.06,7.65.19,1.49.01,2.97.02,4.45.01,2.28-.01,4.57-.02,6.85-.06.46-.1.91-.2,1.36-.31.58-.15,1.08-.05,1.48.19,5.14-.38,10.17-.93,15.08-1.71,1.33-.38,2.63-.83,3.89-1.38.95-.42,2-.42,2.79.18,22.12-4.48,42.07-13.54,60.75-28.73,5.91-4.81,16.57-19.63,21.48-26.37ZM259.26,93c-1.44-1.14-4.02-2.89-5.58-3.71-4.24-2.23-9.27-4.05-13.51-5.77-1.53-.62-3.39-1.27-5.01-1.53-1.41,1.16,9.36,7.22,10.55,7.69,4.07,1.62,9.25,2.7,13.55,3.32ZM216.52,87.08c-.13-.27-.28-.54-.42-.8.05-.22.07-.43.08-.65l-2.34-3.29c-.06-.02-.11-.06-.17-.08-1.35-2.11-2.64-4.25-3.27-6.84-2.34.38-7.25-2.44-8.68-2.41-1.45.03-1.28,1.58-2.2,2.08-3.93,2.15-8.64,3.61-13.64,4.44-.06-.03-.12-.05-.18-.08-5.13.97-10.38,1.13-15.59.54-7.18-.72-14.02-2.69-19.26-5.96-5.41-3.38-6.47-5.5-13.83-5.81-17.3-.74-42.04,6.43-57.29,14.3-1.14.59-5.85,3.48-5.64,4.53.29,1.52,8.54,8.25,10.32,9.68,14.99,12.03,44.45,29.2,65.33,25.11,13.48-.07,26.55-5.57,37.98-12.35,1.24-.73,2.35-1.65,3.35-2.68,8.37-4.88,15.38-10.95,22.59-17.53.15-.11.3-.2.45-.31.24-.14.47-.32.7-.55.57-.44,1.15-.87,1.71-1.34ZM204.17,64.77c1.14-11.79,8.38-21.12,13.68-31.29-6.8,1.12-13.91,3.09-21.68,5.92-.64.23-4.57,2.12-7.58,3.77-.41.08-.83.17-1.24.27l.06.15c.7,2.7,2.33,5.13,3.67,7.55.18.32.46.58.79.75,1.76,3.04,4.64,7.24,5.46,8.21.93,1.1,5.87,5.67,6.84,4.67ZM174.57,66.5c1.89-.69.09-.92-.18-1.2-2.58-2.68-4.08-7.04-4.79-11.97-4.55,3.24-10.49,6.61-14.31,10.19,2.18,1.09,4.62,1.93,7.4,2.45,2.43.46,9.85,1.28,11.88.53Z"/>
      <path class="cls-2" d="M310.9,189.07c2.17,23.81-.85,69.6-15.26,89.4-4.91,6.74-15.57,21.56-21.48,26.37-18.68,15.19-38.63,24.25-60.75,28.73-.79-.6-1.84-.6-2.79-.18-1.26.55-2.56,1-3.89,1.38-4.91.78-9.94,1.33-15.08,1.71-.4-.24-.9-.34-1.48-.19-.45.11-.9.21-1.36.31-2.28.04-4.57.05-6.85.06-1.48.01-2.96,0-4.45-.01-2.57-.13-5.16-.25-7.65-.19-6.15-.29-12.27-.93-18.27-2.34-4.69-1.1-9.26-2.64-13.57-4.77-.02-.02-.03-.03-.04-.05-.03-.01-.06-.01-.09-.02-.08-.04-.15-.08-.23-.11-1.29-.16-2.59-.34-3.87-.6-.13-.03-.25-.09-.36-.16-6.38-1.24-12.83-2.46-19.07-4.08-33.08-8.61-61.89-23.72-84.07-50.21C5.59,244.62,1.67,216.98,7.29,179.49c5.54-36.98,23.19-63.47,53.33-84.4,2.22-1.55,4.8-5.7,7.24-5.25,2.52.48,7.8,6.29,10.36,8.27,18.32,14.13,46.66,31.59,70.53,29.33,26.62-2.53,47.28-14.15,68.18-29.62,1.04-.78,2.1-3.05,3.63-3.91.53-.3.96-.51,1.3-.67.63.8,1.34,1.54,2.1,2.18.27.23.56.45.84.66,10.87,11.64,25.53,13.82,40.65,10.21,2.35-.56,4.66-3.15,7.1-1.61.33.21,4.61,5.09,5.28,5.9,8.74,10.53,26.99,41.08,30.02,54,1.41,6.04,2.45,17.9,3.05,24.49ZM275.19,209.57c3.74-7.24,3.04-26.94,1.62-35.22-1.21-7.06-3.58-18.48-9.11-23.26-7.47-6.45-10.38-.34-14.23,5.08-.19.27-.43.5-.68.7-.08.92-.15,1.84-.04,2.75.12,1.01.67,2.18,1.05,3.22.03.07.02.15.03.23,3.43,5.34,6.28,19.3,6.62,24.19.38,5.57-1.52,22.61,2.39,25.84,4.32,3.56,10.06.9,12.35-3.53ZM265.62,241.31c10.74-1.16,9.02-16.35-1.56-17.76-.87-.12-1.5-.29-2.42-.03-5.41,1.57-10.17,19.31,3.98,17.79ZM171.14,241.82c12.33-16.57,21.28-37.45,12.54-57.67-.29-.67-2.03-3.79-3.57-6.4-.19-.18-.39-.37-.58-.55-1.33-1.17-2.8-2.13-3.99-3.43l-.12.03c-3.97-3.04-8.6-5.14-13.52-5.24-4.03-.71-8.76.21-11.86,1.93-16.77,9.31-21.92,47.23-17.34,63.95,2.83,10.36,16.15,18.24,26.71,16.35,2.67-.48,10.04-6.68,11.73-8.97ZM182.64,157.3c.25-2.85-.46-7.16-2.28-9.43-3.43-4.25-12.47-4.93-15.69-.58-.73.98-.26,3.1.46,3.15,1.76.14,5.49-2.67,9.48-1.29,3.29,1.13,1.68,10.52,8.03,8.15ZM123.14,261.34c.8-1.04,2.82-1.02,2.28-3.05-.3-1.13-3.36-2.66-4.34-2.43-1,.24-7.63,14.21-13.97,14.77-.3.13-.6.24-.9.31-.8.19-1.67.14-2.38-.3-.68-.42-1.11-1.06-1.4-1.77-.13-.07-.21-.12-.23-.15-1.81-2.8.12-12.8-.91-15.95-.46-1.39-4.05-1.55-4.65-1.05-2.49,2.09.17,20.27,4.28,22.39,9.2,4.76,17.25-6.32,22.22-12.77ZM111.81,246.73c1.16,2.02,7,1.58,6.05-1.56-.94-3.14-7.81-1.52-6.05,1.56ZM103.12,229.62c15.74-14.43,26.25-47.29,12.34-65.41-.95-1.23-2.96-3.31-4.83-3.97-1.27-.83-2.63-1.51-4.08-2.01-.19-.07-.39-.08-.59-.05-12.31-3.7-20.23.62-26.74,11.73-10.02,17.1-14.47,45.78,1.83,60.4,8.48,7.6,13.78,6.91,22.07-.69ZM112.04,135.99c4.28-.63-1.09-6.36-3.09-7.26-.35-.15-6.71-1.53-7.38-1.59-6.33-.64-8.7,8.24-5.11,6.63.09-.04.08-.78.37-.96,8.39-5.09,10.17,3.92,15.21,3.18Z"/>
      <path d="M276.81,174.35c1.42,8.28,2.12,27.98-1.62,35.22-2.29,4.43-8.03,7.09-12.35,3.53-3.91-3.23-2.01-20.27-2.39-25.84-.34-4.89-3.19-18.85-6.62-24.19-.01-.08,0-.16-.03-.23-.38-1.04-.93-2.21-1.05-3.22-.11-.91-.04-1.83.04-2.75.25-.2.49-.43.68-.7,3.85-5.42,6.76-11.53,14.23-5.08,5.53,4.78,7.9,16.2,9.11,23.26ZM272.79,198.22c1.04-8.67-1.08-34.31-6.14-41.26-.57-.78-3.62-3.95-4.41-3.77-.52,1.33-3.9,3.48-4.2,4.09-1.72,3.49,3.53,11.85,4.67,16.01,2.48,9.01,2.47,19.38,2.63,28.5.04,2.78.77,5.41-.06,8.53.24.25,4.16-.41,4.65-.85.43-.38,2.71-9.98,2.86-11.25Z"/>
      <path class="cls-4" d="M266.65,156.96c5.06,6.95,7.18,32.59,6.14,41.26-.15,1.27-2.43,10.87-2.86,11.25-.49.44-4.41,1.1-4.65.85.83-3.12.1-5.75.06-8.53-.16-9.12-.15-19.49-2.63-28.5-1.14-4.16-6.39-12.52-4.67-16.01.3-.61,3.68-2.76,4.2-4.09.79-.18,3.84,2.99,4.41,3.77Z"/>
      <path class="cls-4" d="M266.99,229.61c4.58,2.12-3.79,12.9-5.54,4.63-.49-.6-.8-1.29-.83-2.08-.02-.69.2-1.4.55-1.98.73-1.23,2.02-2.07,3.45-2.15.24-.02.45.05.63.17.6-.08,1.12.35,1.32.89.05.14.07.29.1.44.09,0,.19.02.32.08Z"/>
      <path d="M264.06,223.55c10.58,1.41,12.3,16.6,1.56,17.76-14.15,1.52-9.39-16.22-3.98-17.79.92-.26,1.55-.09,2.42.03ZM261.45,234.24c1.75,8.27,10.12-2.51,5.54-4.63-.13-.06-.23-.08-.32-.08-.03-.15-.05-.3-.1-.44-.2-.54-.72-.97-1.32-.89-.18-.12-.39-.19-.63-.17-1.43.08-2.72.92-3.45,2.15-.35.58-.57,1.29-.55,1.98.03.79.34,1.48.83,2.08Z"/>
      <path class="cls-2" d="M216.1,86.28c.14.26.29.53.42.8-.56.47-1.14.9-1.71,1.34-.23.23-.46.41-.7.55-.15.11-.3.2-.45.31-7.21,6.58-14.22,12.65-22.59,17.53-1,1.03-2.11,1.95-3.35,2.68-11.43,6.78-24.5,12.28-37.98,12.35-20.88,4.09-50.34-13.08-65.33-25.11-1.78-1.43-10.03-8.16-10.32-9.68-.21-1.05,4.5-3.94,5.64-4.53,15.25-7.87,39.99-15.04,57.29-14.3,7.36.31,8.42,2.43,13.83,5.81,5.24,3.27,12.08,5.24,19.26,5.96,5.21.59,10.46.43,15.59-.54.06.03.12.05.18.08,5-.83,9.71-2.29,13.64-4.44.92-.5.75-2.05,2.2-2.08,1.43-.03,6.34,2.79,8.68,2.41.63,2.59,1.92,4.73,3.27,6.84.06.02.11.06.17.08l2.34,3.29c-.01.22-.03.43-.08.65Z"/>
      <path d="M183.68,184.15c8.74,20.22-.21,41.1-12.54,57.67-1.69,2.29-9.06,8.49-11.73,8.97-10.56,1.89-23.88-5.99-26.71-16.35-4.58-16.72.57-54.64,17.34-63.95,3.1-1.72,7.83-2.64,11.86-1.93,4.92.1,9.55,2.2,13.52,5.24l.12-.03c1.19,1.3,2.66,2.26,3.99,3.43.19.18.39.37.58.55,1.54,2.61,3.28,5.73,3.57,6.4ZM171.49,233.26c9.7-14.75,15.1-32.26,7.45-48.61-.07-.44-.19-.86-.37-1.25-.35-1.24-.83-2.44-1.5-3.52-1.03-1.65-2.51-3.1-4.07-4.25-.09-.06-.17-.13-.25-.19-.06-.04-.13-.05-.19-.08,0,0-.01,0-.01-.01-.17-.17-.36-.27-.54-.32-2.09-1.39-4.34-2.46-6.71-3.03-.13-.07-.28-.14-.45-.2-.2-.08-.44-.09-.66-.12-.23-.02-.46,0-.7,0-.04-.01-.09,0-.14.01-.02-.01-.05-.03-.07-.04-1.71-.19-3.47-.1-5.26.34-1.83.78-4.14,1.81-4.48,2-3.06,1.72-6.17,4.81-8.1,7.74-7.14,10.81-11.62,36.25-8.76,48.73,1.9,8.31,8.42,14.63,16.86,16.2,7.56,1.41,14.32-7.87,17.95-13.4Z"/>
      <path d="M180.36,147.87c1.82,2.27,2.53,6.58,2.28,9.43-6.35,2.37-4.74-7.02-8.03-8.15-3.99-1.38-7.72,1.43-9.48,1.29-.72-.05-1.19-2.17-.46-3.15,3.22-4.35,12.26-3.67,15.69.58Z"/>
      <path class="cls-1" d="M178.94,184.65c7.65,16.35,2.25,33.86-7.45,48.61-3.63,5.53-10.39,14.81-17.95,13.4-8.44-1.57-14.96-7.89-16.86-16.2-2.86-12.48,1.62-37.92,8.76-48.73,1.93-2.93,5.04-6.02,8.1-7.74.34-.19,2.65-1.22,4.48-2,1.79-.44,3.55-.53,5.26-.34.02.01.05.03.07.04.05-.01.1-.02.14-.01.24,0,.47-.02.7,0,.22.03.46.04.66.12.17.06.32.13.45.2,2.37.57,4.62,1.64,6.71,3.03.18.05.37.15.54.32,0,.01.01.01.01.01.06.03.13.04.19.08.08.06.16.13.25.19,1.56,1.15,3.04,2.6,4.07,4.25.67,1.08,1.15,2.28,1.5,3.52.18.39.3.81.37,1.25ZM159.51,225.41c3.97-6.08,10.03-29.35,1.97-33.52-7.46-3.85-11.05,8.71-12.54,14-1.37,4.87-4.93,20.73-1.24,24.22.57.53,1.08.73,1.57.74.82.99,2.18,1.32,3.45,1.1.83-.14,1.6-.54,2.31-1.01.83-.46,1.53-1.1,2.15-1.83.44-.48.83-1,1.18-1.54.16-.25.22-.55.2-.85.3-.36.61-.78.95-1.31Z"/>
      <path d="M161.48,191.89c8.06,4.17,2,27.44-1.97,33.52-.34.53-.65.95-.95,1.31.02.3-.04.6-.2.85-.35.54-.74,1.06-1.18,1.54-.62.73-1.32,1.37-2.15,1.83-.71.47-1.48.87-2.31,1.01-1.27.22-2.63-.11-3.45-1.1-.49-.01-1-.21-1.57-.74-3.69-3.49-.13-19.35,1.24-24.22,1.49-5.29,5.08-17.85,12.54-14Z"/>
      <path d="M125.42,258.29c.54,2.03-1.48,2.01-2.28,3.05-4.97,6.45-13.02,17.53-22.22,12.77-4.11-2.12-6.77-20.3-4.28-22.39.6-.5,4.19-.34,4.65,1.05,1.03,3.15-.9,13.15.91,15.95.02.03.1.08.23.15.29.71.72,1.35,1.4,1.77.71.44,1.58.49,2.38.3.3-.07.6-.18.9-.31,6.34-.56,12.97-14.53,13.97-14.77.98-.23,4.04,1.3,4.34,2.43Z"/>
      <path d="M117.86,245.17c.95,3.14-4.89,3.58-6.05,1.56-1.76-3.08,5.11-4.7,6.05-1.56Z"/>
      <path d="M115.46,164.21c13.91,18.12,3.4,50.98-12.34,65.41-8.29,7.6-13.59,8.29-22.07.69-16.3-14.62-11.85-43.3-1.83-60.4,6.51-11.11,14.43-15.43,26.74-11.73.2-.03.4-.02.59.05,1.45.5,2.81,1.18,4.08,2.01,1.87.66,3.88,2.74,4.83,3.97ZM113.23,208.06c5.01-10.07,6.09-30.93-.83-40.09-.88-1.16-2.87-2.41-4.11-3.7-1.27-.95-2.53-1.9-3.8-2.84-.01-.01-.02-.03-.03-.04-.88-.6-1.63-1.39-3.03-1.73-5.91-1.42-8.28.61-12.03,4.6-10.96,11.66-14.77,27.94-13.48,43.64.79,9.74,8.71,27.45,20.73,21.42,4.39-2.2,14.25-16.56,16.58-21.26Z"/>
      <path class="cls-1" d="M112.4,167.97c6.92,9.16,5.84,30.02.83,40.09-2.33,4.7-12.19,19.06-16.58,21.26-12.02,6.03-19.94-11.68-20.73-21.42-1.29-15.7,2.52-31.98,13.48-43.64,3.75-3.99,6.12-6.02,12.03-4.6,1.4.34,2.15,1.13,3.03,1.73.01.01.02.03.03.04,1.27.94,2.53,1.89,3.8,2.84,1.24,1.29,3.23,2.54,4.11,3.7ZM103.28,183.71c.07-.67-1.53-5.94-1.98-6.7-2.43-4.15-7.67-1.62-10.03,1.16-4.62,5.46-7.02,25.43-5.42,32.2,1.65,7.01,8.11,2.83,10.51-1.97,2.53-5.03,6.31-19.21,6.92-24.69Z"/>
      <path d="M108.95,128.73c2,.9,7.37,6.63,3.09,7.26-5.04.74-6.82-8.27-15.21-3.18-.29.18-.28.92-.37.96-3.59,1.61-1.22-7.27,5.11-6.63.67.06,7.03,1.44,7.38,1.59Z"/>
      <path d="M101.3,177.01c.45.76,2.05,6.03,1.98,6.7-.61,5.48-4.39,19.66-6.92,24.69-2.4,4.8-8.86,8.98-10.51,1.97-1.6-6.77.8-26.74,5.42-32.2,2.36-2.78,7.6-5.31,10.03-1.16Z"/>
      <path class="cls-3" d="M81.63,346.34c.88,7.87,6.17,20.04,3.22,27.58-1.96,5.02-4.05,1.54-4.7,2.17-2.13,2.08-1.14,5.58-2.26,7.73-.63,1.21-3.55,5.91-4.34,6.83-2.04,2.33-3.89,1.93-5.74-.39-2.56-3.23-2.19-19.62-.13-23.87-1.3-.34-2.39,1.61-3.84,2.23-2.27.95-5.5-.22-5.29-2.7.36-4.17,9.29-15.91,12.58-19.24-9.89-4.06-19.71-8.04-29.24-12.86-.87-.44-2.13-.25-3.12-.81-3.44-1.94-9.59-10.67-10.45-14.63-2.51-11.55,5.29-19.08,12.92-26.31,1.26,1.14,2.55,2.26,3.85,3.35-.93.73-1.91,1.41-2.71,2.25-2.85,2.96-8,8.83-9.15,12.59-1.36,4.43,1.01,13.12,4.64,16.05,6.58,5.3,22.84,11.68,31.2,14.78,4.04,1.5,10.28,1.52,12.56,5.25Z"/>
      <path d="M45.93,294.74c-.27.24-.55.46-.84.68-1.3-1.09-2.59-2.21-3.85-3.35.2-.19.39-.37.59-.56.71.77,1.49,1.48,2.36,2.13.56.41,1.14.77,1.74,1.1Z"/>
    </g>
  </g>
</svg>