<?xml version="1.0" encoding="UTF-8"?>
<svg id="Layer_2" data-name="Layer 2" xmlns="http://www.w3.org/2000/svg" viewBox="0 0 426.86 468.29">
  <defs>
    <style>
      .cls-1 {
        fill: #fff;
      }

      .cls-2 {
        fill: #dc000c;
      }

      .cls-3 {
        fill: #003002;
      }

      .cls-4 {
        fill: #ffc500;
      }
    </style>
  </defs>
  <g id="v1">
    <g>
      <ellipse class="cls-1" cx="311.2" cy="265.31" rx="24.5" ry="38"/>
      <g>
        <path class="cls-3" d="M426,398.13c3.37,3.09-4.05,14.25-7.34,19.91-.45,1.04-.94,2.07-1.46,3.09,0,.09.01.17.05.21,5.78.03.5,6.26-1.4,8.6-5.58,6.87-14.72,11.74-22.24,16.31-2.91,1.77-3.43,3.93-8.24,2.5-1.17-.35-10.96-9.88-12.54-11.55-2.43-2.57-6.16-7.91-9.3-11.78-1.65-1.51-3.29-3.03-4.93-4.55-.15-.05-.31-.11-.46-.16-1.73-.96-3.32-2.12-4.88-3.33-.71-1.1-1.3-2.33-2.13-3.25-.25-.27-.5-.54-.74-.81-9.23-8.47-18.48-16.92-27.76-25.33-.6-.55-.87-1.16-.92-1.77-2.59,1.11-5.24,2.08-7.9,2.96-8.23,2.69-16.28,5.51-24.76,7.6-9.02,2.23-18.14,4.25-27.46,4.03.2.41.32.9.28,1.48-.55,8.51,2.83,17.15.18,25.52-2,6.29-6.86,10.11-13.37,10.99-2.94.4-5.92.5-8.9.37-.99.12-1.86.16-2.54.07-.38-.04-.74-.18-1.08-.35-6.78-.7-13.6-2.49-20.24-4.71-4.27-1.02-8.54-2.1-12.82-3.19.66,4.64.86,19.39-1.33,22.96-1.3,2.12-4.6,1.14-5.85-.98-.81-1.36-.52-3.57-1.77-4.07-.87,4.63-10.32,18.04-14.3,19.11-2.86.77-4.59-.01-4.84-3.1-.09-1.21.36-6.73.57-8.07.37-2.4,3.25-4.62,2.77-7.56-.14-.89-3.89.66-2.48-4.54,1.21-4.48,5.5-8.57,9.95-12.35,2.68-3.78,5.6-7.38,8.79-10.76l.03-.03c.18-.23.39-.43.62-.58.26-.23.56-.43.92-.58,4.3-1.74,7.44,1.72,11.02,3.57,5.07,2.62,10.95,3.49,16.5,4.46,10.57,1.84,26.04,4.32,32.11-7.18,0,0,0,0,0-.01.43-3.99-.06-9.42-.47-12.6-.28-2.2-1.43-4.29-1.33-6.58-3.4-.6-6.67.6-9.92.69-4.9.12-10.03.1-14.86.01-.16.13-.34.23-.56.26-3.55.49-7.13.67-10.71.55-.46.26-.93.47-1.48.5-13.75.91-23.9-2.94-36.63-6.01-10.23-2.47-18.09-3.37-26.13-7.25-6.82-4.39-13.39-9.11-19.53-14.41-5.51-4.76-11.08-9.51-15.97-14.92-.37-.73-.7-1.48-.97-2.25-.07-.09-.16-.17-.23-.26-36.88-45.17-14.98-125.27,16.9-167.62,1.37-1.82,6.92-6.95,7.2-8.64.25-1.55-.33-.8-1.04-1.04-6.79-2.27-18.16-6.89-20.03-14.47-.57-2.3.98-4.35,3.06-5.15.02-.03.05-.05.07-.08.38-.61,1.05-1.02,1.81-1.03,2.06-.04,3.87,2.22,5.32,3.41,2.88,2.37,6.04,4.42,9.18,6.46,6.15,2.01,14.48,3.11,18.95-1.37.07-.02.14-.03.2-.06.68-.33,1.28-.77,1.89-1.21.45-.12.85-.34,1.22-.61.55-.21,4.61-3.02,5.34-3.6.44-.34,1.89-.5.87-1.56-.34-.36-5.1-1.11-6.32-1.61-11.56-4.79-22.35-10.38-26.87-22.71-.96-2.62-1.83-11.66-3.63-12.68.02-.53-.36-1.09-.88-1.21-.99-.21-1.99-.38-2.99-.53-3.26-2.9-8.71-1.8-12.37-.26-1.09.46-2.11,1.05-3.21,1.47-1.32.51-2.68.95-3.95,1.59-2.02,1.01-3.15,2.87-4.23,4.76-8.84,6.78-13.41,18.2-19.54,27.4-6.94,10.4-14.4,19.45-19.79,31.17-1.99,4.32-9.98,25.74-9.69,29.25.27,3.21,5,10.37,6.38,14.29,2.85,8.08,4.63,17.27,3.07,25.77-1.61,8.8-8.63-.3-11.66-3.06,1.21,5.3,1.54,29.33-4.63,30.89-3.24.82-5.03-4.78-5.74-7.1-1.53-5.02-1.72-10.4-2.73-15.53-2.17,2.44-3.02,6.48-4.54,9.57-1.92,3.91-7.22,14-10.36,16.5-3.22,2.55-6.4,2.17-7.53-1.96-.69-2.49,3.38-13.92,4.71-16.7.56-1.18,1.7-1.73,2.18-2.64.47-.9,4.16-7.89,3.84-8.21-7.3,2.56-16.46,6.7-24.4,5.46-6.35-.99-1.41-6.74,1.53-10.31.15-.88.68-1.69,1.7-2.26,3.27-5.11,3.69-7.05,8.76-11.87,1.07-1.01,3.18-.95,1.62-2.47-1.37-.13-2.75-.34-4.05-.72-1.06-.31-2.03-.9-2.42-1.98-.4-1.09-.03-2.2.49-3.18,1.26-2.35,3.35-3.96,5.62-5.25,6.27-6.54,12.86-7.5,22.21-10.42,8.72-2.73,8.73-4.37,12.62-12.17,12.96-26.07,26-58.47,47.93-78.08,2.3-2.06,11.42-9.6,13.83-10.28.92-.26,8.6-1.78,9.23-1.79,2.53-.04,7.57,1.33,12.98,3.23.15.29.41.52.74.64,3.81,1.33,7.47,3.06,11.36,4.14.03.06.06.12.09.17,3.04,1.43,5.54,2.81,6.89,3.88,1.26,1,8.88,10.36,13.43,16.29,6.63,3.31,14.12,5.01,22,4.83-2.58-4.35-7.11-10.81-7.91-12.15-5.2-8.64-9.74-17.57-15.28-26.04-1.47-2.27-8.62-10.18-7.81-12.16.94-2.33,5.28-2.06,7.75-3.28,2.36-1.15,2.99-5.63,7.08-4.32.01.95-.12,1.99.17,2.92,1.28,4.18,5.99,8.51,8.65,12.71,4.41,6.95,10.88,18.27,14.27,25.66,1.55,3.37,2.57,7.51,3.78,11.04l2.79-8.55c-.07-11.99.45-23.87-1.58-35.7-.48-2.81-3.89-7.78,2.42-5.87,1.86.57,6.1,10.53,7.01,12.96,3.45,9.22,5.48,19,5.19,28.91,2.49.63,1.96-1.29,3.45-2.4,8.45-6.33,19.25-7.09,29.29-9.27,1.19-.67,8.04-12.79,8.73-14.69,1.73-4.85-.4-10.52,6.39-10.84,1.44-.07.88-.01,1.03,1.02.97,6.65-.38,15.73-1.38,22.4,15.4.93,30.92,2.21,46.34,3.15,14.91,4.94,31.5,6.61,46.54,2.98,8.38.16,16.37-.68,22.78-3.75,3.07-1.47,9.51-11.18,10.2-14.58,1.12-5.45.75-24.46-.61-30.07-.99-4.07-6.53-12.54-10.12-14.66-1.78-1.05-3.5-.99-5.3-2.28-3.3-2.35-9.75-14.95-10.62-19-.61-2.85-.94-8.44.7-10.92.59-.88,2.04-.97,2.04-1.44-.03-.65-2.14-4.19-2.59-5.69-1.17-3.88-2.41-8.09.47-11.52,2.26-2.68,5.41-3,8.53-1.61,3.08,1.38,4.75,5.58,8.01,6.78.61-3.63-.43-10.74.75-13.92.24-.64.86-.62,1-.84,6.81-10.28,12.51,3.18,13.93,9.76.49,2.24-.16,4.78.86,7.07,5.71-8.07,17.71-12.1,16.45,2.33-.18,2.08-1.66,7.93-2.36,10.05-.82,2.5-2.5,4.43-3.08,6.9,15.59-5.93,13.79,5.88,7.71,15.63-3.15,5.06-9.61,11.16-14.43,14.65-1.45,1.05-7.48,3.81-7.74,4.16-.22.31,1.84,5.52,2.06,7.23.86,6.74,2.09,22.55,1.38,28.92-.46,4.18-4.78,13.51-8.33,15.77-2.48,1.58-10.87,3.72-14.12,4.47-19.78,4.64-41.07,5.41-61.16,2.77-.32-.04-.65-.09-.97-.14h-.6c-.63,0-1.19-.12-1.68-.34-9.32-1.5-19.42-4.11-28.57-4.88-6.21-.53-12.21.49-18.4-1.41l-7.05,12.27-6.48,6.95c6.36.41,13.34-.56,19.62.01,4.53.41,9.74,2.83,13.84,3.38,1.23.16,4.83.28,8.62.49,7.77-.15,15.53.43,23.21,1.68.38.06.65.25.83.51,8.87,1.25,20.48,4.48,26.36,7.84,26.04,14.86,44.21,38.69,57.31,65.27,17.62,35.74,12.02,91.36-13.15,122.54-8.73,10.82-31.4,27.47-44.37,32.07-3.48,1.23-7.42,1.65-10.97,2.89,18.79,15.23,35.81,32.41,50.93,51.25,1.66,1.54,3.33,3.07,4.99,4.62.04-.22.09-.42.15-.58,1.57-3.99,3.79-7.81,5.52-11.7,1.88-4.27,2.58-10.42,6.61-12.69.79-.45,2.09-.19,2.53-.55.25-.2.64-2.22,1.31-3.12,1.29-1.74,4.95-4.9,7.15-3.31,2.16,1.55-.85,7.17-.39,9.34,1.69-2.43,2.18-5.53,3.52-8.19,1.83-3.63,8.17-14.09,13.15-9.52ZM373.63,352.93c27.09-25.75,34.19-66.77,28.99-102.53-3.37-23.11-24.98-56.93-42.89-72.12-15.77-13.37-24.5-18.15-44.91-22.56-.95-.21-5.59-.72-8.14-1.15-1.45-.03-2.91-.06-4.36-.09-.03-.01-.06-.03-.09-.04-.92-.27-1.81-.06-2.71.15-1.45-.11-2.93-.09-4.34-.1-.51-.16-1.02-.28-1.53-.33-1.6-.15-3.8-.17-5.73-.11-1.24-.18-2.48-.38-3.72-.61-2.61-.47-5.11-1.22-7.67-1.89-1.6-.41-3.21-.85-4.88-.91h-.3c-2.54-.31-5.78-.62-6.66-.63-20.48-.34-41.07,2.82-61.08,7.08-2.47.53-5.67,2.12-7.78,2.55-1.42.28-4.27-.36-5.04.13-.5.32-1.81,6.59-2.57,8.1-4.65,9.21-21.46,18.45-31.62,18.02-2.98-.12-7.68-2.83-9.96-1.79-.66.31-8.57,9.61-9.66,11.04-13.09,17.23-21.89,36.01-27.73,56.96-10.26,36.77-11.98,73.56,11.25,102.85.17.12.33.28.46.5.05.09.11.18.17.28,2.85,3.51,6.04,6.92,9.65,10.19,5.39,4.9,11.6,10.91,16.89,15.47,12.81,11.03,49.38,17.41,66.12,17.26,28.44-.25,57.53-.76,85.16-9.18,25.58-7.79,55.24-18.06,74.68-36.54ZM158.44,140.49c.19-.37.23-.8,0-1.15-.98-1.41-2.25-2.41-3.69-3.33-.7-.45-1.39-.92-2.07-1.38-3.13-2.94-6.39-5.72-10.15-7.78-.06-.03-.11-.06-.17-.09s-.12-.07-.18-.11c-.27-.14-.54-.16-.78-.12,2.12,2.8,4.45,5.43,6.97,7.87,3.17,2.31,6.54,4.35,10.08,6.09Z"/>
        <path class="cls-2" d="M402.62,250.4c5.2,35.76-1.9,76.78-28.99,102.53-19.44,18.48-49.1,28.75-74.68,36.54-27.63,8.42-56.72,8.93-85.16,9.18-16.74.15-53.31-6.23-66.12-17.26-5.29-4.56-11.5-10.57-16.89-15.47-3.61-3.27-6.8-6.68-9.65-10.19-.06-.1-.12-.19-.17-.28-.13-.22-.29-.38-.46-.5-23.23-29.29-21.51-66.08-11.25-102.85,5.84-20.95,14.64-39.73,27.73-56.96,1.09-1.43,9-10.73,9.66-11.04,2.28-1.04,6.98,1.67,9.96,1.79,10.16.43,26.97-8.81,31.62-18.02.76-1.51,2.07-7.78,2.57-8.1.77-.49,3.62.15,5.04-.13,2.11-.43,5.31-2.02,7.78-2.55,20.01-4.26,40.6-7.42,61.08-7.08.88.01,4.12.32,6.66.63h.3c1.67.06,3.28.5,4.88.91,2.56.67,5.06,1.42,7.67,1.89,1.24.23,2.48.43,3.72.61,1.93-.06,4.13-.04,5.73.11.51.05,1.02.17,1.53.33,1.41.01,2.89-.01,4.34.1.9-.21,1.79-.42,2.71-.15.03,0,.06.03.09.04,1.45.03,2.91.06,4.36.09,2.55.43,7.19.94,8.14,1.15,20.41,4.41,29.14,9.19,44.91,22.56,17.91,15.19,39.52,49.01,42.89,72.12ZM388.97,281.79c3.74-7.24,3.04-26.94,1.62-35.22-1.21-7.06-3.58-18.48-9.11-23.26-7.47-6.45-10.38-.34-14.23,5.08-.19.27-.43.5-.68.7-.08.92-.15,1.84-.04,2.75.12,1.01.67,2.18,1.05,3.22.03.07.02.15.03.23,3.43,5.34,6.28,19.3,6.62,24.19.38,5.57-1.52,22.61,2.39,25.84,4.32,3.56,10.06.9,12.35-3.53ZM379.4,313.53c10.74-1.16,9.02-16.35-1.56-17.76-.87-.12-1.5-.29-2.42-.03-5.41,1.57-10.17,19.31,3.98,17.79ZM326.03,300.17c16.3-14.62,11.85-43.3,1.83-60.4-6.51-11.11-14.43-15.44-26.74-11.73-.2-.03-.4-.02-.59.05-1.45.5-2.81,1.18-4.08,2.01-1.87.65-3.88,2.73-4.83,3.97-13.91,18.12-3.4,50.97,12.34,65.41,8.29,7.6,13.59,8.29,22.07.69ZM310.62,203.63c3.59,1.61,1.22-7.27-5.11-6.64-.67.07-7.04,1.45-7.38,1.6-2,.9-7.37,6.63-3.09,7.26,5.04.74,6.82-8.27,15.21-3.18.29.18.28.92.37.96ZM306.16,343.97c4.11-2.12,6.77-20.3,4.28-22.39-.6-.51-4.19-.34-4.65,1.05-1.03,3.15.9,13.14-.92,15.95-.01.03-.09.08-.22.15-.29.71-.73,1.35-1.4,1.77-.71.44-1.58.49-2.38.3-.31-.07-.61-.18-.9-.31-6.34-.57-12.97-14.53-13.97-14.77-.98-.23-4.04,1.3-4.34,2.43-.54,2.03,1.48,2.01,2.28,3.05,4.97,6.44,13.02,17.53,22.22,12.77ZM295.27,316.59c1.76-3.08-5.11-4.71-6.06-1.56-.94,3.14,4.9,3.58,6.06,1.56ZM274.38,304.3c4.58-16.73-.57-54.64-17.34-63.95-3.1-1.72-7.83-2.64-11.86-1.93-4.92.1-9.55,2.2-13.52,5.24-.04-.02-.08-.02-.12-.03-1.19,1.3-2.66,2.25-3.99,3.43-.2.18-.39.37-.58.55-1.54,2.61-3.28,5.73-3.57,6.4-8.74,20.21.21,41.1,12.54,57.67,1.69,2.29,9.06,8.49,11.73,8.97,10.56,1.89,23.88-5.99,26.71-16.35ZM241.95,220.3c.72-.06,1.19-2.17.46-3.15-3.22-4.35-12.26-3.67-15.69.58-1.82,2.27-2.53,6.58-2.28,9.43,6.35,2.36,4.74-7.03,8.03-8.16,3.99-1.37,7.72,1.44,9.48,1.3Z"/>
        <path d="M390.59,246.57c1.42,8.28,2.12,27.98-1.62,35.22-2.29,4.43-8.03,7.09-12.35,3.53-3.91-3.23-2.01-20.27-2.39-25.84-.34-4.89-3.19-18.85-6.62-24.19,0-.08,0-.16-.03-.23-.38-1.04-.93-2.21-1.05-3.22-.11-.91-.04-1.83.04-2.75.25-.2.49-.43.68-.7,3.85-5.42,6.76-11.53,14.23-5.08,5.53,4.78,7.9,16.2,9.11,23.26ZM386.57,270.44c1.04-8.67-1.08-34.31-6.14-41.26-.57-.78-3.62-3.95-4.41-3.77-.52,1.33-3.9,3.48-4.2,4.09-1.72,3.49,3.53,11.85,4.67,16.01,2.48,9.01,2.47,19.38,2.63,28.5.04,2.78.77,5.41-.06,8.53.24.25,4.16-.41,4.65-.85.43-.38,2.71-9.98,2.86-11.25Z"/>
        <path class="cls-4" d="M380.43,229.18c5.06,6.95,7.18,32.59,6.14,41.26-.15,1.27-2.43,10.87-2.86,11.25-.49.44-4.41,1.1-4.65.85.83-3.12.1-5.75.06-8.53-.16-9.12-.15-19.49-2.63-28.5-1.14-4.16-6.39-12.52-4.67-16.01.3-.61,3.68-2.76,4.2-4.09.79-.18,3.84,2.99,4.41,3.77Z"/>
        <path class="cls-4" d="M380.77,301.83c4.58,2.12-3.79,12.9-5.54,4.63-.49-.6-.8-1.29-.83-2.08-.02-.69.2-1.4.55-1.98.73-1.23,2.02-2.07,3.45-2.15.24-.02.45.05.63.17.6-.08,1.12.35,1.32.89.05.14.07.29.1.44.09,0,.19.02.32.08Z"/>
        <path d="M377.84,295.77c10.58,1.41,12.3,16.6,1.56,17.76-14.15,1.52-9.39-16.22-3.98-17.79.92-.26,1.55-.09,2.42.03ZM375.23,306.46c1.75,8.27,10.12-2.51,5.54-4.63-.13-.06-.23-.08-.32-.08-.03-.15-.05-.3-.1-.44-.2-.54-.72-.97-1.32-.89-.18-.12-.39-.19-.63-.17-1.43.08-2.72.92-3.45,2.15-.35.58-.57,1.29-.55,1.98.03.79.34,1.48.83,2.08Z"/>
        <path d="M327.86,239.77c10.02,17.1,14.47,45.78-1.83,60.4-8.48,7.6-13.78,6.91-22.07-.69-15.74-14.44-26.25-47.29-12.34-65.41.95-1.24,2.96-3.32,4.83-3.97,1.27-.83,2.63-1.51,4.08-2.01.19-.07.39-.08.59-.05,12.31-3.71,20.23.62,26.74,11.73ZM331.16,277.76c1.29-15.7-2.52-31.99-13.48-43.65-3.75-3.98-6.12-6.01-12.03-4.59-1.4.34-2.15,1.13-3.03,1.73l-.03.03c-1.27.95-2.53,1.9-3.8,2.85-1.24,1.29-3.23,2.54-4.11,3.7-6.92,9.16-5.84,30.02-.83,40.08,2.33,4.71,12.19,19.07,16.58,21.27,12.02,6.02,19.94-11.69,20.73-21.42Z"/>
        <path d="M315.81,248.03c4.62,5.45,7.02,25.43,5.42,32.2-1.65,7.01-8.11,2.82-10.51-1.97-2.53-5.04-6.31-19.21-6.92-24.7-.07-.67,1.53-5.93,1.98-6.69,2.43-4.15,7.67-1.62,10.03,1.16Z"/>
        <path d="M305.51,196.99c6.33-.63,8.7,8.25,5.11,6.64-.09-.04-.08-.78-.37-.96-8.39-5.09-10.17,3.92-15.21,3.18-4.28-.63,1.09-6.36,3.09-7.26.34-.15,6.71-1.53,7.38-1.6Z"/>
        <path d="M310.44,321.58c2.49,2.09-.17,20.27-4.28,22.39-9.2,4.76-17.25-6.33-22.22-12.77-.8-1.04-2.82-1.02-2.28-3.05.3-1.13,3.36-2.66,4.34-2.43,1,.24,7.63,14.2,13.97,14.77.29.13.59.24.9.31.8.19,1.67.14,2.38-.3.67-.42,1.11-1.06,1.4-1.77.13-.07.21-.12.22-.15,1.82-2.81-.11-12.8.92-15.95.46-1.39,4.05-1.56,4.65-1.05Z"/>
        <path d="M289.21,315.03c.95-3.15,7.82-1.52,6.06,1.56-1.16,2.02-7,1.58-6.06-1.56Z"/>
        <path d="M257.04,240.35c16.77,9.31,21.92,47.22,17.34,63.95-2.83,10.36-16.15,18.24-26.71,16.35-2.67-.48-10.04-6.68-11.73-8.97-12.33-16.57-21.28-37.46-12.54-57.67.29-.67,2.03-3.79,3.57-6.4.19-.18.38-.37.58-.55,1.33-1.18,2.8-2.13,3.99-3.43.04.01.08.01.12.03,3.97-3.04,8.6-5.14,13.52-5.24,4.03-.71,8.76.21,11.86,1.93ZM270.4,300.32c2.86-12.49-1.62-37.92-8.76-48.73-1.93-2.93-5.04-6.02-8.1-7.74-.34-.19-2.65-1.22-4.48-2-1.79-.44-3.55-.53-5.26-.34-.03.01-.05.03-.07.04-.05-.01-.1-.02-.14-.02-.24,0-.47,0-.71.01-.21.02-.45.04-.65.12-.17.06-.32.12-.45.2-2.37.57-4.62,1.64-6.71,3.03-.18.05-.37.15-.54.32,0,.01-.01.01-.01.01-.06.03-.13.04-.19.08-.08.06-.16.13-.25.19-1.56,1.15-3.04,2.6-4.07,4.25-.67,1.08-1.15,2.28-1.5,3.51-.19.4-.3.82-.37,1.26-7.65,16.35-2.25,33.86,7.45,48.61,3.63,5.53,10.39,14.8,17.95,13.4,8.44-1.57,14.96-7.89,16.86-16.2Z"/>
        <path class="cls-1" d="M261.64,251.59c7.14,10.81,11.62,36.24,8.76,48.73-1.9,8.31-8.42,14.63-16.86,16.2-7.56,1.4-14.32-7.87-17.95-13.4-9.7-14.75-15.1-32.26-7.45-48.61.07-.44.18-.86.37-1.26.35-1.23.83-2.43,1.5-3.51,1.03-1.65,2.51-3.1,4.07-4.25.09-.06.17-.13.25-.19.06-.04.13-.05.19-.08,0,0,.01,0,.01-.01.17-.17.36-.27.54-.32,2.09-1.39,4.34-2.46,6.71-3.03.13-.08.28-.14.45-.2.2-.08.44-.1.65-.12.24-.02.47-.01.71-.01.04,0,.09.01.14.02.02-.01.04-.03.07-.04,1.71-.19,3.47-.1,5.26.34,1.83.78,4.14,1.81,4.48,2,3.06,1.72,6.17,4.81,8.1,7.74ZM259.38,299.97c3.69-3.49.13-19.36-1.24-24.22-1.49-5.29-5.08-17.86-12.54-14-8.06,4.17-2,27.44,1.97,33.52.34.53.65.95.95,1.31-.02.29.04.59.2.85.35.54.74,1.06,1.18,1.54.62.73,1.32,1.37,2.15,1.83.71.47,1.48.87,2.31,1.01,1.27.22,2.63-.11,3.45-1.1.49-.01,1-.21,1.57-.74Z"/>
        <path d="M258.14,275.75c1.37,4.86,4.93,20.73,1.24,24.22-.57.53-1.08.73-1.57.74-.82.99-2.18,1.32-3.45,1.1-.83-.14-1.6-.54-2.31-1.01-.83-.46-1.53-1.1-2.15-1.83-.44-.48-.83-1-1.18-1.54-.16-.26-.22-.56-.2-.85-.3-.36-.61-.78-.95-1.31-3.97-6.08-10.03-29.35-1.97-33.52,7.46-3.86,11.05,8.71,12.54,14Z"/>
        <path d="M242.41,217.15c.73.98.26,3.09-.46,3.15-1.76.14-5.49-2.67-9.48-1.3-3.29,1.13-1.68,10.52-8.03,8.16-.25-2.85.46-7.16,2.28-9.43,3.43-4.25,12.47-4.93,15.69-.58Z"/>
      </g>
    </g>
  </g>
</svg>