<?xml version="1.0" encoding="UTF-8"?>
<svg id="Layer_2" data-name="Layer 2" xmlns="http://www.w3.org/2000/svg" viewBox="0 0 395.1 416.27">
  <defs>
    <style>
      .cls-1 {
        fill: #fff;
      }

      .cls-2 {
        fill: #dc000c;
      }

      .cls-3 {
        fill: #003002;
      }

      .cls-4 {
        fill: #ffc500;
      }
    </style>
  </defs>
  <g id="v1">
    <g>
      <path class="cls-3" d="M394.75,196.64c1.23,20.52-.4,39.84-10.87,57.97-8.43,14.61-18.25,26.87-30.02,37.46-.2-.19-.39-.37-.59-.56-.7.76-1.48,1.48-2.36,2.13-.55.41-1.14.76-1.74,1.09.27.24.56.47.85.69-6.09,5.12-12.69,9.85-19.86,14.26-3.2,1.96-6.6,3.72-10.04,5.31-2.85.74-5.36,2.2-7.39,4.18l-20.98,7.06c-.02.06-.06.12-.09.18-.02.01-.04.01-.06.02t-.05.02c-.06.03-.13.05-.2.08-.15.06-.3.11-.45.17-.29.1-.58.19-.87.28-.61.18-1.22.34-1.84.47-1.22.28-2.46.48-3.71.65-.4.05-.67.37-.79.75-.28.12-.57.23-.86.31-2.69.76-5.74,1.23-8.77,1.69-4.82,1.16-9.6,2.46-14.3,4.03-4.86,1.62-9.64,3.49-14.57,4.92-5.05,1.46-10.22,2.29-15.47,2.57-5.93.32-11.87.01-17.8-.29-.17,0-.32-.04-.46-.08h-5.65c3.56,7.86,6.76,15.85,9.6,24l22.25,42.13c1.82.81,2.23-2.37,3.01-3.4,2.58-3.43,5.74-6.51,8.44-9.8,2.95-3.61,5.27-9.35,9.76-10.46.88-.22,2.06.37,2.58.14.29-.12,1.21-1.97,2.1-2.66,1.71-1.33,6.08-3.39,7.78-1.28,1.66,2.07-2.74,6.69-2.88,8.9,2.28-1.89,3.58-4.74,5.58-6.95,2.74-3.01,11.64-11.39,15.22-5.66,3.18,5.1-15.36,18.68-14.63,20.03,5.56,1.57-1.2,6.17-3.65,7.91-7.22,5.13-17.33,7.38-25.79,9.78-2.35.67-3.58,1.85-5.65,1.48-4.28.62-6.91-1.49-9.32-4.95-3.65-5.25-6.68-10.98-9.47-16.71-5.77-11.9-10.56-24.28-15.62-36.49-.17-.41-.23-.78-.23-1.13-2.83-5.36-5.8-10.64-9.03-15.75-3.4-.34-6.73-.94-9.97-1.96-20.83-3.52-41.73-11.87-58.22-23.5-15.99-11.28-35.01-34.42-41.05-53.29-8.88-27.73-8.81-63.3-5.17-91.91,2.18-17.15,16.26-40.8,26.17-55.08.86-1.24,5.21-5.87,8.02-9.53,1.28-.51,2.14-1.93,2.19-3.37.25-.57.31-1,.11-1.22-.03-.03-.15-.04-.3-.06-.15-.43-.39-.84-.73-1.19-.12-.11-.23-.22-.34-.34-.69-.68-1.46-.98-2.22-1-4.23-2.13-6.88-6.89-9.48-10.63-1.14-1.65-2.08-3.34-2.71-5.06,0-.09-.03-.17-.04-.26-.08-.2-.16-.4-.25-.6-.62-2.09-.75-4.24-.13-6.43.15-.09.31-.15.48-.2.08-.02.15-.02.22-.04,1.49,2.18,3.04,4.3,4.85,6.22.64,1.1,1.36,2.15,2.15,3.14.53.02,1.05.06,1.51.18,2.56,2,5.36,3.63,8.28,5.1.08.03.14.05.21.08,1.35.87,2.64,1.62,3.73,2.06.88.34,1.68.87,2.69.8,6.75-2.62,12.48-8.11,19.16-11.18,1.58-.73,5.08-1.09,5.29-1.26,1.56-1.3-5.1-2.89-5.49-3.14-1.03-.63-1.12-1.82-1.92-2.38-5.98-4.25-14.29-11.12-15.24-19-.52-4.3,0-12.18,5.97-9.4,11.23,11.59,26.99,20.23,43.53,18.08-1.68-2.98-3.29-6.12-5.08-9.03-3.78-6.16-11.5-15.56-15.87-22.88-10.42,1.18-20.9,4.6-32.78,10.29-16.03,7.68-31.94,21.8-44.03,34.82-3.57,3.85-14.1,15.24-16.23,19.1-1.3,2.37-1.12,5.7-2.37,7.77-.81,1.36-4.95,3.99-5.52,5.59-.47,1.29,1.17,3.81,1.42,5.57,1.13,7.85,2.51,24.51.09,31.68-1.52,4.52-6.08,8.24-8.56,2.22l-2.67-7.62c-1.21,4.06-.94,8.45-1.82,12.58-.58,2.73-3.17,11.32-4.65,13.37-4.11,5.68-7.52.11-7.78-4.7-.17-3.06.89-6.8.84-9.95-1.93-.53-1.15.42-1.68,1.36-2.62,4.65-9.42,16.2-12.84,19.56-3.15,3.09-11.26,5.73-10.71-1.29,1.56-11.03,10.5-18.95,16.27-27.99-.65-.71-8.77,4.24-10.54,4.48-1.2.17-7.78.33-8.86.14-11.37-1.93,6.11-14.55,10.01-16.14-13.31-.95-9.68-6.39-.93-10.93,10.81-5.6,27.93-7.67,36.02-16.18,11.56-12.16,21.5-26.23,33.39-38.23,19.22-19.4,44.48-36.11,71.65-39.89-.07-.16-.16-.34-.22-.5-.86-2.22-1.39-4.72-1.17-6.87-.93-1.29-.24-3.43,1.39-3.89,2.08-.58,4.15-1.16,6.23-1.74,1.03-.29,2.07-.58,3.11-.87,1.13-.31,2.27-.71,3.44-.37,1.24.37,1.89,1.42,2.46,2.48.5.94,1,1.87,1.5,2.81l3.1,5.76c.2.38.29.79.3,1.2.23.6.46,1.19.71,1.77,4.14.51,8.29,1.33,12.45,2.55,6.03,1.77,14.02,4.88,22.28,8.77.77-1.81,1.48-3.64,2.04-5.48.83-2.79,2.54-14.29,4.16-15.13,3.49-1.8,6.64,6.23,7.61,8.95,1.77,4.9,2.94,12.83,2.63,20.36,6.92,4.12,13.16,8.57,17.61,12.96,4.8-3.54,8.27-8.59,11.68-14.44,1.3-2.22,1.99-5.26,3.36-7.66,1.18-2.06,3.21-5.74,5.64-5.36,2.39.37,3.67,4.13,3.52,6.24-.47,6.45-5.78,19.69-10.72,24.07,13.46.85,28.32,1.92,41.33,5.85,8.41,2.54,17.69,8.84,25.7,12.63,1.96.05,3.4-4.14,4.63-5.54,1.28-1.46,7.98-7.58,8.14-8.55-2.16-6.35-4.95-12.79-6.77-19.23-.92-3.26-3.06-10.94-3.34-13.93-.6-6.44,3.7-4.08,4.68-4.97.37-.33-2.06-5.83.38-9.61,2.61-4.05,8.37-2.35,9.63,2.01l4.44,11.04c-.9-7.46-1.06-26.49,4.13-32.03,1.3-1.39,2.94-1.88,4.83-1.71.45,3.31.89,7.78,1.85,10.9.74,2.39,3.27,5,3.55,6.84.19,1.22-.72,3.48-.57,3.61,1.03.88,3.32-1.95,4.59-2.62,1.88-.98,5.41-2.57,7.43-2.22,3.56.61.32,3.29-.35,5.16-1.2,3.32-1.76,7.04-3.51,10.26l-8.85,15.59c4.69-2.57,11.58-4.79,16.9-4.85.77,0,6.12.64,6.4.81,2.98,1.86-2.67,5.16-3.64,6.15-.85.88-.81,2.23-2.19,3.31-5.27,4.13-16.78,6.28-22.94,9.43-8.77,6.5-16.26,13.81-22.58,22.69.27,1.76,13.85,10.95,16.35,13.06,31.09,26.39,45.08,58.05,47.49,98.49ZM364.82,274.11c24.7-29.5,28.61-57.13,22.99-94.63-5.54-36.97-23.19-63.46-53.32-84.4-2.23-1.55-4.8-5.7-7.24-5.24-2.53.47-7.8,6.28-10.36,8.26-18.32,14.13-46.67,31.6-70.53,29.33-26.62-2.52-47.29-14.15-68.19-29.62-1.04-.77-2.1-3.05-3.62-3.9-.54-.3-.96-.52-1.31-.68-.63.8-1.33,1.54-2.09,2.18-.28.23-.56.45-.84.66-10.87,11.64-25.54,13.83-40.65,10.22-2.35-.57-4.66-3.16-7.1-1.62-.34.21-4.61,5.09-5.29,5.91-8.73,10.53-26.98,41.08-30.01,54-1.42,6.03-2.45,17.9-3.05,24.49-2.17,23.8.84,69.6,15.25,89.39,4.92,6.75,15.57,21.56,21.48,26.37,18.68,15.2,38.63,24.26,60.76,28.73.78-.59,1.84-.6,2.79-.18,1.26.56,2.56,1.01,3.88,1.38,4.92.78,9.95,1.34,15.09,1.71.4-.24.89-.34,1.47-.19.45.12.91.22,1.36.32,2.29.03,4.57.04,6.85.05,1.48,0,2.97,0,4.45,0,2.57-.13,5.17-.25,7.66-.2,6.14-.28,12.26-.93,18.26-2.34,4.7-1.1,9.26-2.64,13.58-4.77.01-.01.03-.03.04-.05.03,0,.06-.01.09-.01.07-.04.15-.08.22-.12,1.3-.15,2.59-.34,3.87-.6.14-.02.26-.08.37-.16,6.38-1.24,12.83-2.46,19.07-4.08,33.08-8.6,61.88-23.71,84.07-50.21ZM321.02,87.04c.2-1.04-4.5-3.94-5.64-4.52-15.25-7.88-39.99-15.04-57.29-14.31-7.36.31-8.43,2.43-13.84,5.81-5.23,3.28-12.08,5.25-19.25,5.97-5.21.59-10.46.43-15.59-.55-.07.03-.13.05-.19.08-4.99-.83-9.7-2.29-13.63-4.43-.92-.5-.76-2.05-2.21-2.08-1.42-.04-6.34,2.79-8.67,2.4-.64,2.6-1.93,4.73-3.27,6.84-.06.02-.12.06-.17.09l-2.34,3.28c0,.22.03.44.08.65-.14.27-.29.53-.42.8.55.47,1.13.91,1.71,1.35.22.22.46.4.7.55.14.1.3.2.44.3,7.21,6.58,14.22,12.66,22.6,17.54,1,1.03,2.11,1.95,3.35,2.68,11.42,6.78,24.49,12.28,37.97,12.34,20.88,4.1,50.35-13.07,65.34-25.1,1.78-1.43,10.02-8.17,10.32-9.69ZM239.82,63.51c-3.82-3.58-9.77-6.94-14.32-10.18-.7,4.92-2.2,9.28-4.78,11.96-.28.28-2.07.52-.19,1.21,2.04.74,9.45-.07,11.89-.53,2.78-.53,5.21-1.37,7.4-2.46ZM207.69,43.58c.02-.05.05-.1.07-.15-.41-.09-.83-.18-1.25-.26-3-1.66-6.94-3.54-7.57-3.77-7.77-2.84-14.89-4.81-21.69-5.92,5.31,10.17,12.55,19.5,13.68,31.29.97.99,5.92-3.57,6.85-4.68.81-.97,3.69-5.16,5.45-8.2.33-.18.62-.43.8-.76,1.34-2.41,2.97-4.84,3.66-7.55ZM149.4,89.68c1.18-.47,11.96-6.54,10.54-7.69-1.62.26-3.48.91-5,1.52-4.25,1.72-9.27,3.54-13.52,5.77-1.55.82-4.14,2.58-5.58,3.71,4.3-.61,9.48-1.7,13.56-3.31ZM17.55,159.11l-3.08,4.08c-.5,1.56-1.34,3.01-2.04,4.5,1.85-2.78,3.56-5.65,5.12-8.58Z"/>
      <path class="cls-2" d="M387.81,179.48c5.62,37.5,1.71,65.13-22.99,94.63-22.19,26.5-50.99,41.61-84.07,50.21-6.24,1.62-12.69,2.84-19.07,4.08-.11.08-.23.14-.37.16-1.28.26-2.57.45-3.87.6-.07.04-.15.08-.22.12-.03,0-.06.01-.09.01-.01.02-.03.04-.04.05-4.32,2.13-8.88,3.67-13.58,4.77-6,1.41-12.12,2.06-18.26,2.34-2.49-.05-5.09.07-7.66.2-1.48,0-2.97,0-4.45,0-2.28-.01-4.56-.02-6.85-.05-.45-.1-.91-.2-1.36-.32-.58-.15-1.07-.05-1.47.19-5.14-.37-10.17-.93-15.09-1.71-1.32-.37-2.62-.82-3.88-1.38-.95-.42-2.01-.41-2.79.18-22.13-4.47-42.08-13.53-60.76-28.73-5.91-4.81-16.56-19.62-21.48-26.37-14.41-19.79-17.42-65.59-15.25-89.39.6-6.59,1.63-18.46,3.05-24.49,3.03-12.92,21.28-43.47,30.01-54,.68-.82,4.95-5.7,5.29-5.91,2.44-1.54,4.75,1.05,7.1,1.62,15.11,3.61,29.78,1.42,40.65-10.22.28-.21.56-.43.84-.66.76-.64,1.46-1.38,2.09-2.18.35.16.77.38,1.31.68,1.52.85,2.58,3.13,3.62,3.9,20.9,15.47,41.57,27.1,68.19,29.62,23.86,2.27,52.21-15.2,70.53-29.33,2.56-1.98,7.83-7.79,10.36-8.26,2.44-.46,5.01,3.69,7.24,5.24,30.13,20.94,47.78,47.43,53.32,84.4ZM374.19,211.48c3.74-7.24,3.04-26.94,1.62-35.22-1.21-7.06-3.58-18.48-9.11-23.26-7.47-6.45-10.38-.34-14.23,5.08-.19.27-.43.5-.68.7-.08.92-.15,1.84-.04,2.75.12,1.01.67,2.18,1.05,3.22.03.07.02.15.03.23,3.43,5.34,6.28,19.3,6.62,24.19.38,5.57-1.52,22.61,2.39,25.84,4.32,3.56,10.06.9,12.35-3.53ZM364.62,243.22c10.74-1.16,9.02-16.35-1.56-17.76-.87-.12-1.5-.29-2.42-.03-5.41,1.57-10.17,19.31,3.98,17.79ZM314.05,230.31c16.31-14.62,11.86-43.31,1.84-60.41-6.51-11.11-14.44-15.43-26.74-11.73-.2-.02-.4-.01-.59.05-1.45.5-2.81,1.19-4.09,2.01-1.86.66-3.87,2.74-4.82,3.98-13.91,18.12-3.4,50.97,12.33,65.41,8.29,7.6,13.6,8.29,22.07.69ZM298.64,133.76c3.59,1.62,1.23-7.26-5.1-6.63-.67.07-7.04,1.44-7.38,1.6-2,.9-7.37,6.63-3.09,7.25,5.04.74,6.82-8.27,15.21-3.17.29.17.27.91.36.95ZM294.19,274.11c4.1-2.13,6.76-20.31,4.28-22.4-.6-.5-4.2-.34-4.65,1.05-1.04,3.16.9,13.15-.92,15.96-.02.02-.1.08-.22.15-.3.71-.73,1.35-1.4,1.76-.71.44-1.58.49-2.38.31-.31-.07-.61-.18-.9-.32-6.34-.56-12.97-14.52-13.97-14.76-.99-.24-4.05,1.29-4.34,2.42-.54,2.04,1.48,2.02,2.28,3.06,4.96,6.44,13.02,17.52,22.22,12.77ZM283.29,246.72c1.77-3.08-5.11-4.7-6.05-1.56-.94,3.15,4.89,3.59,6.05,1.56ZM262.41,234.44c4.58-16.73-.58-54.65-17.34-63.95-3.11-1.73-7.83-2.65-11.86-1.93-4.93.1-9.55,2.2-13.52,5.23-.04-.01-.08-.01-.12-.02-1.19,1.29-2.66,2.25-3.99,3.43-.2.17-.39.37-.59.55-1.53,2.61-3.27,5.72-3.56,6.4-8.74,20.21.21,41.1,12.53,57.67,1.7,2.28,9.07,8.49,11.73,8.96,10.57,1.9,23.88-5.98,26.72-16.34ZM229.97,150.44c.73-.06,1.19-2.17.47-3.15-3.23-4.35-12.27-3.68-15.69.58-1.83,2.26-2.54,6.58-2.29,9.43,6.36,2.36,4.74-7.03,8.03-8.16,4-1.37,7.73,1.44,9.48,1.3Z"/>
      <path d="M375.81,176.26c1.42,8.28,2.12,27.98-1.62,35.22-2.29,4.43-8.03,7.09-12.35,3.53-3.91-3.23-2.01-20.27-2.39-25.84-.34-4.89-3.19-18.85-6.62-24.19,0-.08,0-.16-.03-.23-.38-1.04-.93-2.21-1.05-3.22-.11-.91-.04-1.83.04-2.75.25-.2.49-.43.68-.7,3.85-5.42,6.76-11.53,14.23-5.08,5.53,4.78,7.9,16.2,9.11,23.26ZM371.79,200.13c1.04-8.67-1.08-34.31-6.14-41.26-.57-.78-3.62-3.95-4.41-3.77-.52,1.33-3.9,3.48-4.2,4.09-1.72,3.49,3.53,11.85,4.67,16.01,2.48,9.01,2.47,19.38,2.63,28.5.04,2.78.77,5.41-.06,8.53.24.25,4.16-.41,4.65-.85.43-.38,2.71-9.98,2.86-11.25Z"/>
      <path class="cls-4" d="M365.65,158.87c5.06,6.95,7.18,32.59,6.14,41.26-.15,1.27-2.43,10.87-2.86,11.25-.49.44-4.41,1.1-4.65.85.83-3.12.1-5.75.06-8.53-.16-9.12-.15-19.49-2.63-28.5-1.14-4.16-6.39-12.52-4.67-16.01.3-.61,3.68-2.76,4.2-4.09.79-.18,3.84,2.99,4.41,3.77Z"/>
      <path class="cls-3" d="M353.86,292.07c7.63,7.23,15.43,14.75,12.92,26.3-.86,3.96-7.01,12.69-10.45,14.64-.98.56-2.24.36-3.11.8-9.54,4.82-19.36,8.81-29.25,12.86,3.29,3.33,12.23,15.08,12.59,19.25.21,2.48-3.03,3.65-5.29,2.69-1.45-.61-2.54-2.56-3.85-2.22,2.06,4.24,2.43,20.64-.13,23.86-1.84,2.32-3.7,2.72-5.73.39-.8-.91-3.71-5.62-4.34-6.82-1.13-2.15-.14-5.66-2.27-7.73-.64-.63-2.73,2.84-4.7-2.18-2.95-7.54,2.35-19.7,3.22-27.58,2.29-3.72,8.53-3.75,12.57-5.25,8.35-3.1,24.62-9.48,31.19-14.78,3.63-2.92,6-11.61,4.64-16.05-1.15-3.75-6.3-9.63-9.14-12.59-.8-.83-1.78-1.51-2.71-2.24,1.31-1.1,2.59-2.21,3.84-3.35Z"/>
      <path class="cls-4" d="M365.99,231.52c4.58,2.12-3.79,12.9-5.54,4.63-.49-.6-.8-1.29-.83-2.08-.02-.69.2-1.4.55-1.98.73-1.23,2.02-2.07,3.45-2.15.24-.02.45.05.63.17.6-.08,1.12.35,1.32.89.05.14.07.29.1.44.09,0,.19.02.32.08Z"/>
      <path d="M363.06,225.46c10.58,1.41,12.3,16.6,1.56,17.76-14.15,1.52-9.39-16.22-3.98-17.79.92-.26,1.55-.09,2.42.03ZM360.45,236.15c1.75,8.27,10.12-2.51,5.54-4.63-.13-.06-.23-.08-.32-.08-.03-.15-.05-.3-.1-.44-.2-.54-.72-.97-1.32-.89-.18-.12-.39-.19-.63-.17-1.43.08-2.72.92-3.45,2.15-.35.58-.57,1.29-.55,1.98.03.79.34,1.48.83,2.08Z"/>
      <path d="M353.27,291.51c.2.19.39.37.59.56-1.25,1.14-2.53,2.25-3.84,3.35-.29-.22-.58-.45-.85-.69.6-.33,1.19-.68,1.74-1.09.88-.65,1.66-1.37,2.36-2.13Z"/>
      <path class="cls-2" d="M315.38,82.52c1.14.58,5.84,3.48,5.64,4.52-.3,1.52-8.54,8.26-10.32,9.69-14.99,12.03-44.46,29.2-65.34,25.1-13.48-.06-26.55-5.56-37.97-12.34-1.24-.73-2.35-1.65-3.35-2.68-8.38-4.88-15.39-10.96-22.6-17.54-.14-.1-.3-.2-.44-.3-.24-.15-.48-.33-.7-.55-.58-.44-1.16-.88-1.71-1.35.13-.27.28-.53.42-.8-.05-.21-.08-.43-.08-.65l2.34-3.28c.05-.03.11-.07.17-.09,1.34-2.11,2.63-4.24,3.27-6.84,2.33.39,7.25-2.44,8.67-2.4,1.45.03,1.29,1.58,2.21,2.08,3.93,2.14,8.64,3.6,13.63,4.43.06-.03.12-.05.19-.08,5.13.98,10.38,1.14,15.59.55,7.17-.72,14.02-2.69,19.25-5.97,5.41-3.38,6.48-5.5,13.84-5.81,17.3-.73,42.04,6.43,57.29,14.31Z"/>
      <path class="cls-1" d="M305.7,164.25c10.96,11.66,14.77,27.94,13.49,43.65-.8,9.73-8.71,27.44-20.73,21.42-4.4-2.21-14.25-16.57-16.59-21.27-5-10.07-6.09-30.92.83-40.08.88-1.16,2.88-2.41,4.12-3.71,1.26-.94,2.53-1.89,3.79-2.84.02-.01.02-.02.04-.03.87-.61,1.62-1.39,3.02-1.73,5.92-1.43,8.29.61,12.03,4.59ZM309.26,210.36c1.6-6.76-.81-26.74-5.43-32.19-2.35-2.79-7.6-5.32-10.03-1.17-.44.76-2.04,6.03-1.97,6.7.6,5.49,4.39,19.66,6.91,24.7,2.41,4.79,8.86,8.98,10.52,1.96Z"/>
      <path d="M315.89,169.9c10.02,17.1,14.47,45.79-1.84,60.41-8.47,7.6-13.78,6.91-22.07-.69-15.73-14.44-26.24-47.29-12.33-65.41.95-1.24,2.96-3.32,4.82-3.98,1.28-.82,2.64-1.51,4.09-2.01.19-.06.39-.07.59-.05,12.3-3.7,20.23.62,26.74,11.73ZM319.19,207.9c1.28-15.71-2.53-31.99-13.49-43.65-3.74-3.98-6.11-6.02-12.03-4.59-1.4.34-2.15,1.12-3.02,1.73-.02.01-.02.02-.04.03-1.26.95-2.53,1.9-3.79,2.84-1.24,1.3-3.24,2.55-4.12,3.71-6.92,9.16-5.83,30.01-.83,40.08,2.34,4.7,12.19,19.06,16.59,21.27,12.02,6.02,19.93-11.69,20.73-21.42Z"/>
      <path d="M303.83,178.17c4.62,5.45,7.03,25.43,5.43,32.19-1.66,7.02-8.11,2.83-10.52-1.96-2.52-5.04-6.31-19.21-6.91-24.7-.07-.67,1.53-5.94,1.97-6.7,2.43-4.15,7.68-1.62,10.03,1.17Z"/>
      <path d="M293.54,127.13c6.33-.63,8.69,8.25,5.1,6.63-.09-.04-.07-.78-.36-.95-8.39-5.1-10.17,3.91-15.21,3.17-4.28-.62,1.09-6.35,3.09-7.25.34-.16,6.71-1.53,7.38-1.6Z"/>
      <path d="M298.47,251.71c2.48,2.09-.18,20.27-4.28,22.4-9.2,4.75-17.26-6.33-22.22-12.77-.8-1.04-2.82-1.02-2.28-3.06.29-1.13,3.35-2.66,4.34-2.42,1,.24,7.63,14.2,13.97,14.76.29.14.59.25.9.32.8.18,1.67.13,2.38-.31.67-.41,1.1-1.05,1.4-1.76.12-.07.2-.13.22-.15,1.82-2.81-.12-12.8.92-15.96.45-1.39,4.05-1.55,4.65-1.05Z"/>
      <path d="M277.24,245.16c.94-3.14,7.82-1.52,6.05,1.56-1.16,2.03-6.99,1.59-6.05-1.56Z"/>
      <path d="M245.07,170.49c16.76,9.3,21.92,47.22,17.34,63.95-2.84,10.36-16.15,18.24-26.72,16.34-2.66-.47-10.03-6.68-11.73-8.96-12.32-16.57-21.27-37.46-12.53-57.67.29-.68,2.03-3.79,3.56-6.4.2-.18.39-.38.59-.55,1.33-1.18,2.8-2.14,3.99-3.43.04,0,.08,0,.12.02,3.97-3.03,8.59-5.13,13.52-5.23,4.03-.72,8.75.2,11.86,1.93ZM258.43,230.46c2.85-12.49-1.62-37.92-8.76-48.74-1.94-2.93-5.04-6.01-8.1-7.73-.35-.2-2.65-1.22-4.48-2.01-1.8-.43-3.56-.52-5.27-.33-.02,0-.04.02-.07.03-.04,0-.09-.01-.14-.01-.23,0-.47-.01-.7.01-.21.02-.45.04-.66.11-.17.07-.31.13-.44.21-2.37.57-4.63,1.64-6.71,3.02-.19.05-.37.15-.54.33-.01,0-.01.01-.01.01-.07.02-.14.03-.19.07-.09.06-.17.13-.25.2-1.57,1.15-3.05,2.6-4.07,4.24-.67,1.08-1.15,2.29-1.5,3.52-.19.39-.3.82-.38,1.26-7.65,16.35-2.24,33.85,7.45,48.61,3.64,5.53,10.39,14.8,17.96,13.39,8.44-1.57,14.96-7.88,16.86-16.19Z"/>
      <path class="cls-1" d="M249.67,181.72c7.14,10.82,11.61,36.25,8.76,48.74-1.9,8.31-8.42,14.62-16.86,16.19-7.57,1.41-14.32-7.86-17.96-13.39-9.69-14.76-15.1-32.26-7.45-48.61.08-.44.19-.87.38-1.26.35-1.23.83-2.44,1.5-3.52,1.02-1.64,2.5-3.09,4.07-4.24.08-.07.16-.14.25-.2.05-.04.12-.05.19-.07,0,0,0-.01.01-.01.17-.18.35-.28.54-.33,2.08-1.38,4.34-2.45,6.71-3.02.13-.08.27-.14.44-.21.21-.07.45-.09.66-.11.23-.02.47-.01.7-.01.05,0,.1.01.14.01.03-.01.05-.02.07-.03,1.71-.19,3.47-.1,5.27.33,1.83.79,4.13,1.81,4.48,2.01,3.06,1.72,6.16,4.8,8.1,7.73ZM247.4,230.1c3.69-3.48.13-19.35-1.23-24.22-1.49-5.29-5.08-17.85-12.55-13.99-8.06,4.17-2,27.44,1.97,33.52.35.52.66.95.96,1.3-.02.3.04.6.2.85.34.55.74,1.07,1.17,1.55.63.72,1.33,1.37,2.16,1.82.71.48,1.48.88,2.31,1.02,1.26.21,2.62-.11,3.45-1.1.48-.01,1-.21,1.56-.75Z"/>
      <path d="M246.17,205.88c1.36,4.87,4.92,20.74,1.23,24.22-.56.54-1.08.74-1.56.75-.83.99-2.19,1.31-3.45,1.1-.83-.14-1.6-.54-2.31-1.02-.83-.45-1.53-1.1-2.16-1.82-.43-.48-.83-1-1.17-1.55-.16-.25-.22-.55-.2-.85-.3-.35-.61-.78-.96-1.3-3.97-6.08-10.03-29.35-1.97-33.52,7.47-3.86,11.06,8.7,12.55,13.99Z"/>
      <path d="M230.44,147.29c.72.98.26,3.09-.47,3.15-1.75.14-5.48-2.67-9.48-1.3-3.29,1.13-1.67,10.52-8.03,8.16-.25-2.85.46-7.17,2.29-9.43,3.42-4.26,12.46-4.93,15.69-.58Z"/>
    </g>
  </g>
</svg>